<?xml version="1.0" encoding="UTF-8"?>
<svg id="Layer_1" data-name="Layer 1" xmlns="http://www.w3.org/2000/svg" viewBox="0 0 753.32 335.72">
  <defs>
    <style>
      .cls-1 {
        fill: #10123e;
      }

      .cls-2 {
        fill: #8400fb;
      }
    </style>
  </defs>
  <g>
    <g>
      <circle class="cls-1" cx="355" cy="22.55" r="22.55"/>
      <g>
        <rect class="cls-1" x="336.3" y="59.59" width="36" height="173.28"/>
        <path class="cls-1" d="M137.48,57.84h-10.88c-46.9,0-85.05,38.15-85.05,85.05v88.23h36v-88.23c0-27.04,22-49.05,49.05-49.05h10.88v-36Z"/>
        <path class="cls-1" d="M275.41,75.98c-14.79-10.72-32.65-16.56-50.96-16.56-47.95,0-86.97,39.01-86.97,86.97s39.01,86.97,86.97,86.97c18.31,0,36.18-5.84,50.96-16.56v16.21h36V59.59h-36v16.39ZM275.41,146.39c0,28.1-22.86,50.96-50.96,50.96s-50.96-22.86-50.96-50.96,22.86-50.96,50.96-50.96,50.96,22.86,50.96,50.96Z"/>
        <path class="cls-2" d="M750.23,94.58h3.09v-36h-3.09c-30.76,0-57.81,16.06-73.28,40.23-15.47-24.16-42.53-40.23-73.28-40.23h-3.09v36h3.09c28.1,0,50.96,22.86,50.96,50.96s-22.86,50.97-50.96,50.97h-3.09v36h3.09c30.76,0,57.82-16.06,73.28-40.23,15.47,24.16,42.52,40.23,73.28,40.23h3.09v-36h-3.09c-28.1,0-50.96-22.86-50.96-50.97s22.86-50.96,50.96-50.96Z"/>
        <path class="cls-2" d="M539.45,77.53c-14.79-10.72-32.65-16.56-50.96-16.56-47.95,0-86.97,39.01-86.97,86.97s39.01,86.97,86.97,86.97c18.31,0,36.18-5.84,50.96-16.56v16.21h36V10.24h-36v67.3ZM539.45,147.94c0,28.1-22.86,50.96-50.96,50.96s-50.96-22.86-50.96-50.96,22.86-50.96,50.96-50.96,50.96,22.86,50.96,50.96Z"/>
      </g>
    </g>
    <path class="cls-1" d="M23.08,71.31c-3.28,0-6.32-.59-9.12-1.77-2.8-1.18-5.25-2.83-7.34-4.95-2.1-2.12-3.73-4.58-4.89-7.38-1.16-2.8-1.74-5.82-1.74-9.05s.59-6.25,1.77-9.05c1.18-2.8,2.82-5.26,4.92-7.38,2.1-2.12,4.56-3.77,7.38-4.95,2.82-1.18,5.87-1.77,9.15-1.77s6.33.58,9.15,1.74c2.82,1.16,5.27,2.79,7.35,4.88,2.08,2.1,3.69,4.54,4.85,7.31,1.16,2.78,1.74,5.8,1.74,9.08s-.59,6.33-1.77,9.15c-1.18,2.82-2.83,5.29-4.95,7.41-2.12,2.12-4.58,3.77-7.38,4.95-2.8,1.18-5.84,1.77-9.12,1.77ZM23.02,67.71c2.8,0,5.38-.5,7.74-1.51,2.36-1.01,4.43-2.39,6.2-4.16,1.77-1.77,3.14-3.86,4.1-6.26.96-2.4,1.44-4.98,1.44-7.74s-.48-5.31-1.44-7.67c-.96-2.36-2.31-4.42-4.03-6.17-1.73-1.75-3.76-3.11-6.1-4.1-2.34-.98-4.91-1.48-7.71-1.48s-5.39.49-7.77,1.48c-2.38.98-4.44,2.37-6.16,4.16-1.73,1.79-3.08,3.87-4.07,6.23-.98,2.36-1.48,4.92-1.48,7.67s.48,5.31,1.44,7.67c.96,2.36,2.32,4.44,4.07,6.23,1.75,1.79,3.8,3.18,6.17,4.16,2.36.98,4.9,1.47,7.61,1.47ZM13.44,61.08v-25.84h10.76c3.41,0,6.08.81,8,2.43,1.92,1.62,2.89,3.8,2.89,6.56s-.96,5.05-2.89,6.62c-1.92,1.57-4.59,2.36-8,2.36h-5.12v7.87h-5.64ZM19.02,48.82h4.85c1.84,0,3.26-.4,4.26-1.21,1.01-.81,1.51-1.94,1.51-3.38s-.5-2.56-1.51-3.35c-1.01-.79-2.43-1.18-4.26-1.18h-4.85v9.12ZM30.04,61.08l-6.43-9.9h5.64l6.43,9.9h-5.64Z"/>
  </g>
  <g>
    <path class="cls-1" d="M53.1,287.04c.82,0,1.48-.31,1.96-.92.49-.62.76-1.46.81-2.54v-.38c0-1.08-.26-1.93-.77-2.54-.51-.62-1.18-.92-2-.92s-1.49.31-2,.92c-.51.62-.77,1.46-.77,2.54v.38c0,1.08.26,1.93.77,2.54.51.62,1.18.92,2,.92Z"/>
    <path class="cls-1" d="M61.34,287.04c.82,0,1.48-.31,1.96-.92.49-.62.76-1.46.81-2.54v-.38c0-1.08-.26-1.93-.77-2.54-.51-.62-1.18-.92-2-.92s-1.49.31-2,.92c-.51.62-.77,1.46-.77,2.54v.38c0,1.08.26,1.93.77,2.54.51.62,1.18.92,2,.92Z"/>
    <path class="cls-1" d="M134.97,327.4c-.77,0-1.41.31-1.93.92-.51.62-.77,1.46-.77,2.54v.46c0,1.03.26,1.85.77,2.46.51.62,1.16.92,1.93.92.87,0,1.57-.31,2.08-.92.51-.62.77-1.44.77-2.46v-.46c-.05-1.08-.32-1.93-.81-2.54-.49-.62-1.17-.92-2.04-.92Z"/>
    <path class="cls-1" d="M126.73,327.4c-.77,0-1.4.31-1.89.92-.49.62-.76,1.46-.81,2.54v.46c.05,1.03.32,1.85.81,2.46.49.62,1.12.92,1.89.92.87,0,1.57-.31,2.08-.92.51-.62.77-1.44.77-2.46v-.46c0-1.08-.26-1.93-.77-2.54-.51-.62-1.21-.92-2.08-.92Z"/>
    <path class="cls-1" d="M156.23,327.09c-.98,0-1.75.36-2.31,1.08-.57.72-.85,1.62-.85,2.7v.39c0,1.03.28,1.9.85,2.62.56.72,1.33,1.08,2.31,1.08.92,0,1.68-.36,2.27-1.08.59-.72.89-1.59.89-2.62v-.39c0-1.08-.3-1.98-.89-2.7-.59-.72-1.35-1.08-2.27-1.08Z"/>
    <path class="cls-1" d="M180.72,322.24h19.02c2.1,0,4-.38,5.7-1.15,1.69-.77,3.05-1.85,4.08-3.23,1.13,1.44,2.55,2.53,4.28,3.27,1.72.74,3.74,1.12,6.05,1.12h1c2.93,0,5.36-.55,7.32-1.66,1.95-1.1,3.44-2.59,4.47-4.47,1.03-1.87,1.54-3.99,1.54-6.35v-32.58c0-1.03-.28-1.87-.85-2.54-.57-.67-1.28-1-2.16-1s-1.61.33-2.19,1c-.59.67-.89,1.51-.89,2.54v32.35c0,2.16-.62,3.84-1.85,5.05-1.23,1.2-3.19,1.8-5.89,1.81-2.7,0-4.65-.59-5.85-1.77-1.21-1.18-1.81-2.85-1.81-5.01v-4.47c0-2.41-.53-4.57-1.58-6.47-1.05-1.9-2.54-3.4-4.47-4.51-1.93-1.1-4.22-1.65-6.89-1.65h-12.4c-1.28,0-2.49.17-3.62.5-1.13.33-2.13.78-3,1.35v-17.17c0-1.03-.31-1.87-.92-2.54-.62-.67-1.36-1-2.23-1s-1.59.33-2.16,1c-.57.67-.85,1.51-.85,2.54v39.2h-7.62c-2.67,0-4.62-.6-5.85-1.81-1.23-1.21-1.85-2.89-1.85-5.05v-13.94c0-1.03-.28-1.87-.85-2.54-.57-.67-1.28-1-2.16-1-.92,0-1.67.33-2.23,1-.57.67-.85,1.52-.85,2.54v13.94c0,2.16-.62,3.84-1.85,5.05-1.22,1.2-3.17,1.8-5.85,1.81-2.63-.01-4.56-.61-5.78-1.81-1.23-1.21-1.85-2.89-1.85-5.05v-13.94c0-1.03-.3-1.87-.89-2.54-.59-.67-1.32-1-2.19-1s-1.59.33-2.16,1c-.57.67-.85,1.52-.85,2.54v13.94c0,2.16-.62,3.84-1.85,5.05-1.23,1.21-3.21,1.81-5.93,1.81h-47.29c-2.67,0-4.62-.6-5.85-1.81-1.23-1.21-1.85-2.89-1.85-5.05v-5.08c0-2.87-.59-5.22-1.77-7.05-1.18-1.82-2.67-3.17-4.47-4.04-1.8-.87-3.65-1.31-5.55-1.31s-3.68.44-5.51,1.31c-1.82.87-3.33,2.22-4.51,4.04-1.18,1.82-1.77,4.17-1.77,7.05v5.7c0,2.82.59,5.15,1.77,6.97,1.18,1.82,2.68,3.17,4.51,4.04,1.82.87,3.66,1.31,5.51,1.31,1.69,0,3.35-.35,4.97-1.04,1.62-.69,2.96-1.65,4.04-2.89,1.08,1.08,2.45,1.96,4.12,2.66,1.67.69,3.63,1.04,5.89,1.04h48.29c2.36,0,4.4-.38,6.12-1.15,1.72-.77,3.09-1.82,4.12-3.16,1.08,1.33,2.48,2.39,4.2,3.16,1.72.77,3.74,1.15,6.05,1.15h.92c2.36,0,4.41-.36,6.16-1.08,1.74-.72,3.13-1.72,4.16-3,1.03,1.28,2.4,2.29,4.12,3,1.72.72,3.73,1.08,6.05,1.08h8.16M62.88,309.92c0,1.69-.3,3.03-.89,4-.59.98-1.31,1.67-2.16,2.08-.85.41-1.71.62-2.58.62s-1.75-.2-2.62-.62c-.87-.41-1.61-1.1-2.19-2.08-.59-.97-.89-2.31-.89-4v-5.24c0-1.69.28-3.03.85-4,.56-.97,1.3-1.68,2.2-2.12.9-.44,1.76-.65,2.58-.65.87,0,1.74.22,2.62.65.87.44,1.6,1.14,2.19,2.12.59.98.89,2.31.89,4v5.24ZM206.52,309.53c0,1.44-.28,2.67-.85,3.7-.57,1.03-1.36,1.81-2.39,2.35-1.03.54-2.23.81-3.62.81h-18.95v-11.09c0-1.49.28-2.75.85-3.77.56-1.03,1.37-1.81,2.43-2.35,1.05-.54,2.25-.81,3.58-.81h12.09c1.39,0,2.59.27,3.62.81,1.03.54,1.82,1.32,2.39,2.35.56,1.03.85,2.29.85,3.77v4.24Z"/>
    <path class="cls-1" d="M245.33,273.64c-.87,0-1.61.33-2.2,1-.59.67-.89,1.51-.89,2.54v41.74c0,1.03.29,1.87.89,2.54.59.67,1.32,1,2.2,1s1.6-.33,2.19-1c.59-.67.89-1.51.89-2.54v-41.74c0-1.03-.3-1.87-.89-2.54-.59-.67-1.32-1-2.19-1Z"/>
    <path class="cls-1" d="M419.04,294.17c-1.93-1.1-4.22-1.65-6.89-1.65h-13.17c-.21,0-.35-.05-.42-.15-.08-.1-.09-.18-.04-.23.05-.31.2-.67.46-1.08.26-.41.62-.92,1.08-1.54l8.55-10.4c.72-.77,1.08-1.56,1.08-2.39,0-.92-.28-1.67-.85-2.23-.57-.56-1.29-.85-2.16-.85-.97,0-1.93.49-2.85,1.46l-10.01,12.09c-1.08,1.33-1.72,2.48-1.93,3.43-.21.95-.31,1.73-.31,2.35v1.62c0,1.08.37,1.98,1.12,2.7.74.72,1.71,1.08,2.89,1.08h16.4c1.39,0,2.59.27,3.62.81,1.03.54,1.82,1.32,2.39,2.35.56,1.03.85,2.29.85,3.77v4.24c0,1.44-.28,2.67-.85,3.7-.57,1.03-1.36,1.81-2.39,2.35-1.03.54-2.23.81-3.62.81h-74.4c-2.57,0-4.47-.56-5.7-1.69-1.23-1.13-1.9-2.7-2-4.7v-14.4c0-1.03-.28-1.87-.85-2.54-.57-.67-1.31-1-2.23-1-.82,0-1.54.33-2.16,1-.62.67-.92,1.52-.92,2.54v14.71c0,1.9-.49,3.39-1.46,4.47-.98,1.08-2.18,1.62-3.62,1.62-1.54,0-2.8-.54-3.77-1.62-.98-1.08-1.46-2.57-1.46-4.47v-14.71c0-1.03-.3-1.87-.89-2.54-.59-.67-1.32-1-2.2-1-.82,0-1.54.33-2.16,1-.62.67-.92,1.52-.92,2.54v14.71c0,1.9-.49,3.39-1.46,4.47-.98,1.08-2.21,1.62-3.7,1.62s-2.72-.53-3.7-1.58c-.98-1.05-1.46-2.58-1.46-4.58v-14.63c0-1.03-.28-1.87-.85-2.54-.57-.67-1.28-1-2.16-1s-1.61.33-2.19,1c-.59.67-.89,1.52-.89,2.54v27.34c0,.62-.1,1.32-.31,2.12-.21.8-.58,1.57-1.12,2.31-.54.74-1.35,1.35-2.43,1.81-1.08.46-2.49.69-4.24.69h-2.85c-1.8,0-3.22-.23-4.27-.69-1.05-.46-1.86-1.07-2.43-1.81-.57-.74-.94-1.52-1.12-2.31-.18-.8-.27-1.5-.27-2.12v-17.25c0-1.03-.28-1.87-.85-2.54-.57-.67-1.31-1-2.23-1-.82,0-1.54.33-2.16,1-.62.67-.92,1.52-.92,2.54v17.25c0,2.05.47,4.07,1.42,6.05.95,1.98,2.43,3.59,4.43,4.85,2,1.26,4.62,1.89,7.86,1.89h3.85c3.18,0,5.75-.59,7.7-1.77,1.95-1.18,3.41-2.7,4.39-4.54.98-1.85,1.49-3.77,1.54-5.78l.08-3.31c.62.56,1.37,1.03,2.27,1.39.9.36,1.84.54,2.81.54h.31c1.59,0,3.08-.35,4.47-1.04,1.39-.69,2.57-1.66,3.54-2.89.97,1.34,2.2,2.32,3.66,2.97,1.46.64,2.97.96,4.51.96h.31c1.69,0,3.26-.37,4.7-1.12,1.44-.74,2.62-1.76,3.54-3.04,1.08,1.34,2.45,2.36,4.12,3.08,1.67.72,3.63,1.08,5.89,1.08h75.09c2.67,0,4.97-.55,6.89-1.66,1.93-1.1,3.4-2.61,4.43-4.5,1.03-1.9,1.54-4.06,1.54-6.47v-4.47c0-2.41-.51-4.57-1.54-6.47s-2.5-3.4-4.43-4.51Z"/>
    <path class="cls-1" d="M473.38,327.4c-.77,0-1.41.31-1.93.92-.51.62-.77,1.46-.77,2.54v.46c0,1.03.26,1.85.77,2.46.51.62,1.15.92,1.93.92.87,0,1.56-.31,2.08-.92.51-.62.77-1.44.77-2.46v-.46c-.05-1.08-.32-1.93-.81-2.54-.49-.62-1.17-.92-2.04-.92Z"/>
    <path class="cls-1" d="M473.15,292.05c-.87,0-1.59.33-2.16,1-.57.67-.85,1.52-.85,2.54v13.94c0,2.16-.62,3.84-1.85,5.05-1.22,1.2-3.17,1.8-5.85,1.81-2.63-.01-4.54-.61-5.74-1.81-1.21-1.21-1.81-2.89-1.81-5.05v-4.39c0-2.41-.53-4.57-1.58-6.47-1.05-1.9-2.54-3.4-4.47-4.51-1.93-1.1-4.22-1.65-6.89-1.65h-2.39c-1.03,0-1.89.27-2.58.81-.69.54-1.04,1.25-1.04,2.12,0,.82.35,1.52,1.04,2.08.69.57,1.55.85,2.58.85h2.31c1.39,0,2.59.27,3.62.81,1.03.54,1.82,1.32,2.39,2.35.56,1.03.85,2.29.85,3.77v4.24c0,1.44-.28,2.67-.85,3.7-.57,1.03-1.36,1.81-2.39,2.35-1.03.54-2.23.81-3.62.81h-7.47c-1.03,0-1.89.27-2.58.81-.69.54-1.04,1.24-1.04,2.12s.35,1.58,1.04,2.12c.69.54,1.55.81,2.58.81h7.55c2,0,3.85-.35,5.55-1.04,1.69-.69,3.11-1.73,4.23-3.12,1.08,1.29,2.49,2.3,4.24,3.04,1.73.74,3.73,1.11,6.01,1.11h0s.08,0,.08,0h.85c2.93,0,5.38-.55,7.36-1.66,1.97-1.1,3.47-2.59,4.47-4.47,1-1.87,1.5-3.99,1.5-6.35v-14.17c0-1.03-.3-1.87-.88-2.54-.59-.67-1.32-1-2.2-1Z"/>
    <path class="cls-1" d="M465.14,327.4c-.77,0-1.4.31-1.89.92-.49.62-.76,1.46-.81,2.54v.46c.05,1.03.32,1.85.81,2.46.49.62,1.12.92,1.89.92.87,0,1.56-.31,2.08-.92.51-.62.77-1.44.77-2.46v-.46c0-1.08-.26-1.93-.77-2.54-.51-.62-1.21-.92-2.08-.92Z"/>
    <path class="cls-1" d="M489.59,321.47c.59-.67.88-1.51.88-2.54v-41.74c0-1.03-.3-1.87-.88-2.54-.59-.67-1.32-1-2.2-1s-1.61.33-2.2,1-.89,1.51-.89,2.54v41.74c0,1.03.3,1.87.89,2.54.59.67,1.32,1,2.2,1s1.6-.33,2.2-1Z"/>
    <path class="cls-1" d="M502.1,292.05c-.82,0-1.55.33-2.2,1-.64.67-.96,1.52-.96,2.54v27.34c0,.62-.09,1.32-.27,2.12-.18.8-.54,1.55-1.08,2.27-.54.72-1.31,1.32-2.31,1.81s-2.32.73-3.97.73h-.92c-.97,0-1.78.28-2.43.85-.64.56-.96,1.26-.96,2.08,0,.87.35,1.58,1.04,2.12.69.54,1.55.81,2.58.81h1.15c3.18-.05,5.76-.72,7.74-2,1.98-1.28,3.41-2.89,4.31-4.81.9-1.93,1.35-3.91,1.35-5.97v-27.34c0-1.03-.3-1.87-.88-2.54-.59-.67-1.32-1-2.2-1Z"/>
    <path class="cls-1" d="M548.85,287.04c.87,0,1.55-.31,2.04-.92.49-.62.76-1.46.81-2.54v-.38c0-1.08-.26-1.93-.77-2.54-.51-.62-1.21-.92-2.08-.92-.77,0-1.41.31-1.93.92s-.77,1.46-.77,2.54v.38c0,1.08.26,1.93.77,2.54.51.62,1.16.92,1.93.92Z"/>
    <path class="cls-1" d="M540.69,287.04c.82,0,1.49-.31,2-.92.51-.62.77-1.46.77-2.54v-.38c0-1.08-.26-1.93-.77-2.54s-1.18-.92-2-.92-1.49.31-2,.92-.77,1.46-.77,2.54v.38c0,1.08.26,1.93.77,2.54.51.62,1.18.92,2,.92Z"/>
    <path class="cls-1" d="M563.72,292.05c-.87,0-1.61.33-2.19,1-.59.67-.89,1.52-.89,2.54v13.94c0,2.16-.6,3.84-1.81,5.05-1.21,1.21-3.17,1.81-5.89,1.81h-16.4c-2.72,0-4.69-.6-5.89-1.81-1.21-1.21-1.81-2.89-1.81-5.05v-11.48c0-1.03-.3-1.87-.88-2.54-.59-.67-1.32-1-2.2-1s-1.61.33-2.2,1c-.59.67-.89,1.52-.89,2.54v11.71c0,2.36.5,4.48,1.5,6.35,1,1.87,2.5,3.36,4.51,4.47,2,1.11,4.44,1.66,7.32,1.66h17.48c2.93,0,5.36-.55,7.32-1.66,1.95-1.1,3.44-2.59,4.47-4.47,1.03-1.87,1.54-3.99,1.54-6.35v-14.17c0-1.03-.3-1.87-.89-2.54-.59-.67-1.32-1-2.2-1Z"/>
    <path class="cls-1" d="M580.16,321.47c.59-.67.88-1.51.88-2.54v-41.74c0-1.03-.3-1.87-.88-2.54-.59-.67-1.32-1-2.2-1s-1.61.33-2.2,1-.89,1.51-.89,2.54v41.74c0,1.03.3,1.87.89,2.54.59.67,1.32,1,2.2,1s1.6-.33,2.2-1Z"/>
    <path class="cls-1" d="M645.81,327.09c-.98,0-1.75.36-2.31,1.08-.57.72-.85,1.62-.85,2.7v.39c0,1.03.28,1.9.85,2.62.56.72,1.33,1.08,2.31,1.08.92,0,1.68-.36,2.27-1.08.59-.72.89-1.59.89-2.62v-.39c0-1.08-.3-1.98-.89-2.7-.59-.72-1.35-1.08-2.27-1.08Z"/>
    <path class="cls-1" d="M663.07,287.04c.82,0,1.49-.31,2-.92.51-.62.77-1.46.77-2.54v-.38c0-1.08-.26-1.93-.77-2.54-.51-.62-1.18-.92-2-.92-.87,0-1.55.31-2.04.92-.49.62-.73,1.46-.73,2.54v.38c0,1.08.24,1.93.73,2.54.49.62,1.17.92,2.04.92Z"/>
    <path class="cls-1" d="M671.23,287.04c.82,0,1.49-.31,2-.92.51-.62.77-1.46.77-2.54v-.38c0-1.08-.26-1.93-.77-2.54-.51-.62-1.18-.92-2-.92s-1.48.31-1.96.92-.73,1.46-.73,2.54v.38c0,1.08.24,1.93.73,2.54.49.62,1.14.92,1.96.92Z"/>
    <path class="cls-1" d="M695.87,287.04c.92,0,1.68-.36,2.27-1.08.59-.72.89-1.62.89-2.7v-.39c0-1.03-.3-1.91-.89-2.66-.59-.74-1.35-1.12-2.27-1.12-.98,0-1.75.37-2.31,1.12-.57.74-.85,1.63-.85,2.66v.39c0,1.08.28,1.98.85,2.7.56.72,1.33,1.08,2.31,1.08Z"/>
    <path class="cls-1" d="M747.78,297.36c-1.18-1.8-2.67-3.13-4.47-4-1.8-.87-3.65-1.31-5.55-1.31s-3.75.44-5.55,1.31c-1.8.87-3.29,2.21-4.47,4-1.18,1.8-1.77,4.13-1.77,7.01v5.16c0,2.16-.62,3.84-1.85,5.05-1.22,1.2-3.17,1.8-5.85,1.81-2.68-.01-4.63-.61-5.85-1.81-1.23-1.21-1.85-2.89-1.85-5.05v-4.39c0-2.41-.51-4.57-1.54-6.47-1.03-1.9-2.5-3.4-4.43-4.51-1.93-1.1-4.2-1.65-6.82-1.65h-9.7c-1.08,0-1.95.27-2.62.81-.67.54-1,1.25-1,2.12,0,.82.33,1.52,1,2.08.67.57,1.54.85,2.62.85h9.55c1.39,0,2.59.27,3.62.81,1.03.54,1.82,1.32,2.39,2.35.56,1.03.85,2.29.85,3.77v4.24c0,1.44-.28,2.67-.85,3.7-.56,1.03-1.36,1.81-2.39,2.35-1.03.54-2.23.81-3.62.81h-19.72c-2.67,0-4.62-.6-5.85-1.81-1.23-1.21-1.85-2.89-1.85-5.05v-13.94c0-1.03-.28-1.87-.85-2.54s-1.28-1-2.16-1c-.92,0-1.67.33-2.23,1-.57.67-.85,1.52-.85,2.54v13.94c0,2.16-.62,3.84-1.85,5.05-1.22,1.2-3.17,1.8-5.85,1.81-2.63-.01-4.56-.61-5.78-1.81-1.23-1.21-1.85-2.89-1.85-5.05v-13.94c0-1.03-.28-1.87-.85-2.54s-1.28-1-2.16-1c-.92,0-1.67.33-2.23,1-.57.67-.85,1.52-.85,2.54v13.94c0,2.16-.62,3.84-1.85,5.05-1.23,1.21-3.21,1.81-5.93,1.81h-31.58c-2.72,0-4.69-.6-5.89-1.81-1.21-1.21-1.81-2.89-1.81-5.05v-13.94c0-1.03-.28-1.87-.85-2.54-.57-.67-1.28-1-2.16-1-.82,0-1.55.33-2.2,1-.64.67-.96,1.52-.96,2.54v27.34c0,.62-.09,1.32-.27,2.12-.18.8-.54,1.57-1.08,2.31-.54.74-1.31,1.35-2.31,1.81s-2.32.69-3.97.69h-.92c-.97,0-1.78.28-2.43.85-.64.56-.96,1.26-.96,2.08,0,.87.35,1.58,1.04,2.12.69.54,1.55.81,2.58.81h1.08c3.18,0,5.76-.65,7.74-1.96s3.41-2.9,4.31-4.78c.9-1.88,1.35-3.68,1.35-5.43v-3.08c.82.51,1.84.94,3.04,1.27,1.21.33,2.53.5,3.97.5h32.81c2.36,0,4.42-.36,6.16-1.08,1.74-.72,3.13-1.72,4.16-3,1.03,1.28,2.4,2.29,4.12,3,1.72.72,3.74,1.08,6.05,1.08h.92c2.36,0,4.42-.38,6.16-1.15,1.74-.77,3.13-1.82,4.16-3.16,1.03,1.33,2.4,2.39,4.12,3.16,1.72.77,3.74,1.15,6.05,1.15h20.41c2,0,3.84-.35,5.51-1.04,1.67-.69,3.07-1.73,4.2-3.12,1.08,1.29,2.48,2.3,4.2,3.04,1.72.74,3.76,1.12,6.12,1.12h.92c2,0,3.81-.28,5.43-.85,1.62-.56,2.94-1.33,3.97-2.31.97,1.64,2.36,2.88,4.16,3.7,1.8.82,3.62,1.23,5.47,1.23s3.75-.44,5.55-1.31c1.8-.87,3.28-2.22,4.47-4.04,1.18-1.82,1.77-4.15,1.77-6.97v-7.32c0-2.87-.59-5.21-1.77-7.01ZM743.32,311.46c0,1.69-.28,3.03-.85,4-.56.98-1.27,1.67-2.12,2.08-.85.41-1.71.62-2.58.62s-1.75-.2-2.62-.62c-.87-.41-1.61-1.1-2.2-2.08-.59-.97-.89-2.31-.89-4v-6.78c0-1.69.3-3.03.89-4,.59-.97,1.32-1.68,2.2-2.12.87-.44,1.74-.65,2.62-.65s1.73.22,2.58.65c.85.44,1.55,1.14,2.12,2.12.56.98.85,2.31.85,4v6.78Z"/>
  </g>
</svg>