<svg width="909" height="1064" viewBox="0 0 909 1064" fill="none" xmlns="http://www.w3.org/2000/svg">
<path fill-rule="evenodd" clip-rule="evenodd" d="M505.527 805.07C503.054 805.78 496.082 806.869 490.035 807.492C473.954 809.148 469.718 811.494 455.091 826.846C448.729 833.522 441.17 840.77 438.293 842.953C427.334 851.268 407.579 858.308 397.984 857.318C393.919 856.899 391.772 857.27 387.949 859.052C375.908 864.667 359.61 889.907 354.642 910.634C351.053 925.603 352.437 947.361 357.625 957.568C363.956 970.021 376.736 970.667 397.521 959.584C401.612 957.403 405.103 955.762 405.279 955.939C406.027 956.686 396.631 966.266 391.311 970.183C378.839 979.365 366.847 980.917 346.105 976.037C320.648 970.046 278.094 962.503 227.662 955.042C187.699 949.129 164.189 943.387 157.745 937.966C156.086 936.569 153.934 935.578 152.963 935.763C150.61 936.211 150.133 940.293 152.172 942.545C156.764 947.619 181.525 954.776 209.087 958.996C217.929 960.349 235.958 963.097 249.152 965.101C274.857 969.005 329.637 978.784 335.928 980.592C338.947 981.46 339.512 981.968 338.633 983.025C337.833 983.991 337.815 986.13 338.568 990.707C339.142 994.195 339.949 999.973 340.359 1003.55C341.057 1009.61 341.273 1010.04 343.606 1010.04C345.986 1010.04 346.118 1009.73 346.388 1003.55C346.542 999.973 346.044 993.756 345.278 989.73C343.897 982.465 343.902 982.414 345.995 982.911C354.842 985.013 361.79 985.743 369.472 985.375C377.268 985.002 379.348 984.483 385.746 981.309C393.977 977.225 402.349 970.51 408.469 963.084C412.972 957.62 413.646 954.664 410.573 953.86C409.474 953.572 408.574 953.123 408.574 952.862C408.574 952.6 409.474 951.242 410.573 949.845C413.276 946.41 413.123 945.63 408.955 941.58C405.916 938.625 404.719 938.111 401.22 938.26C398.943 938.356 395.408 939.142 393.364 940.006C391.32 940.869 388.449 941.576 386.985 941.576C383.335 941.576 378.234 935.953 376.605 930.133C374.79 923.652 375.857 902.61 378.558 891.599C380.924 881.957 388.057 866.057 390.474 865.041C391.359 864.668 395.681 864.245 400.078 864.1C409.797 863.78 423.531 859.563 434.562 853.51C440.506 850.25 444.956 846.451 456.051 835.169C463.748 827.343 472.069 819.772 474.542 818.345C479.072 815.732 488.58 813.658 496.094 813.644C498.327 813.639 503.634 812.725 507.889 811.61C512.144 810.496 516.052 809.847 516.573 810.17C518.161 811.151 517.637 816.413 515.496 820.968C512.678 826.962 507.456 831.654 497.55 837.09C487.048 842.855 482.113 846.614 477.29 852.519C472.57 858.298 471.497 863.01 474.269 865.782C475.842 867.356 478.392 867.948 486.641 868.654C492.356 869.143 500.051 870.078 503.741 870.729C508.269 871.529 510.157 871.64 511.375 871.041C509.581 870.852 508.285 870.559 507.889 870.164C506.741 869.016 509.08 867.993 512.85 866.972C510.583 864.775 502.383 863.18 487.757 862.011L479.482 861.351L481.084 858.733C483.991 853.985 491.275 848.193 500.719 843.122C512.488 836.802 519.448 830.112 522.365 822.313C528.103 806.976 521.71 800.428 505.527 805.07ZM368.944 914.089C369.267 906.942 370.214 897.977 371.048 894.167C371.881 890.357 372.374 887.051 372.143 886.82C371.451 886.127 365.48 898.597 362.964 905.989C356.662 924.502 358.637 951.218 366.816 958.101C371.551 962.086 378.623 961.231 390.844 955.193C402.492 949.44 405.541 947.148 403.829 945.43C402.831 944.429 401.222 944.617 395.762 946.376C392.011 947.584 387.939 948.573 386.714 948.573C380.83 948.573 373.497 941.556 370.467 933.025C368.583 927.721 368.419 925.686 368.944 914.089Z" fill="black"/>
<path d="M580.309 0.0182754C569.923 1.12175 539.231 14.1176 525.15 21.1383C484.263 41.5207 451.062 75.4487 434.572 113.698C422.086 142.658 418.69 175.5 425.211 204.242C426.838 211.413 428.442 213.102 431.695 211.07C433.322 210.054 433.562 210.211 433.562 212.289C433.562 214.897 435.626 217.153 437.6 216.703C438.4 216.521 439.736 219.655 441.314 225.414C444.046 235.396 444.629 249.193 443.158 269.143L442.366 279.888H438.569C432.881 279.888 422.735 276.391 416.825 272.394C405.77 264.914 399.579 253.432 399.579 240.405C399.579 234.188 399.276 232.818 397.718 231.985C396.402 231.281 395.334 231.371 394.072 232.294C392.51 233.436 392.352 234.749 392.812 242.811C393.268 250.791 393.822 253.003 396.96 259.352C401.307 268.147 409.059 276.275 417.254 280.63C423.743 284.077 433.483 286.885 438.954 286.885H442.558V291.773C442.558 304.82 449.086 326.326 458.671 344.858C467.636 362.19 476.148 373.439 493.533 390.928C511.032 408.531 515.923 411.687 527.094 412.584C533.887 413.129 535.688 414.76 533.668 418.535C532.878 420.012 533.133 420.347 535.134 420.468C538.875 420.692 540.67 422.747 540.351 426.439C540.197 428.238 540.349 429.989 540.69 430.331C541.786 431.426 542.713 422.943 542.038 418.023L541.383 413.264L553.69 411.97C568.435 410.42 588.334 405.487 602.502 399.872C614.093 395.277 615.474 394.404 615.474 391.682C615.474 388.35 612.821 388.55 602.268 392.676C579.24 401.68 559.04 405.826 538.162 405.834C528.152 405.838 523.846 405.42 520.105 404.085C510.266 400.571 487.644 377.756 474.412 358.001C459.73 336.08 449.555 309.208 449.555 292.355V286.962L453.802 285.864C456.138 285.261 458.95 284.524 460.049 284.226C461.149 283.929 464.928 282.127 468.446 280.223C473.435 277.524 475.028 277.051 475.678 278.075C476.136 278.798 476.517 279.623 476.526 279.91C476.534 280.197 478.476 282.539 480.841 285.116C484.194 288.766 485.627 289.673 487.338 289.225C490.641 288.361 490.045 285.272 485.602 280.224C479.996 273.855 479.667 271.173 483.631 264.152C491.595 250.044 494.533 241.883 494.533 233.861C494.533 230.117 496.245 230.06 501.8 233.618C504.125 235.107 506.146 236.389 506.292 236.466C506.438 236.543 507.238 239.218 508.07 242.412C513.138 261.87 529.808 277.953 550.592 283.44C558.93 285.641 573.962 285.676 582.49 283.514C586.063 282.608 592.36 280.231 596.483 278.232C606.394 273.427 618.52 261.415 623.276 251.689C626.692 244.704 629.42 234.096 629.45 227.682C629.452 227.33 629.437 227.01 629.424 226.717C629.395 226.056 629.371 225.534 629.552 225.097C630.227 223.462 633.752 223.003 650.449 220.831L650.466 220.829C652.439 220.572 654.596 220.292 656.954 219.982L660.694 219.492C693.117 215.236 696.085 214.847 698.172 216.023C698.382 216.141 698.583 216.275 698.804 216.423C698.886 216.478 698.971 216.535 699.06 216.593C701.231 218.015 701.472 218.718 700.919 221.995C700.38 225.186 700.61 225.939 702.421 226.907C704.8 228.181 707.429 226.807 707.429 224.292C707.429 222.156 708.64 222.596 715.01 227.044C728.701 236.605 736.44 245.068 742.538 257.148L745.446 262.908L743.501 266.719C734.282 284.791 708.642 299.341 699.16 291.883C693.997 287.821 689.512 290.808 693.234 295.832C698.681 303.181 714.331 301.934 727.991 293.061C733.77 289.309 747.41 275.829 747.41 273.872C747.41 271.805 749.221 273.023 750.409 275.89C751.777 279.194 755.991 280.132 757.051 277.369C757.843 275.307 754.146 265.465 748.049 253.401C741.313 240.073 730.104 228.598 712.927 217.444C685.115 199.384 680.578 196.114 673.404 188.955C663.375 178.951 654.342 165.08 644.425 144.452C626.236 106.62 621.326 97.0804 615.619 88.4785C607.419 76.1193 599.827 67.7973 597.106 68.1851C593.189 68.7438 593.987 72.4161 599.302 78.2843C609.187 89.2002 617.243 103.02 631.466 133.457C650.426 174.031 661.102 189.515 679.965 203.794C684.006 206.854 686.143 209.059 685.316 209.315C684.559 209.551 672.921 211.165 659.453 212.901C645.984 214.636 633.554 216.291 631.829 216.577C628.871 217.069 628.613 216.853 627.248 212.76C625.665 208.006 622.928 206.576 620.851 209.416C619.983 210.605 619.886 211.879 620.536 213.588C621.97 217.361 621.709 217.917 618.508 217.917C615.046 217.917 613.118 220.526 614.608 223.191C615.231 224.302 616.796 224.914 619.022 224.914C622.348 224.914 622.471 225.05 622.471 228.702C622.471 239.184 616.102 253.24 607.4 261.962C585.682 283.73 548.745 284.125 527.438 262.817C518.515 253.895 514.051 243.93 513.237 231.118C513.017 227.658 512.365 224.355 511.787 223.778C510.106 222.096 507.055 223.236 506.707 225.674C506.675 225.899 506.648 226.106 506.625 226.293C506.53 227.04 506.473 227.487 506.229 227.647C505.863 227.886 505.078 227.481 503.12 226.473C502.791 226.304 502.428 226.117 502.029 225.914C499.872 224.814 496.818 223.915 495.24 223.915C492.829 223.915 492.126 223.287 490.824 219.973C489.205 215.85 487.555 214.591 485.037 215.557C483.253 216.241 483.135 218.463 484.651 222.811C485.579 225.474 485.479 226.32 484.048 227.902C483.103 228.945 480.916 230.103 479.186 230.475C477.457 230.847 474.699 231.839 473.058 232.677C471.139 233.66 467.044 234.241 461.578 234.307C454.241 234.396 453.033 234.656 452.734 236.207C452.175 239.11 454.479 240.907 458.765 240.907C461.219 240.907 463.702 241.669 465.274 242.906C469.649 246.347 474.42 245.016 476.044 239.901C476.657 237.966 478.077 237.472 481.875 237.87C482.883 237.976 484.636 237.24 485.771 236.236C487.826 234.415 487.83 234.423 487.137 238.908C486.354 243.982 482.82 252.211 478.553 258.898C476.975 261.372 475.406 264.524 475.066 265.901C474.073 269.929 462.435 276.785 452.465 279.215L449.877 279.845L449.966 255.128C450.047 232.256 449.886 229.848 447.805 222.851C444.626 212.162 444.782 210.517 449.174 208.433C451.163 207.488 457.22 206.225 462.635 205.624C472.499 204.529 474.158 203.69 472.905 200.426C471.801 197.549 454.061 198.81 445.406 202.382C441.268 204.089 442.299 161.38 446.64 151.252C447.712 148.751 450.981 143.05 453.902 138.582C479.286 99.7732 530.861 71.2916 582.688 67.4604C591.541 66.8057 594.051 65.6313 592.917 62.6747C592.093 60.5287 590.695 60.3828 578.553 61.1834C530.377 64.3599 479.077 91.8829 451.67 129.259C437.241 148.936 431.696 167.853 432.876 193.382C433.497 206.847 432.629 208.265 430.703 196.927C424.127 158.198 434.672 117.529 460.168 83.282C463.362 78.993 470.938 70.51 477.005 64.4299C493.67 47.7287 509.245 36.5 529.608 26.5068C543.214 19.8289 553.888 16.4345 566.548 14.7603C574.519 13.7058 576.024 13.217 576.339 11.5808C576.401 11.256 576.888 10.1183 577.506 8.67399C578.912 5.38999 580.996 0.520889 580.309 0.0182754Z" fill="#D04C4C"/>
<path fill-rule="evenodd" clip-rule="evenodd" d="M403.577 472.661C351.181 496.061 331.501 507.916 309.886 529.094C297.355 541.372 293.835 546.1 295.622 548.253C297.376 550.367 300.379 550.13 301.858 547.762C303.738 544.75 304.625 545.339 304.625 549.597V553.432L288.01 550.346L271.396 547.262L268.894 540.484C264.734 529.209 254.564 519.862 246.388 519.797C244.62 519.783 242.294 520.994 239.93 523.16C236.448 526.353 236.213 526.954 235.835 533.646C235.46 540.282 235.293 540.717 233.297 540.296C232.122 540.049 227.634 539.155 223.324 538.31C214.155 536.513 213.669 536.279 213.669 533.676C213.669 528.045 203.604 515.182 197.362 512.836C187.589 509.163 177.699 515.541 177.69 525.522C177.688 527.858 177.349 529.77 176.935 529.77C175.658 529.77 155.413 525.827 155.224 525.541C155.126 525.393 153.428 521.815 151.452 517.588C147.406 508.936 143.155 505.367 135.11 503.864C125.802 502.124 119.715 505.601 117.597 513.867C116.541 517.985 116.038 518.653 114.285 518.271C113.149 518.023 105.904 516.654 98.188 515.229L84.1578 512.638L78.6235 504.462C71.7078 494.246 68.2985 491.788 61.045 491.788C52.4302 491.788 45.7504 496.678 45.7504 502.985C45.7504 505.306 45.3856 505.81 44.0013 505.404C38.7278 503.858 2.39145 497.717 1.20803 498.171C0.217509 498.551 -0.125325 500.177 0.0395948 503.716L0.272482 508.722L122.713 661.859C190.055 746.084 245.271 815.266 245.415 815.598C245.703 816.266 235.592 815.894 222.927 814.772C218.4 814.37 214.014 814.423 213.182 814.889C211.457 815.854 211.155 819.198 212.707 820.156C213.277 820.509 220.137 821.23 227.95 821.758C247.987 823.114 260 825.586 293.499 835.244C328.748 845.407 339.663 847.828 362.597 850.566C372.217 851.714 382.337 853.121 385.086 853.692C393.68 855.478 395.045 855.373 395.397 852.894C395.885 849.465 390.828 846.966 381.753 846.152C366.739 844.802 343.943 841.493 333.611 839.161C327.839 837.859 309.847 832.978 293.63 828.315C277.413 823.651 262.232 819.526 259.897 819.148C257.561 818.769 255.649 818.16 255.649 817.796C255.649 817.432 199.689 747.193 131.294 661.708C45.8744 554.944 7.46099 506.21 8.60444 506.053C9.519 505.928 18.1388 507.299 27.7591 509.099L45.2507 512.372L46.521 516.823C50.2372 529.85 57.1409 537.713 65.5718 538.524C70.8313 539.029 72.2905 538.084 71.261 534.84C70.8612 533.58 69.354 532.711 66.8312 532.284C64.4194 531.877 61.8706 530.463 59.9265 528.456C54.6981 523.052 51.5876 513.013 55.4957 514.154C56.4582 514.434 69.8387 516.964 85.2313 519.775C100.624 522.586 113.936 525.093 114.814 525.348C115.692 525.602 116.979 527.713 117.674 530.039C120.335 538.957 125.692 548.699 128.822 550.318C133.07 552.515 136.135 551.874 136.503 548.712C136.74 546.677 136.154 545.872 133.59 544.714C130.991 543.541 129.728 541.767 126.969 535.427C125.094 531.118 123.707 527.453 123.887 527.284C124.065 527.116 136.132 529.18 150.7 531.872C165.267 534.564 177.524 536.766 177.936 536.766C178.348 536.767 178.686 537.649 178.686 538.728C178.686 542.597 183.065 552.321 186.242 555.508C189.677 558.953 193.614 559.745 195.573 557.384C197.17 555.459 195.909 552.855 193.029 552.133C189.442 551.232 183.731 538.758 186.913 538.771C187.611 538.774 198.976 540.793 212.17 543.259C225.363 545.724 236.461 547.746 236.83 547.752C237.2 547.757 238.011 549.304 238.633 551.188C241.941 561.211 250.705 570.334 255.758 569.013C260.109 567.875 260.483 562.755 256.215 562.755C254.996 562.755 253.093 561.742 251.986 560.506C249.089 557.266 245.33 550.751 245.981 550.1C246.412 549.669 293.764 557.923 304.235 560.254C305.743 560.59 306.963 562.419 308.514 566.674C311.885 575.919 318.8 580.259 324.046 576.422C326.789 574.416 325.275 570.751 321.705 570.751C318.713 570.751 316.266 568.599 315.171 565.004C314.642 563.269 314.884 562.755 316.227 562.755C319.372 562.755 383.068 574.828 383.713 575.547C384.06 575.932 420.419 635.62 464.51 708.186C508.601 780.752 545.321 840.79 546.11 841.606C546.303 841.806 546.689 842.233 547.205 842.802L547.207 842.805C549.045 844.835 552.525 848.681 554.828 850.603C555.401 850.174 555.965 849.738 556.519 849.294C555.708 847.335 553.978 844.063 550.951 838.979C550.921 837.944 529.286 801.57 502.872 758.148C476.457 714.727 440.102 654.911 422.081 625.225C404.061 595.539 388.783 570.673 388.13 569.967C387.479 569.262 377.307 566.905 365.525 564.73C353.745 562.555 343.175 560.558 342.039 560.292C340.512 559.936 339.132 557.6 336.764 551.364C333.299 542.242 327.19 534.266 321.594 531.555L318.503 530.058L323.56 525.512C330.203 519.539 346.537 508.532 359.432 501.341C371.26 494.744 377.03 492.009 413.572 475.684L440.059 463.85L431.563 463.904C423.088 463.957 423.019 463.978 403.577 472.661ZM73.5369 510.312C74.1716 509.678 70.2086 503.572 67.5518 501.091C64.4993 498.24 61.011 497.584 56.81 499.07C54.4082 499.919 53.1588 501.108 52.6501 503.028C52.2263 504.628 52.3482 506.034 52.9429 506.402C54.3842 507.293 73.0182 510.831 73.5369 510.312ZM144.56 518.584C142.927 515.601 140.833 513.587 137.744 512.029C132.016 509.14 129.209 509.19 126.166 512.233C123.56 514.839 122.88 519.245 124.962 520.035C127.745 521.091 145.824 523.984 146.351 523.458C146.661 523.146 145.856 520.953 144.56 518.584ZM206.332 534.442C207.524 533.251 204.162 527.208 199.978 523.023C195.325 518.371 191.02 517.449 187.02 520.251C184.839 521.778 183.218 527.394 184.211 529.982C184.806 531.533 205.141 535.633 206.332 534.442ZM260.694 538.861C258.679 534.869 256.182 531.72 253.482 529.763C248.525 526.173 245.183 525.924 243.507 529.021C242.209 531.421 241.814 540.257 242.955 541.398C243.804 542.247 262.787 545.954 263.36 545.382C263.589 545.153 262.389 542.218 260.694 538.861ZM329.179 550.634C326.778 545.336 324.028 541.679 320.117 538.585C316.821 535.977 314.052 535.542 312.517 537.392C310.92 539.317 310.932 552.469 312.532 554.07C313.069 554.606 317.582 555.812 322.56 556.746L322.842 556.799C328.065 557.781 330.555 558.249 331.233 557.351C331.851 556.532 330.967 554.581 329.278 550.853L329.179 550.634Z" fill="#ACACAC"/>
<path fill-rule="evenodd" clip-rule="evenodd" d="M580.286 0.00013605C580.293 0.00587145 580.3 0.0119173 580.309 0.0182754C580.435 0.00490442 580.426 -0.000994054 580.286 0.00013605ZM589.41 23.5412C585.667 19.4821 584.697 17.1372 586.155 15.6799C588.734 13.1011 595.394 17.8039 598.829 24.6297C600.88 28.7047 601.762 38.8479 600.771 46.9851C600.13 52.2496 599.618 53.539 598.048 53.8409C594.741 54.4766 593.561 51.48 594.184 44.0345C595.084 33.3075 593.958 28.4758 589.41 23.5412ZM523.519 188.906C523.519 186.311 528.368 184.041 541.535 180.472C549.316 178.362 552.646 177.971 560.211 178.279C572.076 178.761 576.897 181.389 573.023 185.262C571.851 186.433 570.684 186.532 567.275 185.746C560.055 184.078 548.024 185.345 536.862 188.947C526.234 192.376 523.519 192.367 523.519 188.906ZM549.965 219.629C559.545 219.798 563.121 219.457 567.497 217.958C574.946 215.409 579.886 215.678 580.309 218.657C580.535 220.243 579.952 221.158 578.31 221.792C574.654 223.203 564.952 225.914 563.555 225.914C562.859 225.914 560.952 227.038 559.319 228.412C557.686 229.787 555.519 230.911 554.504 230.911C553.488 230.911 551.321 229.787 549.688 228.412C546.545 225.768 540.804 225.02 538.826 226.998C538.23 227.594 536.678 227.932 535.378 227.748C531.831 227.245 531.705 223.491 535.161 221.229C537.501 219.697 539.792 219.45 549.965 219.629ZM703.013 256.249C701.691 252.805 707.81 246.756 716.038 243.373C723.035 240.497 723.778 240.427 725.491 242.49C727.443 244.843 725.673 246.846 719.659 249.089C716.797 250.157 712.634 252.781 710.408 254.92C706.402 258.768 704.135 259.176 703.013 256.249ZM503.632 334.98C494.8 334.331 492.499 333.003 493.895 329.363C494.497 327.795 495.581 327.652 503.299 328.116C508.698 328.441 514.215 329.474 517.771 330.824C522.619 332.665 523.519 333.392 523.519 335.465C523.519 338.827 521.305 339.399 516.27 337.336C513.935 336.38 508.248 335.319 503.632 334.98ZM209.768 412.991C200.221 404.688 196.574 396.642 198.729 388.64C199.662 385.176 200.101 384.753 202.479 385.028C204.888 385.305 205.147 385.708 204.929 388.837C204.391 396.568 205.454 398.694 214.604 408.192C226.883 420.937 227.016 421.258 227.642 439.432L228.162 454.544L232.313 459.045C238.217 465.448 239.907 474.844 236.999 485.099C236.637 486.377 235.705 486.817 233.823 486.599C231.23 486.299 231.168 486.133 231.458 480.294C231.885 471.67 230.981 468.164 227.25 463.991C221.522 457.584 221.225 456.479 221.161 441.272C221.105 427.983 220.962 427.002 218.478 422.762C217.035 420.3 213.115 415.903 209.768 412.991ZM473.819 422.134C484.004 411.646 488.252 406.507 490.135 402.393C491.852 398.641 493.266 396.833 494.484 396.833C502.116 396.833 495.774 411.216 483.238 422.34C475.632 429.088 463.481 442.983 455.94 453.556L449.347 462.802H438.456C432.466 462.802 427.565 462.627 427.565 462.412C427.565 462.198 432.005 460.127 437.432 457.809L447.3 453.596L453.674 444.955C457.181 440.203 466.245 429.933 473.819 422.134ZM273.558 436.917C269.548 424.423 270.322 419.037 277.561 409.077C279.705 406.129 281.379 404.829 283.034 404.829C286.775 404.829 286.775 407.176 283.034 412.97C277.056 422.23 276.829 424.295 280.493 436.08C284.392 448.613 284.484 453.716 280.96 461.841C278.509 467.493 278.378 468.438 279.392 473.152C280.387 477.773 280.266 478.802 278.198 483.292C276.932 486.041 275.628 489.078 275.299 490.039C274.947 491.071 273.691 491.788 272.24 491.788C268.404 491.788 268.03 488.529 271.155 482.353C273.328 478.058 273.632 476.648 272.741 474.985C270.939 471.618 271.499 465.649 274.15 459.954C277.402 452.966 277.289 448.544 273.558 436.917ZM148.764 431.502C147.559 428.313 147.341 421.514 148.41 420.446C148.799 420.057 150.009 419.869 151.097 420.03C152.519 420.24 153.399 421.59 154.221 424.826C156.012 431.873 156.977 433.007 165.502 438.078C177.617 445.284 181.663 451.015 181.678 460.988C181.687 466.356 183.197 469.496 186.622 471.267C189.903 472.964 192.076 476.475 194.188 483.492C195.876 489.098 195.239 490.992 191.802 490.593C189.57 490.334 188.911 489.435 187.362 484.542C185.864 479.813 184.779 478.269 181.235 475.831C176.102 472.298 175.971 472.009 175.083 462.201C174.244 452.95 171.986 449.829 161.811 443.865C154.4 439.521 150.341 435.674 148.764 431.502ZM536.736 428.698C532.808 430.8 529.354 425.129 533.238 422.955C535.518 421.679 538.511 423.306 538.511 425.819C538.511 426.88 537.713 428.175 536.736 428.698ZM521.66 454.111C522.73 449.27 524.775 441.392 526.204 436.604L528.802 427.897L531.364 429.913C532.95 431.161 534.757 431.722 536.104 431.383C537.415 431.054 538.791 431.45 539.561 432.376C540.637 433.674 540.497 434.007 538.675 434.482C536.588 435.028 536.512 435.536 536.512 448.988V462.929L533.264 462.615C530.136 462.314 530 462.115 529.614 457.305L529.212 452.307L528.066 457.305C526.973 462.073 526.755 462.316 523.317 462.607L519.713 462.911L521.66 454.111ZM554.828 850.603C556.735 852.196 557.834 852.468 556.519 849.294C557.832 848.243 559.091 847.151 560.296 846.017C567.18 839.538 569.371 838.563 571.442 841.059C573.142 843.107 571.632 845.441 564.782 851.356C553.975 860.688 543.897 866.008 529.155 870.164C525.181 871.284 516.359 871.565 511.375 871.041C511.597 870.931 511.797 870.798 511.987 870.64C513.65 869.261 513.956 868.045 512.85 866.972C514.923 866.411 517.429 865.85 520.025 865.268L520.026 865.268L520.028 865.268C523.682 864.45 527.515 863.591 530.574 862.635C539.911 859.718 548.032 855.687 554.828 850.603ZM424.837 519.525C425.456 501.212 427.916 491.085 435.76 474.566L440.872 463.801H444.797C446.956 463.801 448.55 464.138 448.341 464.551C441.533 477.961 437.173 488.022 435.19 494.895C432.215 505.216 430.107 522.053 430.868 529.427L431.418 534.768H427.871H424.324L424.837 519.525ZM515.177 492.038C516.083 483.934 518.671 466.573 519.164 465.288C519.517 464.368 521.055 463.801 523.193 463.801C526.026 463.801 526.554 464.118 526.112 465.551C525.193 468.536 522.598 484.853 521.543 494.287C520.989 499.235 520.533 510.366 520.528 519.025C520.52 534.099 520.435 534.768 518.521 534.768C516.592 534.768 516.522 534.101 516.522 515.777C516.522 501.259 516.228 496.782 515.273 496.771C514.44 496.76 514.523 496.432 515.522 495.786C516.347 495.254 516.537 494.811 515.945 494.802C515.354 494.794 515.008 493.549 515.177 492.038ZM514.267 527.021C514.082 531.557 513.93 527.846 513.93 518.775C513.93 509.705 514.082 505.993 514.267 510.529C514.452 515.065 514.452 522.486 514.267 527.021ZM429.027 557.257C427.557 552.753 424.567 538.96 424.567 536.679C424.567 536.177 426.069 535.767 427.905 535.767H431.243L432.534 542.988C434.45 553.71 436.217 558.123 448.418 582.65C454.54 594.956 459.55 605.41 459.55 605.88C459.55 606.35 458.059 606.734 456.238 606.734H452.926L441.793 584.494C435.669 572.263 429.925 560.006 429.027 557.257ZM513.523 590.741C516.222 576.763 516.515 573.313 516.518 555.438L516.522 535.628L518.771 535.947C520.761 536.23 521.093 537.016 521.653 542.764C523.465 561.37 522.237 584.163 518.491 601.486C517.391 606.572 517.251 606.734 513.94 606.734C512.062 606.734 510.527 606.622 510.529 606.484C510.531 606.346 511.878 599.262 513.523 590.741ZM543.013 548.349C541.087 541.802 539.511 536.291 539.511 536.105C539.511 535.919 541.068 535.767 542.97 535.767C546.201 535.767 546.503 536.049 547.539 540.015C551.862 556.588 563.798 587.321 571.027 600.487L574.456 606.734H570.406H566.355L560.557 594.49C553.562 579.718 547.721 564.356 543.013 548.349ZM894.789 550.13C892.768 541.123 892.467 538.318 893.396 537.198C896.962 532.901 899.175 537.09 902.803 555.005C907.118 576.316 908.621 592.298 908.656 617.229C908.717 660.663 903.329 692.941 888.727 736.629C885.153 747.324 880.649 762.392 878.72 770.113C873.316 791.743 869.576 804.094 864.632 816.635C857.118 835.701 844.385 860.135 830.41 882.306C827.468 886.973 827.289 887.661 828.662 889.035C830.034 890.407 829.953 891.427 827.873 898.987C823.945 913.263 822.287 925.36 821.76 943.575C821.482 953.195 821.048 962.079 820.795 963.316C820.295 965.77 817.537 966.325 815.577 964.365C813.015 961.803 814.777 927.443 818.385 909.636C819.437 904.438 820.146 900.032 819.958 899.846C819.771 899.659 818.376 901.662 816.856 904.298C810.17 915.903 794.927 937.793 788.007 945.728C774.28 961.469 752.072 977.902 747.103 975.996C746.173 975.638 745.411 974.302 745.411 973.027C745.411 971.203 746.528 970.195 750.658 968.299C761.265 963.43 780.486 945.64 792.039 930C795.322 925.557 801.803 915.771 806.442 908.251C811.081 900.731 819.964 886.375 826.18 876.347C842.714 849.676 854.866 825.045 862.542 802.641C864.143 797.969 868.11 784.025 871.359 771.656C874.606 759.287 879.758 741.828 882.804 732.859C889.126 714.251 893.333 698.281 896.28 681.698C904.456 635.685 903.949 590.977 894.789 550.13ZM398.579 578.337C398.579 577.097 398.879 575.781 399.246 575.416C400.572 574.089 402.432 574.83 409.192 579.375C412.975 581.92 419.312 585.483 423.273 587.294C432.401 591.468 443.055 598.42 447.501 603.106L450.946 606.734H446.475C442.84 606.734 441.046 606.013 436.874 602.879C434.051 600.758 427.316 596.881 421.908 594.264C407.749 587.412 398.579 581.152 398.579 578.337ZM455.474 654.711C450.964 631.188 447.202 615.023 445.411 611.482L443.516 607.733H447.567C450.807 607.733 451.817 608.184 452.613 609.982L453.609 612.231L453.175 609.982C452.786 607.969 453.138 607.733 456.531 607.733H460.323L461.453 613.98C462.073 617.417 463.014 623.376 463.544 627.224C464.072 631.072 464.94 635.708 465.473 637.526C466.004 639.344 466.203 641.446 465.916 642.197C465.292 643.823 462.735 644.95 461.459 644.16C460.958 643.851 460.549 644.27 460.549 645.092C460.549 647.892 463.585 661.194 465.661 667.491C468.084 674.843 467.669 676.967 463.893 676.518C461.646 676.251 460.933 675.336 459.357 670.704C458.328 667.68 456.581 660.483 455.474 654.711ZM497.317 640.715C501.734 631.096 506.401 619.745 507.687 615.489C509.986 607.882 510.08 607.752 513.319 607.742C516.534 607.733 516.597 607.815 515.965 611.184C515.364 614.39 515.944 615.435 524.156 625.927C542.658 649.565 566.242 675.515 567.119 673.202C567.328 672.653 571.937 663.168 577.362 652.126C585.899 634.746 586.936 632.105 585.079 632.46C583.832 632.698 582.267 632.106 581.341 631.046C579.607 629.062 567.497 609.135 567.497 608.267C567.497 607.973 569.184 607.747 571.245 607.764C574.942 607.794 575.084 607.946 581.485 618.68C585.056 624.667 588.204 629.344 588.482 629.073C588.76 628.801 591.467 624.002 594.498 618.406C599.849 608.528 600.117 608.224 603.744 607.923C605.798 607.752 607.478 607.878 607.478 608.203C607.478 608.528 604.243 614.74 600.289 622.008C591.522 638.124 574.046 673.93 568.962 686.196C566.911 691.144 562.645 702.153 559.483 710.661C556.322 719.169 553.016 726.582 552.139 727.136C550.972 727.872 550.093 727.693 548.868 726.467C547.3 724.9 547.404 724.192 550.475 715.49C552.28 710.373 555.948 700.746 558.628 694.096C561.307 687.445 563.499 681.755 563.499 681.453C563.499 681.151 559.616 676.921 554.869 672.055C545.799 662.755 525.017 638.371 517.566 628.285L513.182 622.349L511.674 625.786C510.846 627.676 507.137 635.745 503.432 643.716C492.168 667.954 490.487 677.042 495.121 688.627C496.433 691.903 496.512 693.012 495.523 694.204C492.008 698.44 488.349 693.473 486.336 681.733C485.299 675.686 485.401 673.935 487.224 666.551C488.381 661.867 492.81 650.529 497.317 640.715ZM702.54 735.094C698.512 723.436 699.347 706.09 704.618 691.944C706.25 687.566 706.981 686.696 709.032 686.696C710.384 686.696 711.72 687.297 712.002 688.031C712.284 688.764 711.312 693.374 709.842 698.276C706.208 710.393 705.99 725.134 709.304 734.576C711.352 740.41 711.411 741.114 709.971 742.555C707.451 745.075 705.211 742.826 702.54 735.094ZM482.242 700.08C476.786 697.269 475.392 695.006 477.96 693.129C481.295 690.689 486.843 693.639 499.296 704.47C507.216 711.356 541.514 734.868 553.481 741.612C562.383 746.629 587.624 757.874 610.476 767.005C621.879 771.561 633.6 775.273 648.458 779.034C680.853 787.233 697.49 794.037 698.254 799.403C698.806 803.279 695.835 803.014 686.211 798.327C675.87 793.293 666.955 790.428 645.058 785.102C636.866 783.109 625.621 779.898 620.07 777.968C606.848 773.369 563.069 754.641 553.504 749.492C541.241 742.889 503.643 717.26 495.032 709.633C490.635 705.738 484.878 701.439 482.242 700.08ZM696.459 786.439C696.493 781.712 700.319 773.058 708.119 760.065C714.131 750.049 715.247 748.721 717.674 748.696C721.858 748.652 721.234 751.98 715.329 761.202C708.423 771.986 703.431 782.453 703.431 786.148C703.431 790.078 704.882 792.127 715.857 803.71C726.85 815.31 732.559 824.617 741.566 845.624C748.134 860.941 748.793 863.868 745.931 864.966C743.422 865.929 741.595 863.071 735.478 848.62C726.766 828.034 722.449 821.03 710.611 808.265C699.462 796.242 696.422 791.553 696.459 786.439ZM175.116 769.009C180.315 761.232 185.157 754.635 185.875 754.35C187.71 753.622 188.884 754.038 190.004 755.815C191.021 757.427 184.641 767.774 168.219 791.147C141.609 829.019 132.708 852.673 132.708 885.523C132.708 900.527 134.151 908.257 138.258 915.266C141.047 920.028 141.384 923.11 139.205 923.946C136.483 924.99 134.768 923.453 131.715 917.235C127.651 908.958 125.75 899.224 125.729 886.576C125.675 853.538 134.959 827.245 158.735 793.099C162.545 787.627 169.916 776.788 175.116 769.009ZM566.466 836.565C565.066 833.952 566.558 831.921 570.319 831.317C574.113 830.707 580.527 831.627 583.66 833.23C588.022 835.462 591.146 840.703 592.878 848.699C593.188 850.124 594.545 851.78 595.918 852.407C597.284 853.029 599.54 855.259 600.931 857.361C604.212 862.319 609.353 877.574 610.111 884.601C610.437 887.625 611.745 892.349 613.016 895.098C614.289 897.846 615.641 902.548 616.023 905.546C616.405 908.543 617.674 912.816 618.844 915.041C622.922 922.798 621.027 935.627 614.746 942.777C613.402 944.308 613.504 944.709 615.756 946.775C619.523 950.232 682.873 1056.59 682.91 1059.52C682.935 1061.57 682.289 1062.17 679.244 1062.93C675.921 1063.75 661.767 1059.72 539.312 1023.08C464.382 1000.65 401.583 981.697 399.757 980.952C397.172 979.9 396.507 979.099 396.758 977.34C396.935 976.098 397.887 974.927 398.872 974.739C399.857 974.551 461.807 992.734 536.537 1015.14C611.268 1037.55 672.658 1055.64 672.961 1055.34C673.264 1055.04 659.21 1030.96 641.73 1001.82L609.951 948.859L605.466 952.349C602.999 954.268 598.507 957.009 595.484 958.44C590.593 960.755 588.511 961.082 576.617 961.405C561.816 961.807 541.507 960.276 531.515 958.004C487.309 947.953 457.783 944.851 431.202 947.466C419.03 948.663 416.57 948.247 416.57 944.987C416.57 942.506 420.321 941.604 435.225 940.494C459.054 938.722 487.51 941.355 518.233 948.175C542.732 953.613 544.278 953.796 566.997 953.935C588.215 954.065 589.155 953.987 593.771 951.714C600.393 948.454 609.126 940.202 612.039 934.454C613.575 931.423 614.474 927.942 614.474 925.03V920.411L608.478 926.501C603.455 931.604 600.299 933.643 589.014 939.082C581.605 942.652 574.681 945.574 573.626 945.574C571.861 945.574 570.496 943.781 570.496 941.463C570.496 940.94 576.488 937.633 583.811 934.111C604.876 923.982 610.639 917.413 609.04 905.356C607.959 897.201 607.799 897.123 602.328 902.042C599.613 904.483 591.901 910.186 585.193 914.714C578.484 919.243 571.019 924.441 568.603 926.265C563.775 929.91 561.404 930.375 559.477 928.053C557.592 925.781 560.532 923.13 577.418 911.867C585.431 906.523 594.571 899.643 597.733 896.577C602.975 891.491 603.48 890.624 603.48 886.7C603.48 882.219 598.461 865.792 595.882 861.831C594.057 859.03 592.485 859.797 592.485 863.491C592.485 865.007 591.824 868.474 591.016 871.195C589.307 876.95 585.088 881.409 575.493 887.596C569.71 891.327 545.744 903.594 544.24 903.594C542.792 903.594 540.651 900.391 541.179 899.015C541.501 898.178 545.976 895.525 551.123 893.12C561.798 888.131 575.46 880.057 580.23 875.918C583.996 872.648 586.491 864.564 586.482 855.656C586.475 847.801 584.916 843.159 581.251 840.075C578.399 837.676 577.528 837.463 572.822 838.016C568.19 838.56 567.442 838.39 566.466 836.565ZM645.709 958.948C640.396 955.552 639.488 953.944 641.661 951.771C643.398 950.034 644.098 950.21 650.326 953.959C671.806 966.885 694.546 974.225 716.82 975.421C726.361 975.934 728.915 976.388 729.755 977.725C730.522 978.945 730.42 979.851 729.372 981.113C728.117 982.626 726.586 982.764 716.888 982.245C692.973 980.962 666.705 972.365 645.709 958.948Z" fill="black"/>
<path fill-rule="evenodd" clip-rule="evenodd" d="M619.753 20.5476C618.929 21.1493 618.421 22.5116 618.623 23.5751C618.935 25.2114 620.219 25.6282 626.978 26.2919C648.822 28.4339 663.59 32.5389 681.071 41.3288C710.73 56.2407 736.341 81.8027 751.766 111.886C764.821 137.351 767.949 151.511 770.884 198.427C773.419 238.959 775.046 248.806 784.319 279.753C795.792 318.039 799.37 336.867 799.379 358.996C799.384 370.971 799.007 374.879 797.306 380.486C793.711 392.328 783.745 407.064 768.2 423.518C764.462 427.476 761.403 431.154 761.403 431.693C761.403 432.232 762.048 433.318 762.835 434.105C764.079 435.349 763.883 435.823 761.352 437.694C759.748 438.879 756.529 443.326 754.197 447.575C751.864 451.824 748.469 456.947 746.652 458.958C743.073 462.92 732.495 467.8 727.487 467.8C725.027 467.8 724.391 467.238 723.379 464.17C721.756 459.257 716.39 453.537 709.436 449.313C696.634 441.536 682.68 416.171 680.354 396.444C677.621 373.267 685.552 340.629 699.561 317.401C703.569 310.755 703.887 308.371 700.918 307.231C698.227 306.199 695.416 309.961 688.862 323.368C681.493 338.44 678.412 347.26 675.422 361.85C672.789 374.692 672.479 394.73 674.75 405.329C676.509 413.542 681.73 425.396 688.073 435.578L692.595 442.837L685.9 455.568C682.217 462.57 678.246 469.351 677.075 470.636C673.649 474.395 659.783 480.524 647.42 483.741C611.951 492.974 567.659 491.634 546.507 480.689C538.386 476.487 537.879 475.887 537.086 469.546C536.387 463.95 536.288 463.801 533.286 463.801H530.204L530.85 477.545C531.509 491.574 534.2 511.944 537.288 526.272L539.011 534.268L542.679 534.574L546.346 534.879L544.971 529.576C541.431 515.921 537.099 484.792 538.739 484.792C539.2 484.792 541.71 485.872 544.316 487.193C556.558 493.396 575.521 496.771 598.181 496.78C622.611 496.79 646.335 492.795 663.701 485.748C667.411 484.243 670.447 483.244 670.447 483.529C670.447 483.998 646.355 527.526 642.547 533.938C629.355 556.147 601.481 605.016 601.481 605.933C601.481 606.373 603.036 606.734 604.937 606.734C607.956 606.734 608.7 606.196 610.821 602.486C625.421 576.947 638.44 554.252 649.667 534.768C662.025 513.322 695.744 452.235 696.749 449.471C697.012 448.745 698.252 449.274 700.051 450.883C701.635 452.299 705.307 454.941 708.21 456.755C714.386 460.612 715.987 462.929 714.321 465.598C713.432 467.021 713.527 468.658 714.743 472.802C716.154 477.618 716.163 479.04 714.828 486.726C712.97 497.42 707.502 513.794 699.239 533.411L692.864 548.546L684.904 554.151C680.526 557.233 674.543 561.169 671.61 562.898C668.675 564.628 665.793 567.101 665.203 568.394C663.507 572.116 665.743 577.494 671.923 584.558C674.959 588.029 677.444 591.094 677.444 591.37C677.444 593.319 673.401 597.96 661.446 609.732C653.909 617.154 642.181 629.955 635.381 638.18C601.916 678.664 563.008 735.625 565.1 741.076C565.437 741.952 566.764 742.67 568.049 742.67C569.937 742.67 571.115 741.274 574.169 735.423C579.521 725.17 599.913 694.936 615.233 674.537C634.584 648.772 652.503 627.821 667.778 613.101L681.396 599.976L681.877 603.106C682.142 604.826 682.643 608.933 682.992 612.231C683.341 615.53 686.011 627.674 688.925 639.219C695.598 665.649 696.915 675.285 695.458 687.014C694.859 691.833 694.636 696.207 694.961 696.733C695.96 698.35 700.174 697.795 700.969 695.942C701.382 694.98 701.929 688.795 702.186 682.198C702.724 668.353 701.642 661.346 694.938 635.22C692.54 625.875 690.042 614.201 689.387 609.279C686.757 589.511 690.69 571.575 705.393 536.267C713.887 515.872 717.819 504.766 719.904 495.287C720.872 490.889 721.814 486.743 721.999 486.074C722.251 485.159 723.277 485.25 726.123 486.44C728.829 487.57 731.845 487.885 736.671 487.54C745.804 486.887 754.5 482.54 762.322 474.717L768.305 468.734L769.399 473.014C770.001 475.369 773.848 487.865 777.948 500.784C788.12 532.832 789.417 539.309 790.095 561.48C790.935 588.876 787.142 615.779 779.016 640.063C771.809 661.6 764.371 673.56 746.903 691.694C729.666 709.589 722.806 719.585 720.376 730.351C719.014 736.385 719.947 743.344 722.287 744.597C725.485 746.308 726.602 744.317 726.804 736.555C727.113 724.619 732.268 716.596 755.018 692.641C761.049 686.291 768.183 677.788 770.87 673.746C779.023 661.482 786.439 642.632 790.918 622.791C795.806 601.135 796.828 591.605 796.815 567.752C796.805 547.212 796.573 544.18 794.14 532.769C792.676 525.897 788.534 511.217 784.937 500.147C781.339 489.078 778.395 479.457 778.395 478.769C778.395 477.82 780.256 477.678 786.141 478.179C820.197 481.077 838.81 484.711 852.926 491.214C859.089 494.052 862.549 496.546 868.461 502.41C874.369 508.269 876.602 509.88 878.456 509.618C883.296 508.933 881.915 505.592 873.451 497.505C858.032 482.774 840.913 477.03 799.885 472.822C788.89 471.695 778.937 470.558 777.767 470.296C774.604 469.591 773.304 462.999 773.994 451.154C774.522 442.093 774.394 441.078 772.411 438.556C771.224 437.049 769.354 435.815 768.255 435.815C766.722 435.815 768.186 433.711 774.563 426.758C789.594 410.367 798.713 396.967 803.204 384.674C805.772 377.644 805.881 376.539 805.851 357.851C805.81 332.748 804.074 323.668 789.944 274.619C781.126 244.008 779.737 235.048 777.364 193.429C776.061 170.564 773.277 150.208 769.821 138.281C762.066 111.521 747.348 86.9113 726.888 66.4969C705.128 44.7851 680.434 30.4559 652.615 23.3972C641.36 20.5416 622.051 18.8674 619.753 20.5476ZM767.302 449.304C767.716 447.088 767.87 444.72 767.644 444.043C766.615 440.954 764.221 443.496 758.452 453.806C756.144 457.929 753.053 462.602 751.583 464.189C747.915 468.15 735.361 473.844 728.802 474.52C725.842 474.826 723.422 475.43 723.422 475.863C723.422 476.296 724.658 477.626 726.17 478.817C728.497 480.652 729.916 480.927 735.416 480.612C751.329 479.696 763.937 467.318 767.302 449.304ZM671.651 572.212C671.487 572.905 673.736 576.235 676.648 579.614C677.106 580.144 677.524 580.639 677.908 581.094C679.733 583.253 680.788 584.502 681.605 584.361C682.726 584.168 683.395 581.353 684.983 574.673L684.984 574.672C685.144 573.998 685.313 573.286 685.493 572.533C685.587 572.14 685.684 571.737 685.784 571.323C687.232 565.315 688.31 560.346 688.178 560.279C687.465 559.915 671.9 571.154 671.651 572.212Z" fill="#E32B2B"/>
</svg>
