<svg width="34" height="30" viewBox="0 0 34 30" fill="none" xmlns="http://www.w3.org/2000/svg">
<g clip-path="url(#clip0_825_3533)">
<path d="M10.7412 28.7746C10.6243 28.8457 10.4577 28.8078 10.3986 28.6716C10.3663 28.5977 10.3868 28.6318 10.3809 27.0983H10.8596V26.9217H10.3809V26.2018H10.2595C10.1712 26.6463 10.0548 26.9945 9.58762 26.9945V27.0983H9.95721C9.96506 28.606 9.9387 28.626 9.98217 28.7835C10.0335 28.9664 10.1636 29.0741 10.3747 29.0741C10.6414 29.0741 10.8313 28.9603 10.9493 28.7599L10.8439 28.6891C10.8147 28.7237 10.7802 28.7522 10.7412 28.7746ZM6.93211 26.1343C7.09615 26.4382 7.59332 26.1434 7.32693 25.9045C7.1284 25.7384 6.83172 25.9339 6.93211 26.1343ZM8.14097 27.2985C8.14097 27.0051 8.76461 26.8035 9.14064 27.4064L9.29571 27.2688C9.15214 27.0828 8.98586 26.9306 8.75283 26.8935C8.18892 26.8033 7.82494 27.1083 7.82494 27.4673C7.82494 27.8911 8.2164 28.0367 8.6059 28.2146C9.27973 28.5202 8.89304 29.0475 8.39811 28.9063C8.20883 28.851 8.06974 28.6899 7.95421 28.5288L7.78092 28.6835C7.88832 28.8225 8.01563 28.9351 8.1777 29.0021C8.46232 29.1236 8.93847 29.0965 9.18243 28.8906C9.41152 28.6982 9.49256 28.291 9.19 28.0336C8.85715 27.7419 8.14097 27.6779 8.14097 27.2985ZM12.2373 26.8788C11.9899 26.8788 11.7664 27.1185 11.6268 27.32V26.9217H11.2053V29.0287H11.6268V27.5694C11.6747 27.4925 11.7376 27.4003 11.8006 27.3347C11.9153 27.2182 11.9953 27.2193 12.131 27.2896C12.2715 27.3657 12.4302 27.3441 12.5028 27.2854C12.5914 27.2138 12.5973 27.0507 12.4708 26.9544C12.403 26.9021 12.3214 26.8788 12.2373 26.8788ZM3.75109 25.9048C3.65099 25.9934 3.65912 26.121 3.75109 26.2012C3.97683 26.3958 4.32117 26.1041 4.0932 25.9048C4.00459 25.8284 3.85541 25.8173 3.75109 25.9048ZM5.07577 27.3065V26.9217H4.6529V29.0287H5.07577V27.4673C5.52695 27.0374 6.01628 27.054 6.01628 27.5872V29.0287H6.44138V27.5163C6.44138 27.3397 6.37969 27.1797 6.28351 27.0651C5.97253 26.6942 5.42348 26.9223 5.07577 27.3065ZM1.57424 28.3935H1.55237L0.475021 26.2962H0V29.0287H0.204702V26.8063H0.236669L1.38524 29.0287H1.48058L2.61542 26.7905H2.63112V29.0287H3.09829V26.2962H2.63112M6.94837 26.999V29.0287H7.36955V26.8788H7.24617M3.71464 26.999V29.0287H4.13582V26.8788H4.01272M29.1888 25.9624V29.0287H29.612V25.8433H29.4908M31.0581 28.7746C30.9386 28.8457 30.7726 28.8067 30.7151 28.6716C30.6826 28.5986 30.7031 28.6373 30.6972 27.0983H31.1764V26.9217H30.6972V26.2018H30.576C30.488 26.651 30.3694 26.9945 29.9039 26.9945V27.0983H30.274C30.2819 28.6085 30.2558 28.624 30.2984 28.7835C30.3304 28.8972 30.394 28.9897 30.5054 29.0387C30.636 29.0976 30.8797 29.0852 31.039 28.9894C31.1332 28.9338 31.2086 28.8571 31.2658 28.7599L31.1601 28.6891C31.131 28.7237 31.097 28.7522 31.0581 28.7746ZM28.4331 27.0316C28.2121 26.8534 27.7719 26.8534 27.5131 26.917C26.8165 27.0862 26.9096 27.6182 27.2049 27.6182C27.3667 27.6182 27.4158 27.4961 27.4158 27.3378C27.4158 27.2586 27.4303 27.1789 27.4825 27.1183C27.5804 27.0026 27.8067 27.0001 27.9354 27.0446C28.0506 27.0848 28.1154 27.1772 28.1488 27.2918C28.1861 27.4249 28.1779 27.6937 28.1771 27.6658C27.8681 27.7419 27.5955 27.8136 27.3255 27.9556C26.3824 28.4552 27.1606 29.5596 28.029 28.856C28.077 28.8175 28.1266 28.7785 28.1771 28.7405V29.0287H28.6025C28.5899 27.3895 28.6692 27.2232 28.4331 27.0316ZM28.1771 28.5872C28.0582 28.6752 27.948 28.7591 27.8067 28.8003C27.4539 28.9044 27.2327 28.5307 27.3619 28.2952C27.4951 28.0513 27.9115 27.8864 28.1771 27.8008V28.5872ZM33.2669 27.2683C33.0526 26.666 32.3777 26.8271 31.945 27.3065V25.8433H31.8241L31.5221 25.9624V29.0287H31.945V27.4673C32.3892 27.0416 32.8855 27.0499 32.8855 27.5872V29.0287H33.3089C33.2963 27.5049 33.3395 27.4698 33.2669 27.2683ZM16.5195 27.2074C15.8445 27.8886 16.2769 29.0741 17.3293 29.0741C18.3424 29.0741 18.8242 27.823 18.136 27.1797C17.7157 26.7892 16.9631 26.7573 16.5195 27.2074ZM17.9375 28.4344C17.864 28.6874 17.675 28.9194 17.4086 28.9194C16.644 28.9194 16.4154 27.4659 17.0191 27.0964C17.23 26.9674 17.6161 27.0327 17.8102 27.3555C17.9826 27.6433 18.0191 28.154 17.9375 28.4344ZM13.9324 28.4444L13.1079 26.924H12.6251L13.7178 28.9304C13.549 29.3027 13.4871 29.4862 13.3502 29.5859C13.2815 29.636 13.182 29.6282 13.1357 29.6089C13.0681 29.5812 13.0681 29.569 12.9972 29.5419C12.8365 29.4826 12.6385 29.5809 12.6385 29.7569C12.6385 30.0858 13.3892 30.1804 13.742 29.3979L14.8311 26.924H14.6045L13.9324 28.4444ZM20.3541 25.948C20.1093 25.7921 19.6472 25.778 19.3542 26.0853C19.0662 26.3864 19.1298 26.7388 19.1217 26.9217H18.675V27.0983H19.1217V29.0287H19.5471V27.0983H20.1177V26.9217H19.5471C19.5518 26.5229 19.5103 26.3081 19.6298 26.1293C19.6755 26.0587 19.7515 25.9972 19.8412 25.9972C20.1752 25.9972 19.9778 26.4 20.2905 26.4C20.5414 26.4 20.5941 26.0991 20.3541 25.948ZM26.4094 28.4297C26.3143 28.5512 26.1747 28.6517 26.0022 28.7098C25.4136 28.9158 24.9832 28.4247 24.9832 27.7673H26.5751C26.5751 26.901 25.426 26.5716 24.8634 27.2118C24.2348 27.9354 24.666 29.0741 25.6211 29.0741C26.0647 29.0741 26.5145 28.7165 26.6326 28.291L26.5114 28.2384C26.4918 28.3035 26.4576 28.3674 26.4094 28.4297ZM25.0395 27.374C25.2953 26.7858 26.0443 27.0302 26.0443 27.5988L24.9851 27.5966C24.9916 27.5166 25.0095 27.4427 25.0395 27.374ZM23.6134 27.5418H22.2222V26.2962H21.7573V29.0287H22.2222V27.7186H23.6134V29.0287H24.0788V26.2962H23.6134" fill="#9B945F"/>
<path fill-rule="evenodd" clip-rule="evenodd" d="M24.5311 7.87454C20.7318 8.41511 12.4551 15.4653 12.4551 15.4653H15.8366C17.9865 13.0799 21.2012 10.5384 22.9044 9.52284C24.2678 8.71045 25.2417 8.67059 25.2417 8.67059C27.3692 8.47601 29.1871 10.2087 28.951 12.4128C29.2297 9.81015 27.9168 7.39347 24.5311 7.87454Z" fill="#9B945F"/>
<path fill-rule="evenodd" clip-rule="evenodd" d="M8.75881 7.87454C5.3731 7.39347 4.05964 9.81015 4.33921 12.4128C4.10086 10.2049 5.93112 8.47684 8.04825 8.67059C8.04825 8.67059 9.02212 8.71045 10.3855 9.52284C11.9595 10.4614 15.2109 12.9772 17.4533 15.4653H20.8345C20.8345 15.4653 12.5581 8.41511 8.75881 7.87454Z" fill="#9B945F"/>
<path d="M16.4785 23.2732H14.9752C14.9789 23.2455 15.0585 22.8494 15.0585 22.4962C15.0585 20.7316 13.7207 20.0037 12.4125 20.9165C11.4748 21.5692 11.2802 22.2009 10.709 23.2732H10.6852V21.5175H10.2183V23.2732H8.85718V23.0977C8.85718 21.2418 7.49689 20.583 6.33261 20.583H4.53909V20.9749C4.66976 20.9653 6.19493 20.9611 6.27176 20.9611C8.51507 20.9611 8.35075 23.2452 8.36028 23.2732H2.60619V20.3167C2.46935 20.3007 2.2268 20.2899 2.1208 20.2899C1.27143 20.2899 0.0148926 20.893 0.0148926 22.1881C0.0148926 23.0805 0.695457 23.6136 1.55801 23.6136H1.70635C1.73243 23.5859 2.05406 23.2455 2.02798 23.2732H1.687C0.333442 23.2732 0.185945 21.6869 1.07037 21.0001C1.38668 20.7549 1.75626 20.6683 1.97639 20.6683H2.13903V23.6136H16.946V18.3438H16.4785V23.2732ZM14.5053 23.2142L14.4907 23.2732H11.1566L11.1782 23.1782C11.4692 21.8958 12.6366 20.901 13.4473 20.901C13.7083 20.901 14.5608 21.022 14.5608 22.5787C14.5608 22.6761 14.5571 23.0094 14.5053 23.2142Z" fill="#008755"/>
<path d="M2.30422 19.5588C2.50029 19.5588 2.65923 19.4019 2.65923 19.2083C2.65923 19.0148 2.50029 18.8579 2.30422 18.8579C2.10816 18.8579 1.94922 19.0148 1.94922 19.2083C1.94922 19.4019 2.10816 19.5588 2.30422 19.5588Z" fill="#008755"/>
<path d="M18.4202 18.3438H18.8871V23.6133H18.4202V18.3438Z" fill="#008755"/>
<path d="M22.4383 19.5617C22.6343 19.5617 22.7933 19.4048 22.7933 19.2113C22.7933 19.0177 22.6343 18.8608 22.4383 18.8608C22.2422 18.8608 22.0833 19.0177 22.0833 19.2113C22.0833 19.4048 22.2422 19.5617 22.4383 19.5617Z" fill="#008755"/>
<path d="M1.24221 19.5588C1.43827 19.5588 1.59721 19.4019 1.59721 19.2083C1.59721 19.0148 1.43827 18.8579 1.24221 18.8579C1.04615 18.8579 0.887207 19.0148 0.887207 19.2083C0.887207 19.4019 1.04615 19.5588 1.24221 19.5588Z" fill="#008755"/>
<path d="M29.5604 19.5622C29.7566 19.5622 29.9156 19.4052 29.9156 19.2115C29.9156 19.0179 29.7566 18.8608 29.5604 18.8608C29.3641 18.8608 29.2051 19.0179 29.2051 19.2115C29.2051 19.4052 29.3641 19.5622 29.5604 19.5622Z" fill="#008755"/>
<path d="M33.0088 20.3945C31.7932 20.3945 30.8415 21.2122 30.8415 22.256C30.8415 23.196 31.676 23.6765 32.4993 23.6092C32.5267 23.5813 32.8582 23.2452 32.8307 23.2732H32.5214C31.9328 23.2732 31.3389 22.9424 31.3389 22.2037C31.3389 21.5424 31.9583 20.8031 32.7878 20.8031H32.8666V23.6837C32.8666 24.2353 32.762 24.746 32.0038 24.746C31.9384 24.746 31.8538 24.7371 31.7637 24.7219L31.7049 25.074C31.817 25.0959 31.9376 25.1086 32.1255 25.1086C32.4892 25.1086 33.3332 24.9888 33.3332 23.8791V20.4214C33.2034 20.4034 33.0991 20.3945 33.0088 20.3945ZM29.3272 23.9018C29.3272 24.5063 29.081 24.7526 28.4795 24.7526C28.4162 24.7526 28.3211 24.7419 28.2476 24.7294L28.189 25.0986C29.3275 25.2608 29.7938 24.7621 29.7938 24.0441V20.7854H29.3272V23.9018ZM25.3768 23.9018C25.3768 24.5063 25.1308 24.7526 24.5291 24.7526C24.4657 24.7526 24.3715 24.7419 24.2969 24.7294L24.2383 25.0986C25.3787 25.2608 25.8428 24.7604 25.8428 24.0441V20.7854H25.3768V23.9018Z" fill="#008755"/>
<path d="M23.4998 19.5617C23.6958 19.5617 23.8548 19.4048 23.8548 19.2113C23.8548 19.0177 23.6958 18.8608 23.4998 18.8608C23.3037 18.8608 23.1448 19.0177 23.1448 19.2113C23.1448 19.4048 23.3037 19.5617 23.4998 19.5617Z" fill="#008755"/>
<path d="M27.272 18.3439H27.7386V23.6135H27.272V18.3439ZM21.2055 22.2257C21.2055 23.0165 21.8689 23.6135 22.748 23.6135H23.7965V20.3167C22.2725 20.1077 21.2055 21.0751 21.2055 22.2257ZM23.3296 23.2731H22.8852C21.1194 23.2731 21.4506 20.6682 23.1594 20.6682H23.3296V23.2731ZM8.49714 10.1376L7.48428 11.1382L6.47087 10.1376L5.31641 11.276L6.47087 12.4145L7.48428 11.4141L8.49714 12.4145L9.65104 11.276M19.1649 1.49081C20.2125 1.55004 21.2246 2.00232 21.9606 2.80032C21.1062 0.834533 18.8565 -0.108503 16.8526 0.584311C16.7503 0.214792 16.6701 0 16.6701 0C16.6701 0 16.5885 0.214792 16.4867 0.584311C14.4761 -0.111271 12.2269 0.84339 11.3792 2.80032C12.1145 2.00232 13.1273 1.55004 14.1744 1.49081C12.9585 2.41641 12.3837 3.90971 12.633 5.36315C12.8329 4.18429 13.551 3.17897 14.5465 2.58055C13.7894 4.0697 14.021 5.86802 15.1783 7.12273C14.4983 5.57047 14.8782 3.75498 16.1191 2.59522C16.0907 2.89581 16.0736 3.21247 16.0736 3.53853C16.0736 5.49352 16.6701 7.07734 16.6701 7.07734C16.674 7.048 17.4488 4.98727 17.2211 2.59522C18.4614 3.75498 18.8416 5.57047 18.1613 7.12273C19.3034 5.89127 19.5583 4.08437 18.7928 2.58055C19.7894 3.17897 20.5075 4.18429 20.7069 5.36315C20.954 3.92244 20.39 2.42305 19.1649 1.49081Z" fill="#008755"/>
<path fill-rule="evenodd" clip-rule="evenodd" d="M20.6443 10.6916C15.4718 5.25368 12.5283 9.44572 12.5283 9.44572C12.5283 9.44572 15.0512 6.98226 19.8457 12.212C21.9999 14.5628 23.9243 15.4812 25.4756 15.4654C26.6662 15.4532 27.7607 14.903 28.5304 13.7133C28.6546 13.5212 28.7289 13.3222 28.7289 13.3222C27.3429 14.9492 25.516 15.8125 20.6443 10.6916Z" fill="#008755"/>
</g>
<defs>
<clipPath id="clip0_825_3533">
<rect width="33.3333" height="30" fill="white"/>
</clipPath>
</defs>
</svg>
