<svg width="48" height="48" viewBox="0 0 48 48" fill="none" xmlns="http://www.w3.org/2000/svg">
<rect width="48" height="48" rx="12" fill="#BCE1A4"/>
<circle cx="24" cy="22" r="10" fill="#C2E0AF" stroke="#22313F" stroke-width="1.2"/>
<circle cx="24" cy="22" r="7" fill="#4DA514" opacity="0.3"/>
<path d="M20 20C20 20 22 18 24 18C26 18 28 20 28 20" stroke="#22313F" stroke-width="1.2" stroke-linecap="round"/>
<circle cx="21" cy="22" r="1" fill="#22313F"/>
<circle cx="27" cy="22" r="1" fill="#22313F"/>
<path d="M22 26C22 26 23 27 24 27C25 27 26 26 26 26" stroke="#22313F" stroke-width="1.2" stroke-linecap="round"/>
<path d="M13 14L15 16" stroke="#4DA514" stroke-width="1.5" stroke-linecap="round"/>
<path d="M35 14L33 16" stroke="#4DA514" stroke-width="1.5" stroke-linecap="round"/>
<path d="M24 8V11" stroke="#4DA514" stroke-width="1.5" stroke-linecap="round"/>
<circle cx="16" cy="35" r="1.5" fill="#4DA514" opacity="0.5"/>
<circle cx="32" cy="35" r="1" fill="#4DA514" opacity="0.5"/>
<circle cx="24" cy="38" r="1.2" fill="#4DA514" opacity="0.5"/>
</svg>
