<svg width="48" height="48" viewBox="0 0 48 48" fill="none" xmlns="http://www.w3.org/2000/svg">
<rect width="48" height="48" rx="12" fill="#BCE1A4"/>
<path d="M8.2168 35.4162C8.2168 37.1617 9.33392 38.7776 11.0694 39.5655H15.6975C17.433 38.7776 18.5502 37.1717 18.5502 35.4162C18.5502 34.5983 18.3108 33.8203 17.8819 33.1421H8.88508C8.45618 33.8203 8.2168 34.5983 8.2168 35.4162Z" fill="#4DA514"/>
<path d="M16.7149 34.8475C16.9903 34.8475 17.2136 34.6242 17.2136 34.3488C17.2136 34.0734 16.9903 33.8501 16.7149 33.8501C16.4395 33.8501 16.2162 34.0734 16.2162 34.3488C16.2162 34.6242 16.4395 34.8475 16.7149 34.8475Z" fill="#C2E0AF"/>
<path d="M12.9847 31.0177C13.205 31.0177 13.3836 30.839 13.3836 30.6187C13.3836 30.3984 13.205 30.2197 12.9847 30.2197C12.7643 30.2197 12.5857 30.3984 12.5857 30.6187C12.5857 30.839 12.7643 31.0177 12.9847 31.0177Z" fill="#4DA514"/>
<path d="M14.2413 32.7332C14.7151 32.7332 15.0991 32.3491 15.0991 31.8754C15.0991 31.4016 14.7151 31.0176 14.2413 31.0176C13.7676 31.0176 13.3835 31.4016 13.3835 31.8754C13.3835 32.3491 13.7676 32.7332 14.2413 32.7332Z" fill="#4DA514"/>
<path d="M15.6975 36.9224C16.2594 36.9224 16.7149 36.467 16.7149 35.9051C16.7149 35.3432 16.2594 34.8877 15.6975 34.8877C15.1357 34.8877 14.6802 35.3432 14.6802 35.9051C14.6802 36.467 15.1357 36.9224 15.6975 36.9224Z" fill="#C2E0AF"/>
<path d="M15.8671 40.7824H10.8999C10.8501 40.7824 10.8002 40.7725 10.7503 40.7525C8.47619 39.805 7 37.7104 7 35.4163C7 33.7306 7.78797 32.1248 9.1744 31.0076C9.34396 30.878 9.58334 30.8979 9.713 31.0675C9.84267 31.237 9.82272 31.4764 9.65316 31.6061C8.45625 32.5736 7.76802 33.96 7.76802 35.4163C7.76802 37.3712 9.02478 39.1766 10.9797 40.0144H15.7874C17.7423 39.1666 18.9991 37.3712 18.9991 35.4163C18.9991 33.192 17.4331 31.247 15.1091 30.5688C14.9495 30.5189 14.8298 30.3693 14.8298 30.1997V27.0877C14.8298 26.8783 14.9994 26.7087 15.2088 26.7087H15.5679C15.6776 26.7087 15.7674 26.6189 15.7674 26.5092C15.7674 26.3995 15.6776 26.3097 15.5679 26.3097H11.1792C11.0695 26.3097 10.9797 26.3995 10.9797 26.5092C10.9797 26.6189 11.0695 26.7087 11.1792 26.7087H11.5383C11.7478 26.7087 11.9173 26.8783 11.9173 27.0877V30.1997C11.9173 30.3693 11.8076 30.5189 11.638 30.5688C11.3887 30.6386 11.1493 30.7283 10.9099 30.8381C10.7204 30.9278 10.491 30.8381 10.4012 30.6386C10.3115 30.4491 10.4012 30.2197 10.6007 30.1299C10.7803 30.0501 10.9598 29.9803 11.1493 29.9204V27.4668C10.6207 27.4568 10.2017 27.0279 10.2017 26.4992C10.2017 25.9706 10.6306 25.5317 11.1693 25.5317H15.5579C16.0866 25.5317 16.5255 25.9606 16.5255 26.4992C16.5255 27.0279 16.1065 27.4568 15.5779 27.4668V29.9204C18.0814 30.7682 19.7472 32.9426 19.7472 35.4163C19.7472 37.7104 18.271 39.805 15.9968 40.7525C15.9669 40.7725 15.917 40.7824 15.8671 40.7824Z" fill="#231F20"/>
<path d="M14.8199 26.2997H11.9473C11.7378 26.2997 11.5682 26.1302 11.5682 25.9207V24.1852C11.5682 23.9757 11.7378 23.8062 11.9473 23.8062H14.8199C15.0293 23.8062 15.1989 23.9757 15.1989 24.1852V25.9207C15.1989 26.1302 15.0293 26.2997 14.8199 26.2997ZM12.3363 25.5317H14.4408V24.5642H12.3363V25.5317Z" fill="#231F20"/>
<path d="M34.1004 16.3752C33.8909 16.3752 33.6914 16.3453 33.482 16.2755C32.9733 16.1059 32.5643 15.7568 32.3249 15.278C32.0856 14.7993 32.0457 14.2607 32.2052 13.7619C32.5444 12.7146 33.6715 12.1461 34.7188 12.4852C35.7661 12.8244 36.3346 13.9515 35.9955 14.9988C35.7162 15.8466 34.9382 16.3752 34.1004 16.3752ZM34.1004 13.1435C33.9109 13.1435 33.7114 13.1934 33.5418 13.2832C33.2426 13.4328 33.0231 13.6921 32.9234 14.0013C32.8237 14.3205 32.8436 14.6497 32.9932 14.9489C33.1428 15.2481 33.4022 15.4676 33.7114 15.5673C34.3597 15.7768 35.0679 15.4277 35.2773 14.7694C35.3771 14.4502 35.3571 14.121 35.2075 13.8218C35.0579 13.5226 34.7986 13.3031 34.4894 13.2034C34.3597 13.1635 34.23 13.1435 34.1004 13.1435Z" fill="#231F20"/>
<path d="M34.9187 14.6475C35.0676 14.192 34.8191 13.702 34.3635 13.5531C33.908 13.4042 33.418 13.6528 33.2691 14.1083C33.1202 14.5638 33.3688 15.0538 33.8243 15.2027C34.2799 15.3516 34.7698 15.1031 34.9187 14.6475Z" fill="#4DA514"/>
<path d="M34.8185 10.1711C34.7786 10.1711 34.7387 10.1612 34.6988 10.1512L32.6042 9.46297C32.4047 9.40312 32.3049 9.18369 32.3648 8.99418L32.9433 7.22872C33.063 6.8497 33.4719 6.64024 33.8509 6.76991L35.2873 7.2387C35.4668 7.29855 35.6164 7.42821 35.7062 7.59777C35.7959 7.76734 35.8059 7.96682 35.7461 8.14636L35.1676 9.91181C35.1277 10.0714 34.978 10.1711 34.8185 10.1711ZM33.1926 8.87448L34.5791 9.32333L35.0279 7.9369L33.6415 7.48806L33.1926 8.87448Z" fill="#231F20"/>
<path d="M30.6591 24.3845C30.5793 24.3845 30.4895 24.3746 30.4097 24.3446L27.6967 23.4569C27.2678 23.3173 27.0384 22.8585 27.1781 22.4296L27.3875 21.7812C27.4573 21.5718 27.6868 21.4521 27.8962 21.5219L31.3972 22.669C31.6067 22.7388 31.7263 22.9682 31.6565 23.1777L31.4471 23.826C31.3274 24.1651 30.9982 24.3845 30.6591 24.3845ZM28.0259 22.4196L27.9361 22.6789L30.6591 23.5766C30.6591 23.5766 30.6691 23.5766 30.6691 23.5667L30.7588 23.3073L28.0259 22.4196Z" fill="#231F20"/>
<path d="M30.2502 27.7458C30.2003 27.7458 30.1405 27.7358 30.0906 27.7259L20.3856 24.9829C20.236 24.943 20.1063 24.8433 20.0265 24.7037C19.9467 24.564 19.9268 24.4044 19.9767 24.2548L20.0864 23.8658C20.1263 23.7162 20.226 23.5865 20.3657 23.5067C20.5053 23.427 20.6649 23.407 20.8145 23.4569L30.5195 26.1998C30.6691 26.2397 30.7988 26.3394 30.8786 26.4791C30.9584 26.6187 30.9783 26.7783 30.9284 26.9279L30.8187 27.3169C30.7788 27.4665 30.6791 27.5962 30.5394 27.676C30.4497 27.7159 30.3599 27.7458 30.2502 27.7458ZM20.6649 24.0055L20.5352 24.4044L30.2502 27.1673C30.2602 27.1673 30.2701 27.1673 30.2701 27.1573L30.3798 26.7683L20.6649 24.0055Z" fill="#231F20"/>
<path d="M38.6684 38.4985H33.1426C32.9232 38.4985 32.7437 38.319 32.7437 38.0995V33.0027C32.7437 31.2572 34.16 29.8408 35.9055 29.8408C37.651 29.8408 39.0674 31.2572 39.0674 33.0027V38.0995C39.0674 38.319 38.8878 38.4985 38.6684 38.4985ZM33.5416 37.6906H38.2594V33.0027C38.2594 31.706 37.2022 30.6388 35.8955 30.6388C34.5889 30.6388 33.5416 31.696 33.5416 33.0027V37.6906Z" fill="#231F20"/>
<path d="M31.2676 23.4569C31.2277 23.4569 31.1878 23.447 31.1379 23.437L27.637 22.2899C27.4275 22.2201 27.3078 21.9907 27.3776 21.7812L30.5495 12.0862C30.6193 11.8768 30.8487 11.7571 31.0581 11.8269C31.2676 11.8967 31.3873 12.1261 31.3175 12.3356L28.2753 21.6516L31.0083 22.5493L33.1029 16.1458C32.7637 15.9563 32.4845 15.657 32.295 15.298C32.0556 14.8192 32.0057 14.2706 32.1753 13.7519C32.4745 12.8243 33.3921 12.2658 34.3297 12.3755L34.9282 10.5602C34.9481 10.4903 34.9481 10.4105 34.9082 10.3407C34.8783 10.2709 34.8185 10.221 34.7387 10.2011L32.5443 9.48294C32.3947 9.43307 32.2351 9.51286 32.1852 9.66247L31.9259 10.4405C31.8561 10.6499 31.6267 10.7696 31.4172 10.6998C31.2078 10.63 31.0881 10.4006 31.1579 10.1911L31.4172 9.41312C31.6067 8.84458 32.2251 8.5254 32.7937 8.71492L34.988 9.43307C35.5566 9.62258 35.8757 10.241 35.6862 10.8095L34.978 12.9739C34.9082 13.1834 34.6788 13.3031 34.4694 13.2333C34.1602 13.1335 33.831 13.1535 33.5417 13.3031C33.2525 13.4527 33.0331 13.7021 32.9333 14.0113C32.8336 14.3205 32.8535 14.6496 33.0031 14.9389C33.1527 15.2281 33.4021 15.4476 33.7113 15.5473C33.8111 15.5772 33.9008 15.657 33.9507 15.7468C34.0006 15.8465 34.0105 15.9563 33.9706 16.056L31.6466 23.1776C31.6167 23.2774 31.5369 23.3672 31.4471 23.417C31.3873 23.447 31.3275 23.4569 31.2676 23.4569Z" fill="#231F20"/>
<path d="M38.5588 32.6031C38.5189 32.6031 38.469 32.5932 38.4291 32.5832C38.3194 32.5433 38.2296 32.4535 38.1997 32.3338C38.08 31.9249 37.8506 31.5459 37.5314 31.2566C37.4417 31.1768 37.4018 31.0671 37.4117 30.9474C37.4217 30.8277 37.4816 30.728 37.5813 30.6681C39.9652 29.1421 41.3815 26.5587 41.3815 23.746C41.3815 20.0056 38.848 16.744 35.2274 15.8064C35.0977 15.7765 34.998 15.6768 34.968 15.5571C34.9281 15.4374 34.9581 15.2977 35.0379 15.198C35.1476 15.0683 35.2274 14.9287 35.2772 14.7791C35.2972 14.7292 35.2972 14.6793 35.3072 14.6295C35.3271 14.5297 35.387 14.42 35.4767 14.3602C35.5665 14.3003 35.6762 14.2704 35.776 14.3003C40.1846 15.4972 43.2667 19.5268 43.2667 24.0951C43.2667 27.4863 41.581 30.6482 38.7583 32.5333C38.6984 32.5832 38.6286 32.6031 38.5588 32.6031ZM38.3493 31.0472C38.4989 31.2367 38.6286 31.4362 38.7283 31.6456C41.1122 29.8702 42.5186 27.0874 42.5186 24.0951C42.5186 19.9857 39.8355 16.355 35.9455 15.1282C35.9355 15.1581 35.9256 15.188 35.9056 15.208C39.5961 16.3849 42.1296 19.8261 42.1296 23.736C42.1296 26.6585 40.7332 29.3615 38.3493 31.0472Z" fill="#231F20"/>
<path d="M35.9057 34.4488C36.6218 34.4488 37.2023 33.8683 37.2023 33.1521C37.2023 32.436 36.6218 31.8555 35.9057 31.8555C35.1895 31.8555 34.609 32.436 34.609 33.1521C34.609 33.8683 35.1895 34.4488 35.9057 34.4488Z" fill="#4DA514"/>
<path d="M33.1128 34.2494C29.5719 34.2494 26.3402 32.4341 24.475 29.4019C24.3952 29.2822 24.4052 29.1226 24.485 29.0029C24.5648 28.8832 24.7044 28.8134 24.854 28.8433C25.0436 28.8732 25.1632 28.8732 25.3328 28.8433C25.5921 28.7934 25.8215 28.6937 26.0111 28.5341C26.0909 28.4643 26.1906 28.4344 26.3003 28.4543C26.4001 28.4643 26.4898 28.5241 26.5596 28.6039C28.1057 30.7085 30.5793 31.9653 33.1726 31.9653C33.1826 31.9653 33.2225 31.9653 33.2325 31.9653C33.3422 31.9553 33.4619 32.0151 33.5317 32.1049C33.6015 32.1947 33.6314 32.3144 33.6015 32.4241C33.5516 32.6236 33.5217 32.823 33.5217 33.0026V33.8803C33.5217 34.0798 33.3621 34.2494 33.1626 34.2593C33.1527 34.2494 33.1227 34.2494 33.1128 34.2494ZM25.4824 29.5714C27.188 31.9553 29.8412 33.3916 32.7637 33.5013V33.0026C32.7637 32.9028 32.7736 32.8031 32.7836 32.7034C30.2102 32.5936 27.7765 31.3568 26.1706 29.332C25.9512 29.4418 25.7218 29.5315 25.4824 29.5714Z" fill="#231F20"/>
<path d="M25.0834 29.6112C23.8566 29.6112 22.8691 28.6138 22.8691 27.3969C22.8691 26.6588 23.2382 25.9706 23.8466 25.5617C23.9364 25.5018 24.0561 25.4819 24.1558 25.5118L25.642 25.9307L26.8688 26.2798C26.9785 26.3097 27.0583 26.3895 27.1082 26.4893C27.2479 26.7885 27.3077 27.0977 27.3077 27.4069C27.2977 28.6138 26.3003 29.6112 25.0834 29.6112ZM24.1259 26.2798C23.7967 26.5591 23.6072 26.968 23.6072 27.3969C23.6072 28.2049 24.2655 28.8632 25.0735 28.8632C25.8814 28.8632 26.5397 28.2049 26.5397 27.3969C26.5397 27.2473 26.5098 27.0977 26.4699 26.9481L24.1259 26.2798Z" fill="#231F20"/>
<path d="M41.2318 37.6904H28.345C28.1256 37.6904 27.946 37.87 27.946 38.0894C27.946 38.3088 28.1256 38.4884 28.345 38.4884H41.2418C41.94 38.4884 42.5185 39.0669 42.5085 39.7751C42.5085 39.9446 42.3589 40.0643 42.1993 40.0643H23.5175C23.3479 40.0643 23.2083 39.9346 23.2083 39.7751C23.1983 39.0669 23.7668 38.4884 24.475 38.4884H25.652C25.8714 38.4884 26.0509 38.3088 26.0509 38.0894C26.0509 37.87 25.8714 37.6904 25.652 37.6904H24.465C23.318 37.6904 22.3804 38.638 22.4003 39.785C22.4103 40.3935 22.909 40.8822 23.5175 40.8822H42.1794C42.7878 40.8822 43.2965 40.3935 43.2965 39.785C43.3164 38.638 42.3789 37.6904 41.2318 37.6904Z" fill="#231F20"/>
</svg>
