<svg width="48" height="48" viewBox="0 0 48 48" fill="none" xmlns="http://www.w3.org/2000/svg">
<rect width="48" height="48" rx="12" fill="#BCE1A4"/>
<path d="M34.1353 17.6974L37.6206 12.8729L38.3144 17.2133L40.9283 16.7938L39.9279 10.6139L39.5084 8L36.8945 8.41952L30.7146 9.41991L31.1342 12.0338L35.4746 11.34L31.9732 16.1806C27.8909 14.0508 22.7437 15.1803 19.9685 19.0366C16.9027 23.2641 17.8547 29.1696 22.0822 32.2354C26.3097 35.285 32.2152 34.3491 35.281 30.1216C38.0885 26.2007 37.5238 20.9083 34.1353 17.6974ZM23.6473 30.0732C20.5977 27.8627 19.9201 23.6191 22.1145 20.5695C24.325 17.5199 28.5686 16.8422 31.6182 19.0366C34.6678 21.2472 35.3455 25.4908 33.1511 28.5404C30.9405 31.5899 26.6808 32.2676 23.6473 30.0732Z" fill="#4DA514"/>
<path opacity="0.5" d="M25.5514 31.0419C25.4062 31.2678 25.0351 31.7519 24.2928 32.2359L24.5833 33.5106C23.712 33.2202 22.8729 32.7845 22.0984 32.2198C22.05 32.1875 22.0016 32.1391 21.9371 32.1068L21.7112 30.929C21.7112 30.929 21.7435 29.9608 22.0823 29.7188C22.1952 29.6381 22.4534 29.4929 22.7761 29.3315C23.0343 29.6058 23.3247 29.8479 23.6474 30.0738C24.2444 30.5094 24.8899 30.8321 25.5514 31.0419Z" fill="#4DA514"/>
<path d="M28.5202 20.6989C27.0519 15.697 21.7917 12.8249 16.7897 14.2932C11.7878 15.7615 8.91567 21.0216 10.384 26.0236C11.7232 30.6061 16.225 33.3813 20.8236 32.7198L21.8724 36.2857L19.1939 37.0763L19.9362 39.6096L22.6146 38.819L23.2923 41.1102L25.8256 40.368L25.1479 38.0767L28.0361 37.2377L27.2939 34.7044L24.4057 35.5435L23.3569 31.9776C27.5843 30.0575 29.8756 25.2814 28.5202 20.6989ZM12.9334 25.2814C11.8685 21.667 13.9499 17.8914 17.5481 16.8264C21.1624 15.7615 24.9381 17.8268 25.9869 21.4412C27.0519 25.0555 24.9865 28.8312 21.3722 29.8961C17.774 30.961 13.9822 28.8957 12.9334 25.2814Z" fill="#5B8B3B"/>
<path opacity="0.5" d="M27.6326 18.6169C26.003 18.278 24.6637 18.988 24.6637 18.988C24.2603 18.5201 23.8085 18.1005 23.3083 17.7617C23.3083 17.7617 24.6476 16.8258 25.1962 16.7774C25.3898 16.7613 25.7609 16.729 26.1643 16.7129C26.7291 17.2615 27.2131 17.9069 27.6326 18.6169Z" fill="#4DA514"/>
<path d="M28.9719 15.1967C25.7448 14.7287 22.3887 15.955 20.2427 18.6496L22.066 20.6181C22.0821 20.602 22.0982 20.5697 22.1144 20.5536C23.7441 18.2946 26.5193 17.3265 29.0849 17.8913L28.9719 15.1967Z" fill="#4DA514"/>
<path d="M8.74914 19.456C8.28122 18.9881 7.58739 19.2947 7.49058 19.7949C7.47445 19.2947 6.82903 18.8751 6.29656 19.2624C5.79637 19.6174 5.98999 20.3112 6.42564 20.8759C6.82903 21.4084 7.32923 21.8441 7.32923 21.8441C7.32923 21.8441 7.89397 21.4891 8.37803 21.0373C8.89436 20.5371 9.1848 19.8917 8.74914 19.456Z" fill="#4DA514"/>
<path d="M36.5602 36.3889C36.0116 35.4692 34.7853 35.6628 34.4304 36.4212C34.6078 35.6144 33.7527 34.6947 32.7684 35.0981C31.8326 35.4692 31.8487 36.631 32.3005 37.712C32.72 38.7124 33.3332 39.5999 33.3332 39.5999C33.3332 39.5999 34.3658 39.2772 35.3178 38.7447C36.3343 38.1638 37.0604 37.2602 36.5602 36.3889Z" fill="#4DA514"/>
<path d="M25.3203 6.1606C24.2876 5.62814 23.255 6.51558 23.3518 7.41916C23.0452 6.56399 21.7221 6.20901 21.0283 7.14486C20.3829 8.03231 21.0606 9.11338 22.1094 9.83947C23.0775 10.5333 24.1747 11.0012 24.1747 11.0012C24.1747 11.0012 24.9492 10.0976 25.5139 9.04884C26.1432 7.95163 26.2884 6.67694 25.3203 6.1606Z" fill="#4DA514"/>
<path d="M42.5528 20.5529C41.988 20.0688 41.2297 20.4722 41.1651 21.0531C41.1006 20.4883 40.3422 20.085 39.7775 20.5529C39.245 21.0047 39.5193 21.763 40.0679 22.36C40.5681 22.9248 41.1651 23.3604 41.1651 23.3604C41.1651 23.3604 41.7621 22.9248 42.2623 22.36C42.8109 21.763 43.0852 21.0047 42.5528 20.5529Z" fill="#4DA514"/>
<path d="M30.2255 10.42C30.1126 10.1619 29.7737 10.178 29.6608 10.3716C29.7253 10.1619 29.5317 9.9037 29.2574 9.98438C28.9992 10.0489 28.9831 10.3555 29.0638 10.6621C29.1445 10.9364 29.2897 11.1784 29.2897 11.1784C29.2897 11.1784 29.564 11.1139 29.8383 11.0009C30.1126 10.888 30.3385 10.6621 30.2255 10.42Z" fill="#4DA514"/>
</svg>
