<svg width="48" height="48" viewBox="0 0 48 48" fill="none" xmlns="http://www.w3.org/2000/svg">
<rect width="48" height="48" rx="12" fill="#BCE1A4"/>
<path d="M18.1559 27.1434C20.9868 29.0897 21.6061 33.1886 19.5124 35.9016C18.9521 36.6094 18.3033 37.1696 17.5366 37.553L17.2122 37.0517C17.2417 37.0812 17.3007 37.0517 17.3007 36.9927C16.2981 33.3951 14.8531 29.8859 13.6736 26.3472C13.6441 26.2587 13.5851 26.1998 13.5261 26.1703C15.089 25.8754 16.7404 26.1703 18.1559 27.1434Z" fill="#4DA514"/>
<path d="M17.2419 37.0517L17.5663 37.553C17.1239 37.789 16.6521 37.9659 16.1508 38.0838C14.8828 34.3977 13.4968 30.7116 12.0518 27.0845C12.0518 27.0845 12.0518 27.055 12.0223 27.055L11.8159 26.7896C12.2583 26.5537 12.7301 26.3767 13.2019 26.2588C13.1134 26.3473 13.0544 26.4652 13.0839 26.6127C14.3225 30.0923 15.502 33.7195 17.1829 37.0222C17.2419 37.0222 17.2419 37.0222 17.2419 37.0517Z" fill="#4DA514"/>
<path d="M15.5904 38.172C13.9685 38.4079 12.2287 38.0245 10.8427 37.0514C8.69002 34.9282 7.6579 31.8908 9.39774 29.0599C10.017 28.0573 10.8722 27.2611 11.8453 26.7598L12.0517 27.0252C12.0223 27.0252 11.9928 27.0252 11.9928 27.0841C12.9069 30.8292 14.1455 34.6038 15.5904 38.172Z" fill="#4DA514"/>
<path opacity="0.6" d="M18.3034 26.5241C17.8906 26.2587 17.4777 26.0522 17.0354 25.9048C17.0649 25.9343 17.0944 25.9638 17.1239 25.9638C17.5662 26.3176 17.9201 26.7305 18.1855 27.1728C20.9869 29.1191 21.6062 33.1886 19.5125 35.9015C18.9522 36.6093 18.3034 37.1696 17.5367 37.5529C17.0944 37.7888 16.6226 37.9658 16.1212 38.0542C15.8558 37.258 15.561 36.4618 15.2956 35.6656C15.0891 35.7541 14.8827 35.8426 14.6763 35.9015C14.9712 36.6682 15.2366 37.4055 15.561 38.1427C13.9391 38.3786 12.1992 37.9952 10.8132 37.0221C10.253 36.4913 9.78113 35.872 9.39778 35.2528C9.01442 34.9874 8.66056 34.663 8.33618 34.3091C8.71954 35.4002 9.36829 36.4028 10.253 37.1401C10.253 37.1696 10.2824 37.199 10.3119 37.199C13.2313 39.5876 17.6252 39.3812 19.9843 36.2554C22.3729 33.1886 21.5767 28.5883 18.3034 26.5241Z" fill="#4DA514"/>
<path opacity="0.6" d="M17.2123 37.0218L17.2418 37.0513C17.2713 37.0808 17.3303 37.0513 17.3303 36.9923C17.1238 36.2846 16.9174 35.5769 16.6815 34.8691C16.5636 34.9576 16.4456 35.0461 16.3276 35.1345C16.6225 35.7538 16.9174 36.4026 17.2123 37.0218Z" fill="#4DA514"/>
<path opacity="0.6" d="M18.2151 27.1729C19.3946 29.0012 19.3062 31.4487 18.0676 33.336C17.6843 33.8963 17.2124 34.3976 16.6816 34.84C16.9176 35.5477 17.124 36.2554 17.3304 36.9632C17.3599 37.0222 17.3009 37.0222 17.2419 37.0222L17.5663 37.5235C18.3035 37.1401 18.9818 36.5798 19.5421 35.8721C21.6063 33.1886 21.0165 29.1191 18.2151 27.1729Z" fill="#4DA514"/>
<path opacity="0.6" d="M17.2419 37.0517C17.2419 37.0517 17.2124 37.0517 17.2124 37.0222C16.8881 36.403 16.5932 35.7542 16.2983 35.1055C15.9739 35.3119 15.6495 35.5183 15.2957 35.6658C15.5905 36.462 15.8559 37.2582 16.1213 38.0544C16.5932 37.9364 17.065 37.7595 17.5368 37.553L17.2419 37.0517Z" fill="#4DA514"/>
<path opacity="0.6" d="M10.6658 35.931C10.2235 35.7835 9.8106 35.5476 9.42725 35.2822C9.8106 35.931 10.2824 36.5208 10.8427 37.0516C12.2582 38.0247 13.9685 38.4081 15.5904 38.1721C15.2955 37.4349 15.0007 36.6682 14.7058 35.931C13.4377 36.3733 11.9928 36.4028 10.6658 35.931Z" fill="#4DA514"/>
<path opacity="0.6" d="M12.73 27.0548C10.135 27.9689 8.74903 30.9178 9.54523 33.4834C9.63369 33.7488 10.017 33.6013 9.98756 33.3359C9.81063 30.9768 10.9902 28.9421 13.1134 27.91C13.6737 27.6741 13.3198 26.8484 12.73 27.0548Z" fill="white"/>
<path d="M18.3034 26.5239C21.5767 28.5882 22.3729 33.1884 20.0432 36.2848C17.6841 39.4106 13.2903 39.617 10.3709 37.2284C10.3414 37.1989 10.3414 37.1989 10.3119 37.1694C7.95279 35.2527 7.30404 31.6255 8.80797 28.942C10.7248 25.5508 15.0006 24.4597 18.3034 26.5239ZM19.5419 35.9014C21.6357 33.1884 21.0164 29.0895 18.1854 27.1432C16.77 26.1701 15.0891 25.8752 13.5557 26.1701C13.6147 26.1996 13.6736 26.2585 13.7031 26.347C14.9122 29.8857 16.3277 33.3949 17.3303 36.9925C17.3598 37.0515 17.3008 37.0515 17.2418 37.0515C17.2418 37.0515 17.2123 37.0515 17.2123 37.022C15.5314 33.7192 14.3224 30.0921 13.1133 26.6124C13.0544 26.465 13.1134 26.3175 13.2313 26.2585C12.7595 26.3765 12.2877 26.5534 11.8453 26.7893C10.8722 27.2907 10.017 28.0574 9.39775 29.0895C7.68739 31.9204 8.69002 34.9578 10.8427 37.081C12.2582 38.0541 13.9685 38.4375 15.5904 38.2016C14.1455 34.6334 12.9069 30.8588 11.9928 27.1137C11.9928 27.0842 12.0223 27.0547 12.0518 27.0547C12.0518 27.0547 12.0812 27.0547 12.0812 27.0842C13.5262 30.7114 14.9122 34.3975 16.1802 38.0836C16.652 37.9656 17.1238 37.7887 17.5957 37.5528C18.3034 37.1694 18.9817 36.6092 19.5419 35.9014Z" fill="#22313F"/>
<path d="M39.6788 28.387C40.8121 32.5896 37.8844 36.0367 33.5402 35.5172C31.5097 35.2811 29.857 34.2895 28.3459 33.0618C28.0626 32.7312 27.732 32.4007 27.4487 32.1174V32.0701C26.5515 30.748 25.3238 29.6147 24.1433 28.4814C23.9072 28.2453 23.7183 27.962 23.4822 27.7259C28.3459 28.4814 33.3041 24.6093 33.7763 19.7456C34.1068 20.1234 34.3901 20.5011 34.7207 20.8789C36.515 23.0983 38.8761 25.4593 39.6788 28.387Z" fill="#4DA514"/>
<path d="M33.0209 18.8009C32.4071 21.0675 32.0765 23.2396 29.9988 24.7507C27.8739 26.309 25.4185 27.0173 22.8213 26.9228C20.7436 24.4674 18.8548 21.9175 17.391 19.2259C15.5494 15.826 16.4466 11.5762 20.5075 10.3012C24.0963 9.16795 26.8823 11.4817 29.1016 14.0789C30.4238 15.6371 31.6988 17.2426 33.0209 18.8009Z" fill="#C2E0AF"/>
<path opacity="0.6" d="M39.018 24.7509C36.3264 20.6427 32.7849 16.8179 29.5739 13.1347C27.5434 10.7736 25.0407 8.74317 21.7825 9.02649C21.688 9.02649 21.6408 9.02649 21.5464 9.07371C22.0658 9.40425 22.5852 9.7348 23.0574 10.1126C25.4657 10.3959 27.4489 12.1903 29.1017 14.1263C30.4238 15.6846 31.746 17.2901 33.021 18.8956C32.9265 19.2261 32.8321 19.6039 32.7376 19.9344C32.9737 20.3122 33.2571 20.6899 33.4932 21.0677C33.5876 20.6427 33.682 20.2177 33.7293 19.7928C34.0598 20.1705 34.3431 20.5483 34.6737 20.926C36.5625 23.1926 38.9235 25.5537 39.6791 28.4813C40.8123 32.6839 37.8847 36.131 33.5404 35.6116C32.0293 35.4227 30.6599 34.8089 29.4794 34.0061C29.1017 34.0061 28.7239 34.0061 28.2989 34.0061C32.0293 36.8393 37.1764 38.5393 40.104 33.8172C41.8984 30.8423 40.7179 27.3008 39.018 24.7509Z" fill="#C4007B"/>
<path opacity="0.6" d="M39.6789 28.3868C38.8761 25.4591 36.5623 23.0981 34.6735 20.8315C34.343 20.4538 34.0596 20.076 33.7291 19.6982C33.6819 20.1232 33.5874 20.5482 33.493 20.9732C34.8152 23.0981 35.7123 25.4591 35.5235 27.9146C35.2401 31.6922 32.5958 33.7699 29.4792 33.9116C30.707 34.7616 32.0292 35.3282 33.5402 35.5171C37.8373 36.0365 40.8122 32.5894 39.6789 28.3868Z" fill="#4DA514"/>
<path opacity="0.6" d="M29.0544 15.4956C30.2821 16.7706 31.6043 18.2344 32.7376 19.8399C32.832 19.5094 32.9264 19.1788 33.0209 18.8011C31.6987 17.1956 30.4238 15.6373 29.1016 14.0318C27.4489 12.0958 25.4656 10.3014 23.0574 10.0181C25.2767 11.6708 27.26 13.654 29.0544 15.4956Z" fill="#F5E9D8"/>
<path opacity="0.6" d="M30.5182 30.2756C28.2516 28.1979 26.1267 26.073 24.2851 23.6176C22.4435 21.1621 21.263 18.4705 19.7992 15.779C19.2325 14.7401 17.7687 15.4012 18.1464 16.5345C20.0353 22.2954 24.9934 27.7257 30.0932 30.8895C30.471 31.1256 30.8487 30.6062 30.5182 30.2756Z" fill="white"/>
<path d="M39.0178 24.7509C40.7178 27.3008 41.8983 30.8423 40.1039 33.6756C36.3263 39.7198 29.0071 35.2811 25.56 31.3618C24.3323 30.2757 23.2934 28.9063 22.349 27.7258C21.5935 26.7814 20.838 25.837 20.1296 24.8453C19.6102 24.1843 19.0908 23.476 18.5714 22.8149C16.6826 20.1705 14.6049 17.3373 15.5965 13.9374C16.3992 11.1514 18.9019 9.2626 21.7352 9.02649C25.0406 8.74317 27.4961 10.7736 29.5265 13.1347C32.7847 16.8179 36.3263 20.6427 39.0178 24.7509ZM33.5403 35.5172C37.8373 36.0366 40.8122 32.6367 39.6789 28.3869C38.8762 25.4592 36.5624 23.0982 34.6735 20.8316C34.343 20.4538 34.0597 20.0761 33.7291 19.6983C33.2569 24.562 28.2988 28.4341 23.4351 27.6786C23.6712 27.9147 23.8601 28.198 24.0962 28.4341C25.2767 29.5674 26.5516 30.7007 27.4016 32.0229V32.0701C27.6849 32.4006 28.0155 32.7312 28.2988 33.0145C29.8571 34.2894 31.557 35.2811 33.5403 35.5172ZM29.9987 24.7509C32.0764 23.2399 32.407 21.1149 33.0208 18.8011C31.6987 17.1956 30.4237 15.6374 29.1015 14.0319C26.8822 11.4347 24.0962 9.12093 20.5074 10.2542C16.4464 11.5292 15.5493 15.779 17.3909 19.1789C18.8547 21.8705 20.7435 24.4676 22.8212 26.8758C25.4183 27.0175 27.8266 26.262 29.9987 24.7509Z" fill="#22313F"/>
</svg>
