<svg width="48" height="48" viewBox="0 0 48 48" fill="none" xmlns="http://www.w3.org/2000/svg">
<rect width="48" height="48" rx="12" fill="#BCE1A4"/>
<path d="M37.7982 6.51322C36.1057 9.0279 34.5582 11.6151 33.3734 14.4199C31.0038 20.0054 29.553 25.8085 29.2629 31.8776C29.1662 33.6669 29.287 35.4078 29.6981 37.1245C29.8674 37.9225 29.9399 38.7204 29.7465 39.5183C29.4079 40.8724 28.2231 41.6703 26.7482 41.5252C25.4183 41.3801 24.3786 40.3162 24.3544 38.9864C24.3302 38.3335 24.4028 37.7048 24.6929 37.0762C25.3216 35.6979 25.3458 34.1746 25.6359 32.7239C26.4822 28.6133 27.6428 24.6237 29.1178 20.6824C30.351 17.4666 31.971 14.4441 33.7603 11.5426C34.8967 9.70492 36.2024 7.96399 37.7257 6.4165C37.7257 6.44068 37.7741 6.48904 37.7982 6.51322Z" fill="#FEFEFE"/>
<path d="M22.2993 6.61035C22.4444 6.82797 22.251 6.94886 22.1784 7.06976C19.0109 11.6397 16.9315 16.669 15.529 22.0127C14.4893 25.9782 13.8848 30.0162 14.0057 34.1267C14.0299 35.2389 14.2717 36.327 14.4651 37.4151C14.6102 38.1647 14.6344 38.9142 14.4168 39.6638C14.0541 40.8728 13.0386 41.574 11.7087 41.5498C10.4755 41.5256 9.45998 40.7277 9.12146 39.5913C8.95221 38.9626 8.95221 38.3339 9.16983 37.7778C9.96775 35.7709 10.0886 33.6431 10.5481 31.5636C12.2164 23.8746 14.9487 16.6449 19.422 10.1164C20.1715 9.00413 21.042 7.98858 21.8883 6.94886C22.0092 6.77961 22.1059 6.61035 22.2993 6.61035Z" fill="#FEFEFE"/>
<path d="M37.919 6.3682C37.8949 6.41656 37.8465 6.46492 37.8223 6.51328C37.774 6.4891 37.7256 6.44074 37.7014 6.41656C37.7498 6.3682 37.7981 6.31984 37.8465 6.27148C37.8465 6.29566 37.8707 6.34402 37.919 6.3682Z" fill="#FEFEFE"/>
<path d="M37.9674 6.14974C37.9432 6.22227 37.919 6.29481 37.8948 6.36735C37.8706 6.34317 37.8223 6.29481 37.7981 6.27063C37.8465 6.19809 37.8706 6.10138 37.9674 6.14974Z" fill="#FEFEFE"/>
<path d="M38.1368 6.02894C38.0884 6.0773 38.0401 6.12566 37.9917 6.14984H38.0159C37.9675 6.02894 37.9917 5.9564 38.1368 6.02894Z" fill="#FEFEFE"/>
</svg>
