<svg width="42" height="24" viewBox="0 0 42 24" fill="none" xmlns="http://www.w3.org/2000/svg">
<g clip-path="url(#clip0_665_7006)">
<path d="M40.2935 24H1.7065C0.764024 24 0 23.236 0 22.2935V1.7065C0 0.764023 0.764024 0 1.7065 0H40.2935C41.236 0 42 0.764023 42 1.7065V22.2935C42 23.236 41.236 24 40.2935 24Z" fill="white"/>
<path d="M11.6643 8.67602C11.301 9.11513 10.7196 9.46147 10.1383 9.41199C10.0657 8.81827 10.3503 8.18744 10.6833 7.79781C11.0466 7.34634 11.6825 7.02474 12.1972 7C12.2577 7.61846 12.0216 8.22455 11.6643 8.67602ZM12.1911 9.5295C11.3494 9.48002 10.6288 10.0181 10.2292 10.0181C9.82345 10.0181 9.21186 9.55423 8.54576 9.5666C7.67984 9.57897 6.87448 10.0799 6.43244 10.8777C5.52413 12.4734 6.19628 14.8359 7.07431 16.1346C7.50424 16.7778 8.01895 17.4829 8.69715 17.4581C9.33902 17.4334 9.59334 17.0314 10.3684 17.0314C11.1496 17.0314 11.3736 17.4581 12.0518 17.4458C12.7543 17.4334 13.1963 16.8026 13.6262 16.1594C14.1167 15.4296 14.3165 14.7184 14.3287 14.6813C14.3165 14.6689 12.9722 14.1432 12.9601 12.5599C12.948 11.2364 14.0198 10.6056 14.0683 10.5685C13.4627 9.65319 12.5181 9.55423 12.1911 9.5295ZM17.0536 7.73597V17.3777H18.519V14.0814H20.5475C22.4005 14.0814 23.7024 12.7826 23.7024 10.9025C23.7024 9.02236 22.4247 7.73597 20.596 7.73597H17.0536ZM18.519 8.99762H20.2084C21.4801 8.99762 22.2067 9.6903 22.2067 10.9087C22.2067 12.127 21.4801 12.8259 20.2024 12.8259H18.519V8.99762ZM26.3789 17.452C27.2993 17.452 28.1531 16.9757 28.5406 16.2212H28.5709V17.3777H29.9273V12.5785C29.9273 11.187 28.8373 10.2902 27.16 10.2902C25.6038 10.2902 24.4532 11.1993 24.4109 12.4486H25.7309C25.8399 11.8549 26.3789 11.4653 27.1176 11.4653C28.0138 11.4653 28.5164 11.892 28.5164 12.6775V13.2093L26.6877 13.3206C24.9861 13.4258 24.0657 14.137 24.0657 15.3739C24.0657 16.6232 25.0164 17.452 26.3789 17.452ZM26.7725 16.3078C25.9913 16.3078 25.4948 15.9244 25.4948 15.3368C25.4948 14.7307 25.9732 14.3782 26.8875 14.3225L28.5164 14.2174V14.7617C28.5164 15.6646 27.7655 16.3078 26.7725 16.3078ZM31.7379 20C33.1669 20 33.8391 19.4434 34.4265 17.755L37 10.383H35.5104L33.7846 16.079H33.7543L32.0285 10.383H30.4965L32.9792 17.4025L32.846 17.8292C32.622 18.5528 32.2586 18.8311 31.6107 18.8311C31.4957 18.8311 31.2716 18.8187 31.1808 18.8064V19.9629C31.2656 19.9876 31.6289 20 31.7379 20Z" fill="black"/>
</g>
<defs>
<clipPath id="clip0_665_7006">
<rect width="42" height="24" fill="white"/>
</clipPath>
</defs>
</svg>
