<svg width="34" height="24" viewBox="0 0 34 24" fill="none" xmlns="http://www.w3.org/2000/svg">
<path d="M20 13.5C18.75 13.5 17.6875 13.0625 16.8125 12.1875C15.9375 11.3125 15.5 10.25 15.5 9C15.5 7.75 15.9375 6.6875 16.8125 5.8125C17.6875 4.9375 18.75 4.5 20 4.5C21.25 4.5 22.3125 4.9375 23.1875 5.8125C24.0625 6.6875 24.5 7.75 24.5 9C24.5 10.25 24.0625 11.3125 23.1875 12.1875C22.3125 13.0625 21.25 13.5 20 13.5ZM9.5 18C8.675 18 7.96875 17.7063 7.38125 17.1188C6.79375 16.5312 6.5 15.825 6.5 15V3C6.5 2.175 6.79375 1.46875 7.38125 0.88125C7.96875 0.29375 8.675 0 9.5 0H30.5C31.325 0 32.0313 0.29375 32.6188 0.88125C33.2063 1.46875 33.5 2.175 33.5 3V15C33.5 15.825 33.2063 16.5312 32.6188 17.1188C32.0313 17.7063 31.325 18 30.5 18H9.5ZM12.5 15H27.5C27.5 14.175 27.7938 13.4688 28.3813 12.8813C28.9688 12.2938 29.675 12 30.5 12V6C29.675 6 28.9688 5.70625 28.3813 5.11875C27.7938 4.53125 27.5 3.825 27.5 3H12.5C12.5 3.825 12.2063 4.53125 11.6188 5.11875C11.0312 5.70625 10.325 6 9.5 6V12C10.325 12 11.0312 12.2938 11.6188 12.8813C12.2063 13.4688 12.5 14.175 12.5 15ZM29 24H3.5C2.675 24 1.96875 23.7063 1.38125 23.1188C0.79375 22.5312 0.5 21.825 0.5 21V4.5H3.5V21H29V24Z" fill="#4DA514"/>
</svg>
