<svg width="43" height="24" viewBox="0 0 43 24" fill="none" xmlns="http://www.w3.org/2000/svg">
<g clip-path="url(#clip0_665_6968)">
<path d="M40.7135 23.4941H1.7065C0.764024 23.4941 0 22.7889 0 21.9189V1.57521C0 0.70524 0.764024 -1.52588e-05 1.7065 -1.52588e-05H40.7135C41.656 -1.52588e-05 42.42 0.70524 42.42 1.57521V21.9189C42.42 22.7889 41.656 23.4941 40.7135 23.4941Z" fill="white"/>
<path d="M19.1285 12.4985H7.00366V16.227H19.1285V12.4985Z" fill="#84B740"/>
<path d="M19.1285 7.41113H7.00366V11.1429H19.1285V7.41113Z" fill="#259BD6"/>
<path d="M31.2532 15.4695L31.1992 15.4795C31.012 15.5127 30.9436 15.526 30.8068 15.526C30.49 15.526 30.1156 15.3765 30.1156 14.672C30.1156 14.3098 30.1804 13.8279 30.7708 13.8279H30.7744C30.8752 13.8346 30.9904 13.8446 31.2064 13.9044L31.2532 13.9177V15.4695ZM31.3504 11.957L31.2532 11.9737V13.2763L31.1668 13.253L31.1416 13.2464C31.0444 13.2198 30.8212 13.16 30.6052 13.16C29.4244 13.16 29.176 13.9841 29.176 14.6753C29.176 15.6224 29.752 16.1674 30.7564 16.1674C31.1812 16.1674 31.4944 16.1275 31.8112 16.0311C32.1028 15.9447 32.2072 15.8218 32.2072 15.5593V11.8208C31.9264 11.8673 31.6348 11.9138 31.3504 11.957Z" fill="#27292D"/>
<path d="M34.7632 15.493L34.7128 15.5063L34.5328 15.5495C34.3636 15.5893 34.2124 15.6126 34.0972 15.6126C33.82 15.6126 33.6544 15.4863 33.6544 15.2703C33.6544 15.1308 33.7228 14.8948 34.1764 14.8948H34.7632V15.493ZM34.3492 13.1436C33.9856 13.1436 33.6112 13.2034 33.1468 13.3363L32.8444 13.4194L32.9452 14.0508L33.2404 13.961C33.55 13.868 33.9352 13.8082 34.2232 13.8082C34.3528 13.8082 34.7488 13.8082 34.7488 14.2036V14.3764H34.198C33.1936 14.3764 32.7292 14.6722 32.7292 15.3069C32.7292 15.8485 33.1576 16.1742 33.8776 16.1742C34.1008 16.1742 34.4104 16.1343 34.6768 16.0745L34.6912 16.0712L34.7056 16.0745L34.7956 16.0878C35.0764 16.1343 35.368 16.1808 35.6524 16.2307V14.1571C35.6524 13.4858 35.2132 13.1436 34.3492 13.1436Z" fill="#27292D"/>
<path d="M27.7684 15.493L27.718 15.5063L27.538 15.5495C27.3688 15.5893 27.2212 15.6126 27.1024 15.6126C26.8252 15.6126 26.6596 15.4863 26.6596 15.2703C26.6596 15.1308 26.728 14.8948 27.178 14.8948H27.7648V15.493H27.7684ZM27.358 13.1436C26.9908 13.1436 26.62 13.2034 26.1556 13.3363L25.8532 13.4194L25.954 14.0508L26.2492 13.961C26.5588 13.868 26.944 13.8082 27.232 13.8082C27.3616 13.8082 27.7576 13.8082 27.7576 14.2036V14.3764H27.2068C26.2024 14.3764 25.7344 14.6722 25.7344 15.3069C25.7344 15.8485 26.1628 16.1742 26.8864 16.1742C27.1096 16.1742 27.4192 16.1343 27.6856 16.0745L27.7 16.0712L27.7144 16.0745L27.8008 16.0878C28.0852 16.1343 28.3732 16.1808 28.6576 16.234V14.1604C28.6612 13.4825 28.222 13.1436 27.358 13.1436Z" fill="#27292D"/>
<path d="M23.9776 13.1503C23.5204 13.1503 23.1424 13.2899 23.002 13.3497L22.966 13.3663L22.9336 13.343C22.7392 13.2134 22.4548 13.147 22.0588 13.147C21.7096 13.147 21.382 13.1935 21.0256 13.2899C20.7196 13.3763 20.6008 13.5125 20.6008 13.7684V16.1377H21.5584V13.9478L21.6052 13.9345C21.7996 13.8747 21.9148 13.8648 22.0264 13.8648C22.3036 13.8648 22.444 14.001 22.444 14.2668V16.1411H23.3872V14.2303C23.3872 14.1173 23.362 14.0508 23.3584 14.0376L23.326 13.9811L23.3908 13.9545C23.5348 13.8947 23.6932 13.8648 23.8588 13.8648C24.0496 13.8648 24.2764 13.9345 24.2764 14.2668V16.1411H25.216V14.1804C25.216 13.4859 24.8128 13.1503 23.9776 13.1503Z" fill="#27292D"/>
<path d="M34.0576 9.84363C33.9172 9.84363 33.6832 9.83033 33.4996 9.7971L33.4456 9.78713V8.50775C33.4456 8.40141 33.424 8.33495 33.4204 8.32498L33.3916 8.27181L33.4528 8.24855C33.4672 8.2419 33.4816 8.23858 33.4996 8.23193L33.5104 8.22529C33.532 8.21864 33.5536 8.21199 33.5752 8.20535C33.586 8.20203 33.5932 8.1987 33.6004 8.1987C33.8128 8.14553 34.0072 8.15218 34.0936 8.14553H34.0972C34.684 8.14553 34.7524 8.62738 34.7524 8.98959C34.7488 9.69409 34.3708 9.84363 34.0576 9.84363ZM34.054 7.41113C34.0468 7.41113 34.036 7.41113 34.0288 7.41113C33.478 7.41113 32.9128 7.5507 32.7112 7.82319C32.6032 7.95612 32.542 8.12227 32.5384 8.31833V9.63759C32.5384 9.75058 32.5132 9.79378 32.5096 9.80375L32.4772 9.86024H30.7384V8.94307H30.7348C30.7132 7.97606 30.094 7.44436 29.1976 7.44436H29.0932H28.3228C28.2868 7.6803 28.258 7.84646 28.222 8.08239H29.0932C29.5504 8.08239 29.7916 8.44129 29.7916 8.99292V9.91673L29.7304 9.88683C29.7196 9.8835 29.644 9.86024 29.5252 9.86024H28.0204C27.9916 10.0364 27.9556 10.2657 27.916 10.4949H32.542C32.7004 10.465 32.884 10.4385 33.0424 10.4152C33.2764 10.5215 33.712 10.578 34.0108 10.578C35.0152 10.578 35.6668 9.95661 35.6668 8.99956C35.6632 8.05249 35.0332 7.43107 34.054 7.41113Z" fill="#27292D"/>
<path d="M25.9432 10.8838H25.9864C26.9908 10.8838 27.4588 10.5781 27.4588 9.82375C27.4588 9.28209 27.0304 8.85009 26.3104 8.85009H25.3852C25.108 8.85009 24.9424 8.70388 24.9424 8.45797C24.9424 8.29182 25.0108 8.08578 25.4644 8.08578H27.4876C27.5308 7.8432 27.5524 7.69034 27.592 7.44775H25.4896C24.5104 7.44775 24.0172 7.82658 24.0172 8.45797C24.0172 9.08271 24.4456 9.40837 25.1656 9.40837H26.0908C26.368 9.40837 26.5336 9.61108 26.5336 9.82375C26.5336 9.96332 26.4652 10.2524 26.0152 10.2524H25.8604L22.8976 10.2458H22.3576C21.9004 10.2458 21.58 10.0065 21.58 9.45157V9.06942C21.58 8.4912 21.8284 8.13231 22.3576 8.13231H23.236C23.2756 7.8864 23.3008 7.73022 23.3368 7.4976H22.2424H22.138C21.2416 7.4976 20.6224 8.05255 20.6008 9.01957V9.05612V9.45157C20.6224 10.4186 21.2416 10.8805 22.138 10.8805H22.2424H23.0128L24.6184 10.8838H25.576H25.9432Z" fill="#27292D"/>
</g>
<defs>
<clipPath id="clip0_665_6968">
<rect width="43" height="24" fill="white"/>
</clipPath>
</defs>
</svg>
