<svg width="43" height="26" viewBox="0 0 43 26" fill="none" xmlns="http://www.w3.org/2000/svg">
<path d="M40.3104 1H1.6896C0.75646 1 0 1.72044 0 2.60914V23.3909C0 24.2796 0.75646 25 1.6896 25H40.3104C41.2435 25 42 24.2796 42 23.3909V2.60914C42 1.72044 41.2435 1 40.3104 1Z" fill="white"/>
<path d="M13.8513 21.3205V20.277C13.8679 20.1015 13.799 19.9283 13.6626 19.8021C13.5261 19.676 13.3356 19.6094 13.1403 19.6196C12.8803 19.6046 12.6317 19.7178 12.4911 19.9152C12.3628 19.7237 12.1287 19.6104 11.8805 19.6196C11.6605 19.6079 11.4496 19.7001 11.324 19.8631V19.6596H10.9434V21.3239H11.3182V20.3674C11.3044 20.2506 11.3483 20.1342 11.4384 20.0491C11.5284 19.964 11.6555 19.9189 11.7858 19.9257C12.0524 19.9257 12.2032 20.0822 12.2032 20.3639V21.3222H12.578V20.3674C12.5648 20.2507 12.609 20.1347 12.6989 20.0497C12.7888 19.9648 12.9155 19.9195 13.0456 19.9257C13.32 19.9257 13.4668 20.0822 13.4668 20.3639V21.3222L13.8513 21.3205ZM19.8721 19.6596H19.1997V19.1552H18.8229V19.6596H18.4364V19.9622H18.8229V20.75C18.8229 21.1361 18.9736 21.3657 19.4489 21.3657C19.6265 21.3661 19.8006 21.3215 19.9513 21.237L19.8354 20.9413C19.7276 20.9992 19.6053 21.0315 19.4798 21.0352C19.2866 21.0352 19.1977 20.9239 19.1977 20.757V19.9587H19.8701L19.8721 19.6596ZM23.3037 19.6178C23.1004 19.6141 22.9097 19.7065 22.8013 19.8613V19.6596H22.4342V21.3239H22.8052V20.3848C22.8052 20.11 22.952 19.9326 23.2148 19.9326C23.3007 19.9316 23.3861 19.9458 23.466 19.9744L23.5896 19.6596C23.4978 19.63 23.4011 19.6147 23.3037 19.6144V19.6178ZM18.1157 19.7918C17.8882 19.6701 17.6266 19.6097 17.3621 19.6178C16.8945 19.6178 16.6086 19.8161 16.6086 20.1396C16.6086 20.4109 16.8173 20.5744 17.2307 20.6265L17.424 20.6509C17.6442 20.6787 17.764 20.7483 17.764 20.8422C17.764 20.9709 17.6017 21.0544 17.3274 21.0544C17.1065 21.0614 16.8896 21 16.7129 20.8805L16.5197 21.1413C16.7552 21.2859 17.0346 21.3612 17.3196 21.357C17.8529 21.357 18.1485 21.1344 18.1485 20.8178C18.1485 20.5013 17.9225 20.3813 17.5225 20.3292L17.3293 20.3048C17.1554 20.2839 17.0008 20.2352 17.0008 20.1309C17.0008 20.0265 17.1477 19.9257 17.3679 19.9257C17.5715 19.9279 17.7711 19.977 17.9476 20.0683L18.1157 19.7918ZM23.7191 20.4874C23.7062 20.7214 23.8039 20.9494 23.9879 21.115C24.172 21.2807 24.4252 21.3686 24.6852 21.357C24.9265 21.368 25.1636 21.2973 25.3499 21.1587L25.1566 20.8978C25.0177 20.9931 24.8483 21.0455 24.6736 21.0474C24.3506 21.0194 24.1041 20.7751 24.1041 20.4831C24.1041 20.191 24.3506 19.9467 24.6736 19.9187C24.8483 19.9206 25.0177 19.973 25.1566 20.0683L25.3499 19.8074C25.1636 19.6688 24.9265 19.5981 24.6852 19.6092C24.4252 19.5976 24.172 19.6855 23.9879 19.8511C23.8039 20.0168 23.7062 20.2447 23.7191 20.4787V20.4874ZM21.1183 19.6178C20.5773 19.6178 20.2044 19.9657 20.2044 20.4874C20.1884 20.7182 20.2815 20.9443 20.4608 21.1099C20.64 21.2755 20.8887 21.3653 21.1454 21.357C21.4211 21.3655 21.6906 21.2826 21.9028 21.1239L21.7096 20.877C21.557 20.987 21.368 21.0482 21.1724 21.0509C20.8919 21.0601 20.6498 20.8754 20.614 20.6248H21.9956C21.9956 20.5796 21.9956 20.5344 21.9956 20.4857C21.9956 19.9639 21.6439 19.6161 21.1241 19.6161L21.1183 19.6178ZM21.1183 19.9274C21.2454 19.9237 21.3687 19.9662 21.4604 20.0455C21.552 20.1247 21.6043 20.2339 21.6053 20.3483H20.614C20.6286 20.1065 20.8552 19.9195 21.1241 19.9274H21.1183ZM16.112 20.4892V19.6596H15.741V19.8613C15.5953 19.6996 15.3732 19.6093 15.142 19.6178C14.6058 19.6178 14.1711 20.0091 14.1711 20.4918C14.1711 20.9744 14.6058 21.3657 15.142 21.3657C15.3732 21.3742 15.5953 21.284 15.741 21.1222V21.3239H16.112V20.4892ZM14.6145 20.4892C14.6016 20.3437 14.6569 20.2 14.767 20.0929C14.8772 19.9859 15.0321 19.9252 15.1942 19.9257C15.5172 19.9537 15.7637 20.1979 15.7637 20.49C15.7637 20.7821 15.5172 21.0264 15.1942 21.0544C15.0321 21.0548 14.8772 20.9942 14.767 20.8871C14.6569 20.78 14.6016 20.6363 14.6145 20.4909V20.4892ZM28.8916 19.6196C28.6883 19.6158 28.4976 19.7082 28.3892 19.8631V19.6596H28.0221V21.3239H28.3931V20.3848C28.3931 20.11 28.5399 19.9326 28.8027 19.9326C28.8887 19.9316 28.974 19.9458 29.0539 19.9744L29.1776 19.6613C29.0858 19.6318 28.9891 19.6165 28.8916 19.6161V19.6196ZM31.8711 21.0839C31.8962 21.0837 31.9211 21.0878 31.9445 21.0961C31.9667 21.1043 31.987 21.1161 32.0044 21.1309C32.0214 21.1459 32.0351 21.1636 32.045 21.1831C32.0647 21.2241 32.0647 21.2707 32.045 21.3118C32.0351 21.3313 32.0214 21.3489 32.0044 21.3639C31.987 21.3788 31.9667 21.3906 31.9445 21.3987C31.9213 21.4079 31.8963 21.4126 31.8711 21.4126C31.7963 21.4121 31.7286 21.3728 31.6972 21.3118C31.6776 21.2707 31.6776 21.2242 31.6972 21.1831C31.707 21.1636 31.7208 21.1459 31.7377 21.1309C31.7551 21.1161 31.7754 21.1043 31.7976 21.0961C31.8206 21.086 31.8455 21.0801 31.8711 21.0787V21.0839ZM31.8711 21.3778C31.8903 21.378 31.9094 21.3744 31.9271 21.3674C31.9437 21.3607 31.9588 21.3513 31.9715 21.3396C32.0216 21.2904 32.0216 21.2149 31.9715 21.1657C31.9588 21.1539 31.9437 21.1445 31.9271 21.1378C31.9094 21.1309 31.8903 21.1273 31.8711 21.1274C31.8518 21.1275 31.8327 21.131 31.815 21.1378C31.7977 21.1443 31.7819 21.1537 31.7687 21.1657C31.7185 21.2149 31.7185 21.2904 31.7687 21.3396C31.782 21.3515 31.7977 21.3609 31.815 21.3674C31.833 21.3731 31.852 21.3754 31.8711 21.3744V21.3778ZM31.8826 21.1709C31.9007 21.1701 31.9185 21.175 31.9329 21.1848C31.9449 21.1937 31.9514 21.2073 31.9503 21.2213C31.9508 21.233 31.9459 21.2444 31.9368 21.2526C31.9256 21.2618 31.9113 21.2673 31.8962 21.2683L31.9522 21.3257H31.9078L31.8556 21.2683H31.8382V21.3257H31.8015V21.1726L31.8826 21.1709ZM31.8401 21.2005V21.2422H31.8826C31.8902 21.2442 31.8983 21.2442 31.9058 21.2422C31.9086 21.2373 31.9086 21.2315 31.9058 21.2265C31.9086 21.2216 31.9086 21.2158 31.9058 21.2109C31.8983 21.209 31.8902 21.209 31.8826 21.2109L31.8401 21.2005ZM27.4676 20.4926V19.6596H27.0966V19.8613C26.9509 19.6996 26.7288 19.6093 26.4976 19.6178C25.9614 19.6178 25.5267 20.0091 25.5267 20.4918C25.5267 20.9744 25.9614 21.3657 26.4976 21.3657C26.7288 21.3742 26.9509 21.284 27.0966 21.1222V21.3239H27.4676V20.4926ZM25.9701 20.4926C25.9571 20.3472 26.0124 20.2035 26.1226 20.0964C26.2327 19.9893 26.3876 19.9287 26.5498 19.9291C26.8728 19.9571 27.1193 20.2014 27.1193 20.4935C27.1193 20.7856 26.8728 21.0299 26.5498 21.0578C26.3876 21.0583 26.2327 20.9977 26.1226 20.8906C26.0124 20.7835 25.9571 20.6398 25.9701 20.4944V20.4926ZM31.2006 20.4926V18.9883H30.8296V19.8578C30.6839 19.6961 30.4618 19.6058 30.2306 19.6144C29.6944 19.6144 29.2597 20.0056 29.2597 20.4883C29.2597 20.9709 29.6944 21.3622 30.2306 21.3622C30.4618 21.3708 30.6839 21.2805 30.8296 21.1187V21.3205H31.2006V20.4926ZM29.7031 20.4926C29.6902 20.3472 29.7454 20.2035 29.8556 20.0964C29.9657 19.9893 30.1207 19.9287 30.2828 19.9291C30.5915 19.9719 30.8188 20.2119 30.8168 20.493C30.8149 20.7742 30.5843 21.0116 30.2751 21.0509C30.1133 21.0513 29.9587 20.9909 29.8486 20.8842C29.7385 20.7775 29.683 20.6343 29.6954 20.4892L29.7031 20.4926Z" fill="black"/>
<path d="M24.0745 6.9873H17.988V16.8325H24.0745V6.9873Z" fill="#FF5F00"/>
<path fill-rule="evenodd" clip-rule="evenodd" d="M18.3746 11.9115C18.3729 9.9906 19.3526 8.1757 21.0314 6.98973C18.1794 4.97234 14.0839 5.26619 11.623 7.66476C9.16212 10.0633 9.16212 13.7613 11.623 16.1599C14.0839 18.5585 18.1794 18.8523 21.0314 16.8349C19.3521 15.6486 18.3723 13.8329 18.3746 11.9115Z" fill="#EB001B"/>
<path d="M31.7729 16.1879V15.6576H31.9591V15.5479H31.4878V15.6576H31.6739V16.1879H31.7729ZM32.6878 16.1879V15.5479H32.5452L32.3789 16.005L32.2125 15.5479H32.07V16.1879H32.169V15.7033L32.3234 16.1193H32.4304L32.5848 15.7033V16.1879H32.6878Z" fill="#F79E1B"/>
<path fill-rule="evenodd" clip-rule="evenodd" d="M32.2871 11.911C32.2871 14.3081 30.7663 16.4947 28.3708 17.5422C25.9753 18.5898 23.1256 18.3142 21.032 16.8327C22.71 15.6457 23.6898 13.8311 23.6898 11.9101C23.6898 9.98911 22.71 8.17446 21.032 6.98747C23.1256 5.50593 25.9753 5.23041 28.3708 6.27793C30.7663 7.32545 32.2871 9.5121 32.2871 11.9092V11.911Z" fill="#F79E1B"/>
</svg>
