<?xml version="1.0" encoding="UTF-8"?><svg xmlns="http://www.w3.org/2000/svg" xmlns:xlink="http://www.w3.org/1999/xlink" fill="none" height="853.8" preserveAspectRatio="xMidYMid meet" stroke="#000" stroke-linecap="round" stroke-linejoin="round" style="fill: none;" version="1.0" viewBox="0.0 0.0 547.8 853.8" width="547.8" zoomAndPan="magnify"><g id="change1_1"><path d="M212.5 733.0 C187.0 742.4 161.5 751.7 136.0 761.0 C154.0 749.2 173.4 739.4 193.7 732.1 C166.8 737.9 140.5 746.7 115.5 758.1 C132.1 746.8 150.0 737.5 168.7 730.3 C144.6 735.9 121.1 744.2 98.8 755.1 C113.2 742.3 131.0 733.4 149.9 729.7 C139.3 722.6 125.0 728.9 114.9 736.5 C104.7 744.2 94.3 753.9 81.6 753.6 C95.6 743.1 109.7 732.5 123.8 722.0 C105.3 731.4 86.9 740.8 68.4 750.2 C81.9 739.6 95.4 729.0 109.0 718.4 C91.6 725.6 74.7 733.9 58.4 743.3 C69.1 732.4 81.4 723.0 94.7 715.4 C80.3 720.0 66.2 725.4 52.5 731.5 C61.1 723.4 71.1 716.7 81.8 711.6 C70.0 713.6 58.5 717.6 48.0 723.4 C45.6 714.9 51.9 705.1 60.6 703.6 C51.6 705.1 42.6 706.6 33.6 708.2 C36.5 703.5 41.7 700.2 47.2 699.7 C40.1 697.4 32.2 698.0 25.5 701.3 C26.9 697.5 28.3 693.8 29.7 690.1 C19.5 696.5 5.4 686.4 3.2 674.5 C1.1 662.7 6.7 650.9 12.2 640.2 C31.6 602.4 51.7 563.7 83.9 536.0 C86.0 534.2 89.0 532.3 91.5 533.6 C128.3 553.0 169.9 563.1 211.5 562.8 C206.2 546.4 200.9 529.9 195.6 513.5 C192.5 504.0 182.6 492.3 175.2 499.0 C179.0 495.0 182.8 490.9 186.6 486.9 C177.5 488.9 168.5 490.9 159.4 493.0 C166.6 487.0 174.3 481.7 182.4 477.2 C166.9 481.1 151.4 485.1 135.8 489.0 C150.4 481.7 165.0 474.5 179.5 467.2 C169.7 456.8 152.5 458.9 139.1 464.1 C125.7 469.3 112.2 476.9 98.0 474.8 C111.8 468.3 125.7 461.9 139.6 455.4 C119.1 459.5 98.5 463.6 78.0 467.7 C91.6 461.4 105.2 455.1 118.8 448.9 C102.6 451.6 86.5 454.5 70.4 457.7 C81.1 451.3 92.5 446.1 104.4 442.3 C88.2 440.7 71.6 441.8 55.7 445.5 C66.3 441.0 77.0 436.5 87.6 432.0 C74.9 432.7 62.2 433.6 49.5 434.9 C58.3 430.0 68.0 426.8 78.0 425.7 C67.9 423.6 57.3 424.2 47.5 427.3 C52.2 421.5 59.6 418.1 67.1 418.2 C60.6 414.8 52.7 414.3 45.9 416.8 C47.4 413.2 51.1 410.7 55.0 410.5 C23.5 382.3 0.0 340.2 7.9 298.7 C11.5 279.4 21.5 262.0 31.3 245.1 C51.4 210.2 72.5 174.4 105.1 150.8 C116.5 142.6 110.9 125.2 106.7 111.8 C97.5 81.6 104.8 44.4 130.9 26.7 C144.3 17.6 160.6 14.5 176.5 11.6 C195.9 8.0 215.4 4.4 234.9 0.9 C237.3 0.4 239.9 0.0 242.1 1.1 C245.1 2.7 246.0 6.4 246.7 9.6 C252.5 38.4 258.3 67.3 264.0 96.1 C266.2 106.8 280.1 109.1 290.9 110.0 C338.0 114.2 383.1 138.1 413.1 174.7 C432.8 198.8 424.7 236.8 403.6 259.8 C382.6 282.7 352.2 294.1 322.9 304.9 C344.1 298.1 365.7 292.7 387.6 289.0 C366.0 296.9 344.4 304.8 322.7 312.7 C318.8 314.1 314.6 315.8 312.4 319.4 C308.9 325.4 313.4 333.4 319.7 336.2 C326.0 339.1 333.2 338.4 340.0 337.9 C390.9 334.2 443.6 348.2 483.2 380.3 C522.8 412.4 547.8 463.3 544.4 514.1 C542.1 547.3 528.6 578.6 515.2 609.1 C510.5 619.8 505.8 630.6 501.1 641.3 C497.4 645.4 493.6 649.5 489.9 653.6 C494.2 650.6 500.1 650.0 504.9 652.1 C495.4 656.0 486.6 661.7 479.1 668.8 C488.9 663.4 499.5 659.5 510.5 657.3 C482.7 672.4 455.0 687.5 427.2 702.6 C456.2 690.2 485.3 677.7 514.3 665.3 C489.0 679.0 463.7 692.7 438.4 706.4 C434.5 708.4 430.6 714.2 434.5 716.1 C459.6 698.2 487.5 684.1 516.8 674.7 C487.3 690.2 458.9 707.4 431.5 726.4 C458.6 713.8 485.6 701.1 512.6 688.5 C486.9 703.8 461.3 719.1 435.6 734.4 C457.2 725.4 478.8 716.4 500.4 707.5 C462.0 722.7 429.0 751.2 408.4 787.0 C415.9 785.0 423.4 783.0 430.8 781.0 C396.2 802.0 361.1 822.1 325.6 841.5 C344.2 824.5 365.4 810.3 388.2 799.5 C363.0 806.4 338.8 817.3 317.0 831.6 C325.5 820.3 337.5 811.7 350.9 807.2 C336.4 809.6 322.5 815.0 310.1 822.9 C312.3 817.7 316.5 813.4 321.5 811.0 C314.3 815.5 304.4 812.0 298.9 805.7 C293.3 799.3 291.1 790.7 289.1 782.5 C284.6 785.6 278.6 786.5 273.4 784.8 C279.1 782.8 283.3 777.3 283.9 771.4 C272.0 776.0 260.1 780.7 248.2 785.4 C258.7 777.2 269.4 769.1 280.2 761.4 C263.8 767.9 247.5 774.4 231.1 781.0 C239.2 761.9 277.2 765.8 277.8 745.1 C257.1 754.9 236.4 764.7 215.7 774.5 C235.6 761.6 255.5 748.6 275.5 735.6 C248.6 748.5 221.8 761.3 195.0 774.2 C216.9 759.9 238.7 745.7 260.6 731.5 C231.0 745.1 201.3 758.7 171.6 772.2 C191.7 758.6 212.4 746.0 233.8 734.5 C204.7 743.6 177.0 756.5 151.4 772.9 C147.5 771.7 150.9 766.0 154.4 764.1 C173.8 753.7 193.1 743.4 212.5 733.0 M495.4 606.8 C529.3 575.5 543.9 525.7 535.4 480.3 C527.0 434.9 496.8 394.7 457.2 371.0 C417.5 347.3 369.3 339.6 323.6 346.4 C313.5 347.9 307.8 335.3 305.5 325.3 C296.6 285.2 287.6 245.0 278.6 204.8 C306.8 209.1 332.2 228.2 344.3 253.9 C367.0 244.7 389.7 235.5 412.4 226.2 C415.1 225.1 417.9 223.9 419.4 221.5 C421.1 218.8 420.8 215.3 420.2 212.1 C414.0 179.9 389.7 153.2 360.8 137.6 C331.9 122.1 298.7 116.4 266.0 113.7 C263.1 113.5 261.8 110.0 261.1 107.2 C253.3 74.0 245.6 40.9 237.9 7.7 C203.4 14.0 169.0 20.3 134.6 26.7 C142.0 59.8 149.3 92.8 156.7 125.9 C157.8 131.0 157.6 138.4 152.4 139.2 C108.0 146.3 69.9 181.3 56.8 224.4 C43.8 267.5 55.2 316.5 84.3 350.9 C113.3 385.3 158.5 404.7 203.5 404.6 C213.3 404.6 218.7 415.6 221.8 425.0 C236.2 467.9 250.6 510.8 264.9 553.8 C268.3 563.7 254.1 569.9 243.6 570.5 C190.9 573.3 137.5 563.5 89.1 542.2 C75.3 569.5 62.7 597.4 51.4 625.8 C50.3 628.7 49.1 632.0 50.2 635.0 C51.4 638.2 54.9 639.9 58.1 641.2 C119.5 666.9 185.9 680.2 252.4 680.1 C270.5 680.1 289.2 679.0 305.5 671.0 C314.6 699.1 323.7 727.1 332.8 755.1 C365.5 751.6 397.8 744.4 428.8 733.6 C422.1 705.3 413.9 677.4 404.2 650.0 C437.3 642.0 470.4 629.9 495.4 606.8 M207.3 436.4 C200.7 445.9 194.8 455.9 189.7 466.3 C188.0 469.7 186.6 474.3 189.4 476.9 C195.1 466.3 200.8 455.7 206.6 445.2 C209.8 451.0 206.9 458.3 203.2 463.8 C199.5 469.4 194.7 474.7 193.9 481.3 C193.4 485.8 194.8 490.3 196.2 494.7 C202.9 515.0 209.5 535.2 216.2 555.5 C218.1 561.3 224.3 564.9 230.4 565.5 C236.4 566.1 242.5 564.4 248.4 562.7 C252.2 561.6 256.7 559.8 257.4 555.9 C257.7 554.1 257.1 552.3 256.6 550.6 C241.2 505.3 225.8 459.9 210.4 414.6 C202.9 426.2 195.4 437.7 187.8 449.3 C184.5 454.4 181.3 461.8 185.8 466.0 C191.2 451.4 199.1 437.6 209.1 425.6 C211.9 428.5 209.6 433.2 207.3 436.4 M46.9 236.6 C40.4 246.5 33.8 256.4 27.3 266.3 C22.7 273.4 18.0 280.6 15.5 288.7 C13.5 294.9 13.0 301.5 13.0 308.0 C12.8 339.7 25.8 371.3 48.3 393.6 C56.4 382.9 64.6 372.1 72.7 361.3 C74.9 358.4 77.0 354.1 74.4 351.6 C59.9 337.2 51.2 317.7 47.4 297.6 C43.6 277.5 44.4 256.8 46.9 236.6 M110.6 73.6 C109.2 76.5 107.9 79.6 107.5 82.8 C107.1 86.6 108.0 90.5 109.0 94.2 C112.7 108.6 116.4 122.9 120.2 137.3 C120.5 138.5 120.9 139.9 122.1 140.4 C123.1 140.7 124.2 140.3 125.2 139.9 C132.0 137.0 138.9 134.0 145.8 131.1 C146.8 130.6 147.8 130.2 148.5 129.4 C150.0 127.7 149.6 125.2 149.1 123.0 C142.5 92.6 135.9 62.3 129.3 31.9 C123.1 45.8 116.8 59.7 110.6 73.6 M298.1 726.1 C299.4 723.4 302.2 720.3 304.7 721.8 C304.3 730.1 299.1 737.2 294.8 744.2 C290.5 751.3 286.9 760.0 290.1 767.6 C294.7 778.5 299.3 789.4 303.8 800.3 C311.6 790.4 318.8 780.0 325.3 769.2 C327.5 765.5 329.7 761.1 327.9 757.3 C317.4 734.0 309.1 709.7 303.3 684.8 C295.9 699.3 288.4 713.9 281.0 728.4 C280.2 729.8 279.5 731.3 279.6 732.9 C279.8 734.5 281.3 736.1 282.8 735.7 C287.8 723.2 294.1 711.3 301.6 700.1 C304.7 700.7 303.9 705.4 302.4 708.2 C297.1 717.8 291.8 727.3 286.5 736.9 C283.9 741.7 281.3 747.9 284.8 752.1 C289.2 743.5 293.6 734.8 298.1 726.1 M74.6 555.3 C62.2 566.7 51.5 580.2 43.3 594.9 C40.4 600.0 37.8 605.3 35.3 610.6 C28.5 624.3 21.8 638.1 15.0 651.8 C12.9 656.1 10.8 660.6 10.6 665.4 C17.9 658.2 25.1 650.9 32.3 643.7 C35.6 640.4 38.9 637.0 40.8 632.8 C52.0 606.9 63.3 581.1 74.6 555.3 M318.0 293.1 C323.9 283.3 329.9 273.5 335.8 263.6 C336.7 262.2 337.6 260.7 337.7 259.0 C337.8 257.5 337.2 256.0 336.6 254.6 C334.5 249.6 331.9 244.8 328.7 240.4 C327.7 239.0 326.4 237.5 324.7 237.6 C323.0 237.8 321.9 239.5 321.1 241.1 C316.4 250.1 311.7 259.1 307.1 268.1 C305.6 271.0 304.1 274.3 305.2 277.2 C306.0 279.3 308.0 280.7 309.7 282.1 C313.2 285.1 316.0 288.9 318.0 293.1 M26.2 684.9 C29.1 686.3 32.6 687.8 35.4 686.1 C36.4 685.5 37.2 684.5 38.0 683.5 C46.0 672.8 54.1 662.1 62.2 651.5 C58.9 648.6 55.5 645.7 51.4 644.2 C47.3 642.7 42.3 643.0 39.2 646.1 C29.2 656.2 19.2 666.2 9.1 676.2 C14.8 679.1 20.5 682.0 26.2 684.9 M99.5 703.5 C105.9 694.9 112.3 686.3 118.7 677.7 C120.6 675.3 122.5 672.3 121.7 669.4 C118.7 667.3 115.0 670.5 112.8 673.4 C105.5 683.3 98.3 693.2 91.0 703.1 C89.8 704.8 87.7 706.6 85.9 705.6 C84.1 704.5 84.8 701.8 85.9 699.9 C92.6 688.1 104.0 679.2 109.3 666.7 C108.1 665.1 105.6 665.0 103.8 665.9 C102.0 666.8 100.7 668.5 99.4 670.1 C91.0 681.2 82.6 692.2 74.3 703.3 C81.2 703.1 87.4 711.1 93.9 708.6 C96.3 707.7 98.0 705.6 99.5 703.5 M123.5 395.4 C124.1 394.6 124.8 393.7 124.8 392.6 C124.9 390.9 123.5 389.6 122.1 388.5 C119.9 386.8 117.5 385.2 115.0 383.7 C114.2 383.2 113.3 382.7 112.4 382.7 C110.5 382.7 109.0 384.3 107.9 385.9 C100.2 396.0 92.6 406.2 85.0 416.3 C84.1 417.4 83.3 418.6 83.2 420.0 C83.1 421.4 84.3 422.9 85.6 422.7 C86.4 422.6 86.9 422.0 87.4 421.4 C96.2 412.2 104.1 402.3 111.0 391.7 C112.0 390.1 113.5 388.3 115.3 388.6 C117.0 388.8 118.0 390.8 117.7 392.6 C117.5 394.3 116.4 395.7 115.3 397.0 C108.5 405.5 101.7 413.9 94.9 422.3 C93.1 424.5 91.6 428.1 94.0 429.5 C96.0 430.7 98.3 428.6 99.7 426.8 C107.6 416.3 115.6 405.9 123.5 395.4 M145.0 720.4 C147.5 722.9 151.8 722.6 154.8 720.7 C157.7 718.9 159.7 715.8 161.6 712.9 C167.6 703.4 173.7 694.0 179.7 684.6 C180.2 683.7 180.8 682.6 180.2 681.8 C179.8 681.0 178.8 680.9 178.0 680.9 C175.4 680.7 172.7 680.6 170.6 682.1 C169.4 682.9 168.6 684.2 167.8 685.4 C160.2 697.1 152.6 708.8 145.0 720.4 M138.3 406.4 C132.1 415.6 125.8 424.7 119.6 433.9 C118.5 435.5 117.3 437.2 117.1 439.2 C116.9 441.2 117.9 443.4 119.9 443.9 C122.2 444.4 124.2 442.1 125.6 440.1 C133.6 428.3 141.7 416.5 149.7 404.7 C150.0 402.0 146.5 400.2 144.0 401.1 C141.5 401.9 139.8 404.2 138.3 406.4 M184.9 709.3 C183.0 712.5 181.0 715.7 179.0 718.9 C177.7 721.0 176.5 724.0 178.4 725.7 C180.6 727.7 183.9 725.2 185.7 722.8 C194.4 711.2 202.5 699.0 209.9 686.5 C208.1 684.1 204.4 684.0 201.8 685.4 C199.2 686.8 197.5 689.4 195.8 691.8 C192.1 697.6 188.5 703.4 184.9 709.3 M222.5 726.0 C224.2 728.6 228.2 728.7 230.9 727.1 C233.5 725.5 235.2 722.7 236.7 720.0 C242.7 709.3 248.7 698.7 254.7 688.1 C252.6 686.0 248.8 686.3 246.3 688.0 C243.7 689.7 242.1 692.4 240.6 695.1 C234.6 705.4 228.5 715.7 222.5 726.0 M191.3 412.4 C188.7 410.6 184.9 411.2 182.3 412.9 C179.6 414.7 177.8 417.4 176.0 420.1 C168.9 430.7 161.8 441.3 154.7 452.0 C156.0 454.2 159.2 454.6 161.5 453.4 C163.7 452.3 165.3 450.1 166.7 448.0 C174.9 436.2 183.1 424.3 191.3 412.4 M129.8 716.9 C131.4 719.3 135.1 719.6 137.7 718.2 C140.3 716.8 142.0 714.2 143.6 711.7 C150.4 701.1 157.3 690.5 164.1 679.9 C160.1 678.8 155.8 680.4 152.6 683.0 C149.4 685.7 147.2 689.2 145.0 692.7 C139.9 700.8 134.8 708.8 129.8 716.9 M355.4 798.5 C358.5 799.6 361.9 798.4 364.4 796.3 C366.8 794.2 368.5 791.4 370.1 788.6 C376.9 776.5 383.8 764.5 390.6 752.4 C387.5 751.5 384.1 752.8 381.7 754.9 C379.3 757.0 377.6 759.9 376.0 762.6 C369.2 774.6 362.3 786.6 355.4 798.5 M372.6 795.8 C380.5 796.1 385.9 788.1 389.6 781.1 C395.2 770.6 400.8 760.1 406.3 749.6 C404.3 748.3 401.5 748.9 399.6 750.3 C397.7 751.8 396.5 753.9 395.3 756.0 C387.8 769.2 380.2 782.5 372.6 795.8 M267.7 718.5 C270.0 714.0 272.3 709.5 274.6 705.1 C278.0 698.4 281.5 691.7 284.9 685.0 C282.2 684.0 279.0 685.1 276.8 687.0 C274.6 689.0 273.1 691.6 271.7 694.2 C266.0 704.7 260.2 715.3 254.4 725.9 C256.6 727.8 260.2 727.3 262.5 725.6 C264.9 723.8 266.3 721.1 267.7 718.5 M362.3 761.7 C355.7 771.9 349.9 782.6 344.2 793.4 C342.6 796.3 341.0 799.2 339.5 802.1 C343.8 804.2 348.2 799.3 350.6 795.1 C358.3 781.8 366.0 768.6 373.8 755.3 C369.4 753.2 364.9 757.7 362.3 761.7 M91.9 376.7 C93.1 375.1 94.3 373.5 94.5 371.5 C94.6 369.6 93.2 367.4 91.3 367.5 C89.8 367.5 88.7 368.8 87.7 370.0 C80.2 379.9 72.7 389.8 65.2 399.7 C64.1 401.1 63.1 402.5 62.8 404.2 C62.5 405.9 63.2 408.0 64.9 408.5 C67.0 409.2 69.0 407.2 70.3 405.4 C77.5 395.8 84.7 386.2 91.9 376.7 M103.4 433.9 C103.6 436.2 106.6 437.4 108.7 436.6 C110.9 435.8 112.3 433.8 113.6 431.9 C120.4 422.0 127.1 412.1 133.9 402.2 C135.1 400.3 136.3 397.5 134.5 396.1 C132.6 394.6 130.1 396.7 128.7 398.6 C120.8 409.2 112.9 419.8 104.9 430.4 C104.2 431.4 103.3 432.6 103.4 433.9 M434.9 690.6 C437.6 691.2 440.5 689.9 442.4 687.9 C444.4 685.9 445.5 683.3 446.6 680.7 C453.7 664.9 461.5 649.4 470.1 634.4 C466.1 632.6 462.3 637.2 460.3 641.1 C451.9 657.6 443.4 674.1 434.9 690.6 M238.7 687.0 C233.6 685.4 229.1 690.5 226.2 694.9 C222.5 700.5 218.8 706.1 215.1 711.7 C211.9 716.5 208.7 721.4 207.0 726.9 C210.2 727.8 213.7 726.4 216.2 724.2 C218.8 722.0 220.5 719.0 222.1 716.1 C227.6 706.4 233.1 696.7 238.7 687.0 M139.4 679.7 C131.7 690.5 124.0 701.3 116.3 712.1 C115.1 713.8 117.4 716.4 119.6 716.1 C121.7 715.8 123.3 714.0 124.7 712.3 C132.9 701.8 140.5 690.8 147.5 679.4 C148.6 677.6 146.2 675.4 144.1 675.7 C142.0 676.1 140.6 678.0 139.4 679.7 M130.2 446.8 C131.8 449.3 135.6 446.9 137.3 444.5 C144.9 434.2 152.5 423.9 160.1 413.5 C162.0 410.9 163.4 406.3 160.4 405.2 C158.3 404.5 156.3 406.6 155.0 408.4 C147.1 419.6 139.2 430.8 131.4 442.0 C130.4 443.4 129.3 445.3 130.2 446.8 M454.4 640.8 C453.2 638.6 450.0 640.5 448.6 642.5 C440.0 655.0 433.2 668.6 426.5 682.1 C424.8 685.5 423.1 689.8 425.3 692.9 C425.6 693.3 426.1 693.8 426.7 693.7 C427.2 693.6 427.4 693.1 427.6 692.7 C436.5 675.4 445.5 658.1 454.4 640.8 M191.5 726.3 C193.6 727.6 196.4 727.0 198.5 725.6 C200.5 724.1 201.9 722.0 203.2 720.0 C210.6 708.6 218.0 697.2 225.4 685.9 C219.7 684.0 214.6 689.8 211.4 694.9 C204.7 705.4 198.1 715.8 191.5 726.3 M102.2 710.6 C103.2 712.2 105.6 712.5 107.3 711.7 C109.1 710.9 110.3 709.3 111.5 707.8 C118.9 698.1 126.2 688.3 133.4 678.4 C134.5 676.8 135.7 674.7 134.7 673.0 C133.8 671.7 131.8 671.5 130.3 672.2 C128.9 672.9 127.9 674.3 126.9 675.6 C118.7 687.3 110.4 698.9 102.2 710.6 M204.9 411.5 C197.6 412.4 192.7 419.2 188.7 425.3 C182.4 435.1 176.1 444.9 169.7 454.7 C172.5 455.7 175.6 454.7 177.9 452.9 C180.2 451.1 181.8 448.5 183.4 446.1 C190.5 434.5 197.7 423.0 204.9 411.5 M484.3 628.0 C479.7 628.3 476.8 632.8 474.6 636.9 C466.7 651.7 459.2 666.9 452.3 682.2 C459.3 679.7 463.2 672.3 466.4 665.5 C472.4 653.0 478.3 640.5 484.3 628.0 M509.4 606.4 C506.4 605.6 503.8 608.3 502.0 610.8 C490.4 627.0 480.9 644.7 473.9 663.4 C475.6 664.4 477.4 662.4 478.4 660.7 C488.8 642.7 499.2 624.6 509.4 606.4 M307.9 805.2 C310.9 806.3 314.2 805.3 316.7 803.3 C319.1 801.4 320.8 798.7 322.4 796.0 C329.6 784.4 336.7 772.8 343.9 761.2 C339.5 759.3 335.4 764.1 333.0 768.2 C325.5 781.1 317.1 793.5 307.9 805.2 M323.9 804.2 C325.8 805.7 328.7 805.2 330.7 803.7 C332.7 802.3 334.0 800.1 335.2 797.9 C342.5 785.1 349.7 772.2 357.0 759.3 C354.4 757.5 351.2 760.6 349.5 763.3 C341.0 776.9 332.4 790.5 323.9 804.2 M73.7 415.4 C75.8 416.9 78.5 414.7 80.0 412.6 C86.1 404.7 92.3 396.7 98.4 388.8 C101.2 385.1 104.2 381.0 104.0 376.3 C102.0 374.5 98.9 376.9 97.3 379.1 C90.7 388.1 84.1 397.1 77.5 406.1 C75.4 408.9 73.3 412.0 73.7 415.4 M162.3 722.6 C163.6 724.4 166.5 724.5 168.4 723.3 C170.3 722.2 171.6 720.2 172.8 718.3 C179.7 707.2 186.5 695.9 193.0 684.4 C191.2 683.2 188.6 683.6 186.8 684.8 C185.0 686.1 183.8 688.0 182.6 689.9 C175.9 700.8 169.1 711.7 162.3 722.6 M175.7 410.3 C172.7 408.0 168.6 411.3 166.2 414.4 C157.6 425.8 149.5 437.7 142.2 450.1 C143.7 451.4 146.2 451.2 147.9 450.1 C149.7 449.1 150.9 447.3 152.0 445.6 C159.9 433.9 167.8 422.1 175.7 410.3 M249.5 721.9 C251.9 717.6 254.3 713.4 256.7 709.1 C260.9 701.7 265.1 694.3 269.3 686.8 C263.8 685.6 259.4 691.3 256.7 696.3 C251.1 706.6 245.5 716.9 239.8 727.3 C241.5 728.5 244.0 728.1 245.7 726.9 C247.4 725.6 248.5 723.7 249.5 721.9 M40.2 691.3 C42.7 692.6 45.6 690.3 47.5 688.1 C53.3 681.6 59.0 675.0 64.8 668.5 C68.5 664.3 72.3 659.8 73.2 654.2 C70.1 652.4 66.5 655.5 64.3 658.3 C60.7 662.8 57.1 667.4 53.4 671.9 C48.5 678.0 43.6 684.2 40.2 691.3 M97.3 663.8 C96.7 662.0 94.2 661.3 92.4 662.0 C90.6 662.7 89.3 664.4 88.1 665.9 C81.1 674.8 74.2 683.6 67.2 692.5 C65.6 694.5 64.0 696.7 63.6 699.2 C66.4 701.4 70.3 698.4 72.5 695.6 C80.8 685.0 89.1 674.4 97.3 663.8 M423.1 742.9 C417.4 742.3 413.4 748.0 410.7 753.1 C403.7 766.2 396.7 779.4 389.8 792.6 C395.4 793.3 399.1 787.0 401.4 781.8 C407.3 768.1 414.6 755.1 423.1 742.9 M55.7 401.6 C63.7 392.5 71.3 383.0 78.4 373.2 C81.2 369.3 84.0 365.0 84.0 360.2 C82.1 359.0 79.9 361.0 78.5 362.8 C71.0 373.1 63.4 383.4 55.8 393.7 C54.0 396.2 52.7 400.7 55.7 401.6 M60.1 691.6 C68.0 682.9 75.4 673.7 82.1 664.0 C82.9 662.9 83.8 661.7 83.8 660.3 C83.8 658.9 82.5 657.5 81.2 657.8 C80.5 658.0 79.9 658.6 79.5 659.1 C69.8 670.8 60.2 682.4 50.6 694.1 C51.7 695.6 54.0 695.9 55.7 695.2 C57.5 694.5 58.8 693.0 60.1 691.6 M383.7 244.5 C375.0 246.5 369.7 254.9 365.4 262.6 C361.4 269.5 357.5 276.5 353.6 283.5 C357.4 284.8 360.8 280.9 362.9 277.4 C369.8 266.4 376.8 255.5 383.7 244.5 M297.5 682.7 C296.0 680.5 292.7 683.0 291.4 685.3 C284.1 698.2 277.3 711.4 271.1 724.8 C271.7 726.0 273.4 726.2 274.5 725.5 C275.7 724.9 276.4 723.7 277.0 722.6 C284.3 709.5 291.1 696.2 297.5 682.7 M338.3 290.9 C342.9 289.8 345.7 285.4 348.2 281.4 C353.3 272.9 358.5 264.3 363.7 255.8 C364.4 254.5 365.2 252.9 364.4 251.7 C359.5 252.9 356.4 257.6 353.8 261.9 C348.8 270.2 343.8 278.4 338.8 286.7 C338.0 288.0 337.2 289.8 338.3 290.9 M299.6 258.7 C297.7 262.4 296.3 267.8 299.8 269.8 C306.9 257.1 313.5 244.0 319.4 230.7 C318.4 229.3 316.3 229.4 314.9 230.4 C313.5 231.3 312.7 232.9 311.9 234.4 C307.8 242.5 303.7 250.6 299.6 258.7 M370.5 276.1 C372.6 278.4 376.2 275.4 377.9 272.7 C384.5 261.9 391.2 251.2 397.9 240.4 C395.3 238.1 391.6 241.4 389.8 244.3 C383.4 254.9 376.9 265.5 370.5 276.1 M421.8 665.9 C419.6 670.1 417.7 675.7 420.9 679.1 C427.5 667.5 434.1 655.8 440.7 644.1 C436.2 643.9 432.8 648.0 430.2 651.7 C427.2 656.3 424.4 661.0 421.8 665.9 M350.2 258.1 C346.5 257.8 343.9 261.4 342.0 264.6 C335.5 275.4 329.0 286.3 322.5 297.1 C325.8 298.5 328.8 294.9 330.6 291.9 C337.1 280.6 343.7 269.4 350.2 258.1 M296.7 252.0 C301.1 244.3 305.1 236.5 309.0 228.5 C309.8 226.9 310.5 224.8 309.2 223.5 C307.2 221.5 304.1 224.6 303.0 227.2 C300.6 232.9 298.2 238.5 295.8 244.1 C294.6 246.9 294.0 250.9 296.7 252.0 M403.1 239.5 C400.8 243.9 398.7 248.4 396.7 253.0 C403.1 248.0 408.2 241.5 411.7 234.2 C408.5 232.2 404.8 236.1 403.1 239.5 M293.0 235.0 C296.9 229.8 299.3 223.5 300.0 217.1 C293.3 219.8 289.9 228.5 293.0 235.0 M420.7 656.0 C422.7 655.4 424.0 653.1 423.6 651.1 C420.4 651.7 417.2 653.0 415.4 655.7 C413.7 658.4 414.3 662.7 417.2 663.9 C418.0 661.2 419.2 658.6 420.8 656.3 M291.5 217.9 C292.7 215.3 290.2 211.7 287.3 212.1 C286.9 214.0 286.6 216.0 287.5 217.7 C288.5 219.3 291.4 219.7 292.1 218.0 M418.9 758.4 C417.3 759.6 416.6 761.8 417.1 763.8 C421.0 761.1 423.5 756.5 423.6 751.8 C421.6 753.5 419.9 755.8 418.9 758.3 M308.5 310.1 C311.7 311.1 315.5 309.4 316.9 306.4 C314.0 304.9 310.0 306.3 308.6 309.2 M307.5 288.4 C307.3 286.7 305.7 285.3 304.0 285.4 C302.9 288.5 305.1 292.3 308.4 292.9 C309.1 291.5 308.7 289.6 307.6 288.6 M60.3 710.7 C57.7 712.4 55.2 714.0 52.7 715.6 C57.6 714.9 62.2 712.6 65.7 709.0 C63.8 709.3 62.0 710.0 60.4 710.9 M308.2 302.7 C309.7 302.1 311.2 301.2 311.8 299.8 C312.5 298.4 311.7 296.3 310.1 296.1 C308.8 296.0 307.7 297.3 307.5 298.7 C307.4 300.0 307.9 301.3 308.5 302.6" fill="#000" stroke="none"/></g><g id="change1_2"><path d="M35.3 679.4 C34.0 681.1 31.6 683.0 29.9 681.6 C28.4 680.3 29.6 677.9 30.8 676.3 C35.1 670.4 39.5 664.6 43.9 658.8 C45.9 656.0 48.1 653.2 51.1 651.6 C53.2 654.4 51.1 658.3 49.0 661.2 C44.4 667.2 39.9 673.3 35.3 679.4" fill="#000" stroke="none"/></g><g id="change1_3"><path d="M169.0 465.4 C168.3 467.8 165.6 469.1 163.1 469.9 C150.3 474.6 137.6 479.3 124.8 484.0 C122.7 484.8 119.6 485.1 118.8 483.0 C118.1 480.9 120.7 479.2 122.8 478.5 C133.0 474.7 143.2 471.0 153.5 467.3 C158.5 465.5 163.9 463.6 169.0 465.4" fill="#000" stroke="none"/></g><g id="change1_4"><path d="M458.0 826.4 C459.5 828.0 459.0 830.7 457.7 832.4 C456.3 834.1 454.3 835.1 452.3 836.0 C436.9 843.1 421.0 848.7 404.6 852.9 C404.0 850.1 405.8 847.3 408.3 845.7 C410.7 844.2 413.6 843.6 416.4 843.0 C431.1 839.9 445.2 834.2 458.0 826.4" fill="#000" stroke="none"/></g><g id="change1_5"><path d="M378.1 316.9 C364.1 322.7 349.7 327.4 335.0 330.9 C331.7 331.6 328.4 332.3 325.1 331.9 C324.3 331.7 323.4 331.5 323.0 330.7 C322.4 329.3 324.3 328.1 325.7 327.6 C344.6 321.9 363.4 316.2 382.2 310.6 C384.1 312.9 380.8 315.8 378.1 316.9" fill="#000" stroke="none"/></g><g id="change1_6"><path d="M59.3 352.3 C56.7 359.5 52.7 366.3 47.6 372.0 C48.3 373.5 50.5 372.2 51.4 370.9 C56.6 363.8 61.7 356.6 66.9 349.4 C68.6 350.3 69.2 352.6 68.8 354.6 C68.3 356.5 67.1 358.1 65.9 359.7 C60.7 366.6 55.4 373.6 50.1 380.5 C49.1 381.9 47.6 383.4 45.9 383.0 C41.9 371.4 48.1 357.3 59.3 352.3" fill="#000" stroke="none"/></g><g id="change1_7"><path d="M388.3 298.3 C389.3 299.5 388.8 301.5 387.7 302.6 C386.6 303.7 385.1 304.2 383.6 304.6 C362.2 311.3 340.7 317.9 319.3 324.5 C318.5 324.8 317.6 325.0 316.8 324.8 C315.2 324.2 315.0 321.8 316.0 320.5 C317.0 319.1 318.8 318.6 320.4 318.1 C336.9 313.0 353.5 307.9 370.0 302.9 C376.0 301.0 382.0 299.2 388.3 298.3" fill="#000" stroke="none"/></g><g id="change1_8"><path d="M447.6 813.9 C449.4 815.1 449.3 817.9 448.1 819.8 C446.9 821.6 444.8 822.6 442.9 823.6 C424.6 832.6 406.3 841.7 388.0 850.7 C385.0 852.2 381.6 853.6 378.7 852.3 C378.8 848.0 383.6 845.5 387.7 843.9 C408.5 835.7 428.5 825.6 447.6 813.9" fill="#000" stroke="none"/></g><g id="change1_9"><path d="M356.4 852.8 C354.8 853.8 352.7 851.6 353.1 849.7 C353.5 847.8 355.2 846.5 356.9 845.5 C377.7 832.7 401.9 826.0 421.8 811.9 C427.4 807.8 434.0 803.0 440.6 805.2 C434.6 812.8 425.7 817.7 417.0 822.0 C396.7 832.1 375.5 840.5 356.4 852.8" fill="#000" stroke="none"/></g><g id="change1_10"><path d="M348.2 837.7 C362.8 829.6 377.3 821.6 391.9 813.5 C395.6 811.4 399.3 809.4 403.0 807.3 C412.0 802.3 421.0 797.3 429.9 792.3 C432.5 790.9 436.9 790.2 437.4 793.1 C427.0 801.2 415.8 808.3 404.2 814.5 C385.6 824.4 365.4 831.9 348.8 844.9 C346.5 846.8 343.9 848.9 340.9 848.6 C339.1 844.1 344.0 840.1 348.2 837.7" fill="#000" stroke="none"/></g><g id="change1_11"><path d="M169.7 211.2 C171.2 212.1 171.9 213.8 172.5 215.4 C185.5 250.8 196.2 287.1 204.5 324.0 C205.3 327.4 205.9 331.4 203.5 334.0 C201.1 336.6 196.9 336.2 193.4 335.4 C188.7 334.4 184.1 333.0 179.5 331.3 C162.6 325.0 147.2 314.0 137.2 298.9 C127.2 283.8 123.2 264.6 128.0 247.2 C132.8 229.8 147.1 214.9 164.7 211.0 C166.4 210.6 168.3 210.3 169.7 211.2 M167.3 252.3 C170.8 253.7 170.1 258.8 168.7 262.3 C165.5 270.4 161.7 278.2 157.3 285.7 C154.4 290.8 156.1 297.3 157.9 302.9 C159.3 307.2 160.8 311.7 163.9 315.1 C166.4 317.8 169.8 319.5 173.2 321.0 C181.2 324.6 189.6 327.3 198.2 329.1 C190.1 292.8 180.1 256.9 168.2 221.6 C164.3 224.7 163.2 230.7 165.7 234.9 C168.7 239.9 165.1 246.1 162.0 251.1 C156.0 260.9 151.9 271.8 149.8 283.1 C150.5 284.7 152.9 283.0 153.6 281.4 C158.2 271.7 162.7 262.0 167.3 252.3 M158.9 227.0 C148.0 238.1 140.8 252.3 133.9 266.3 C132.9 268.2 132.1 271.0 133.9 272.2 C143.9 258.2 152.3 242.9 158.9 227.0 M132.5 250.3 C131.5 252.7 131.3 256.5 133.9 256.9 C139.3 245.7 146.1 235.2 154.0 225.6 C153.9 223.8 151.1 224.4 149.9 225.6 C142.4 232.4 136.4 240.9 132.5 250.3 M146.7 269.2 C152.0 260.1 156.7 250.8 160.9 241.2 C161.7 239.3 162.4 237.0 161.0 235.6 C156.1 243.4 151.7 251.5 147.7 259.9 C146.3 262.8 144.9 266.5 146.7 269.2 M143.6 278.8 C143.9 276.4 143.4 274.0 142.3 271.8 C139.0 274.0 136.7 277.6 135.9 281.5 C138.5 281.3 141.2 280.4 143.4 278.9 M147.3 300.4 C147.1 302.1 148.9 303.8 150.7 303.4 C150.9 301.5 151.2 299.4 150.4 297.6 C149.7 295.8 147.6 294.4 145.8 295.1 C145.5 296.9 145.8 298.8 146.6 300.4 M145.3 284.9 C142.7 284.4 139.9 286.6 139.7 289.2 C142.4 290.7 146.1 289.8 147.8 287.3 C147.0 286.5 146.1 285.6 145.3 284.8" fill="#000" stroke="none"/></g><g id="change1_12"><path d="M410.2 535.8 C401.2 541.8 391.6 546.8 381.6 550.7 C378.1 552.0 373.8 553.2 370.8 550.9 C369.0 549.6 368.1 547.3 367.3 545.2 C353.2 505.9 340.5 466.0 329.5 425.7 C328.8 423.2 332.5 421.8 335.2 421.8 C358.2 421.4 383.1 421.6 401.7 435.2 C413.3 443.7 421.0 456.4 426.5 469.6 C433.0 485.1 436.7 503.5 428.4 518.1 C424.2 525.5 417.3 531.1 410.2 535.8 M403.4 475.3 C400.3 480.7 397.2 486.0 394.1 491.3 C391.1 496.4 388.1 502.5 390.6 507.8 C394.4 516.1 396.8 525.0 397.5 534.1 C412.0 530.5 423.5 517.2 425.1 502.3 C426.3 491.6 422.6 480.9 418.5 470.8 C416.3 465.5 413.9 460.1 410.6 455.4 C409.6 454.0 408.3 452.6 406.7 452.8 C405.4 452.9 404.4 454.1 403.6 455.2 C396.7 464.9 390.4 475.1 384.8 485.6 C383.4 488.3 382.1 491.8 384.1 494.1 C384.4 495.2 386.2 494.3 386.7 493.2 C392.5 482.7 398.3 472.2 404.1 461.7 C408.1 464.8 405.9 471.0 403.4 475.3 M370.2 509.2 C374.7 507.6 379.2 506.0 383.6 504.4 C379.5 500.8 373.1 502.9 368.0 505.1 C365.8 506.1 363.3 507.5 363.0 510.0 C362.9 511.0 363.2 512.1 363.6 513.2 C366.6 521.8 369.7 530.5 372.7 539.2 C374.2 543.4 379.8 545.0 383.8 543.1 C387.8 541.2 390.1 536.6 390.3 532.2 C390.5 529.0 389.6 525.5 387.3 523.2 C385.1 521.0 381.1 520.2 378.5 522.1 C376.7 520.4 379.0 517.5 381.3 516.7 C383.6 515.9 386.6 515.3 387.3 513.0 C383.6 511.4 379.3 511.4 375.7 513.0 C374.0 513.7 372.4 514.8 370.6 514.8 C368.8 514.9 366.7 513.3 367.2 511.6 C367.6 510.3 369.0 509.6 370.2 509.2 M383.2 434.7 C382.2 432.9 379.4 432.6 377.6 433.6 C375.7 434.5 374.5 436.4 373.4 438.2 C369.0 445.0 364.7 451.9 360.3 458.7 C358.2 462.0 356.0 465.5 355.4 469.4 C358.3 471.1 361.7 468.0 363.7 465.2 C370.8 455.4 377.3 445.2 383.2 434.7 M401.3 444.4 C398.2 442.5 394.8 446.1 393.0 449.2 C387.6 458.4 382.2 467.6 376.8 476.9 C376.0 478.3 375.1 479.9 375.5 481.5 C375.9 483.1 378.3 484.0 379.2 482.7 C384.5 474.4 389.9 466.1 395.2 457.9 C397.9 453.7 400.7 449.3 401.3 444.4 M351.8 450.4 C348.2 455.9 344.6 463.0 348.1 468.5 C355.6 456.2 363.1 443.9 370.5 431.6 C369.1 430.3 366.8 430.5 365.1 431.5 C363.5 432.6 362.4 434.2 361.3 435.9 C358.1 440.7 355.0 445.6 351.8 450.4 M384.8 442.8 C379.8 450.7 374.8 458.6 369.7 466.4 C368.5 468.3 367.3 470.2 366.9 472.4 C366.7 473.6 366.9 475.2 368.0 475.7 C369.5 476.3 370.9 474.8 371.7 473.5 C378.9 461.8 386.1 450.1 393.2 438.4 C390.3 436.4 386.7 439.8 384.8 442.8 M347.6 437.6 C346.1 440.1 344.0 442.2 342.8 444.8 C341.6 447.4 341.8 451.0 344.3 452.5 C348.7 444.6 353.6 436.9 359.0 429.6 C357.1 427.7 353.6 428.6 351.8 430.6 C349.9 432.6 349.0 435.3 347.6 437.6 M378.0 495.4 C376.4 492.6 372.6 491.6 369.4 492.4 C366.3 493.1 363.6 495.2 361.0 497.3 C359.5 498.5 357.9 500.6 359.0 502.1 C365.5 500.4 371.9 498.2 378.0 495.4 M370.1 484.9 C365.1 482.9 359.0 484.6 355.7 488.8 C355.1 489.7 354.7 490.8 354.8 491.9 C360.5 491.6 366.1 489.1 370.1 484.9 M339.6 429.7 C338.7 430.6 338.5 431.9 338.5 433.1 C338.6 435.2 339.4 437.3 340.7 439.0 C343.0 436.2 344.7 432.9 345.7 429.3 C343.7 428.7 341.1 428.1 339.6 429.7 M358.9 481.4 C359.9 480.7 361.0 480.0 362.0 479.3 C358.8 477.1 355.0 475.9 351.1 475.7 C349.9 479.6 355.4 483.5 358.7 481.1" fill="#000" stroke="none"/></g></svg>