<svg width="187" height="157" viewBox="0 0 187 157" fill="none" xmlns="http://www.w3.org/2000/svg">
<rect width="112.779" height="139.952" rx="12" transform="matrix(-0.928856 -0.37044 -0.576444 0.817137 186.34 41.7778)" fill="#E9E7E7"/>
<path d="M158.001 10.8161C157.202 3.04948 143.341 0.905756 130.071 2.48719C116.8 4.06863 116.279 7.12608 116.592 16.2984C116.696 19.3207 117.53 21.7104 118.85 23.573C118.051 26.3845 114.751 26.9819 115.202 27.4036C117.53 29.6879 121.664 27.5793 122.671 27.017C129.098 30.8125 139.242 30.2853 146.572 29.231C156.334 27.8956 158.87 19.3559 158.001 10.8161Z" fill="#A8CB91"/>
<path d="M89.2288 36.2734C89.4753 31.7535 98.2411 31.7535 101.912 33.1232C105.583 34.4928 105.089 38.0813 105.089 38.0813" stroke="#073F0C" stroke-width="2.3686" stroke-miterlimit="10"/>
<path d="M108.815 37.4786C108.075 40.7658 107.336 43.8339 106.596 46.6554H89.7765C89.1191 43.5873 88.3795 40.3001 87.5303 36.7116C89.256 35.8624 91.5297 35.5611 92.2967 34.0545C92.5706 33.4792 92.6528 31.4521 92.6802 30.3838C92.7076 28.4389 92.5432 27.1514 92.5432 27.1514H101.802C101.802 27.1514 101.583 29.9455 101.72 32.1095C101.775 33.2875 101.967 34.2736 102.323 34.6023C103.418 35.6433 106.623 36.4377 108.815 37.4786Z" fill="#EDBDA6"/>
<path d="M112.76 120.261C112.869 108.126 110.842 96.7851 110.87 95.0867C111.089 87.4987 110.705 79.7465 110.705 79.7465L97.392 74.9526L95.9402 104.811C95.9402 104.811 96.488 111.797 97.1181 120.261H112.76Z" fill="#4DA514"/>
<path d="M80.5725 120.261H97.3646C97.7207 117.44 97.9398 115.604 97.9398 115.604L95.9401 74.98L83.257 81.0887C83.2297 81.0887 80.4355 108.126 80.5725 120.261Z" fill="#4DA514"/>
<path d="M81.4217 90.375C92.2147 90.1833 100.268 91.8543 110.897 90.512C110.541 80.5683 110.541 66.1046 111.39 59.5302C112.623 50.1617 113.362 42.656 113.362 42.656L103.309 36.8486L100.953 38.1087L96.9811 38.6566L92.2147 38.4648L89.448 37.5609L82.134 42.656C82.134 42.656 80.463 50.1891 81.6957 59.5302C82.5175 66.0224 81.8874 80.7052 81.4217 90.375Z" fill="#EFF9E9"/>
<path d="M92.2967 34.054C92.242 34.1636 92.1872 34.2732 92.105 34.3553C95.0908 34.5745 99.6107 33.9992 101.72 32.4104C101.72 32.3009 101.693 32.1913 101.693 32.0817C101.556 29.9176 101.775 27.1235 101.775 27.1235H92.5159C92.5159 27.1235 92.6802 28.411 92.6528 30.3559C92.6528 31.4517 92.5981 33.4788 92.2967 34.054Z" fill="#F7A281"/>
<path d="M79.0112 49.3121C79.9426 58.7628 81.2027 65.0085 81.0383 73.6921C80.9288 79.4721 79.6687 105.441 79.6687 105.441C79.6687 105.441 87.5853 105.331 93.694 102.674C97.803 100.894 97.2551 88.3475 97.036 74.5687C96.8716 64.2689 89.3659 53.7499 88.7358 46.8194C88.4619 43.9157 89.5028 35.7251 89.5028 35.7251L82.7093 39.1219L79.0112 49.3121Z" fill="white"/>
<path d="M113.664 46.9567C113.39 55.6403 113.609 59.7219 113.444 61.3381C112.842 66.9811 112.294 70.1314 112.321 75.0074C112.376 85.2798 114.595 104.976 114.595 104.976C114.595 104.976 103.199 105.934 99.1452 102.455C94.5979 98.5382 96.2415 74.8978 97.0085 70.597C98.5973 61.5025 102.268 59.0097 103.583 50.0521C104.733 42.1903 103.884 35.2598 103.884 35.2598L112.239 38.8757L113.664 46.9567Z" fill="white"/>
<path d="M89.667 36.0265L91.1736 34.8486C91.1736 34.8486 92.0776 35.78 92.7076 36.2183C95.5565 38.2454 97.1453 38.4371 97.1453 38.4371C97.1453 38.4371 94.2143 40.7656 92.872 40.6012C90.3518 40.2451 89.667 36.0265 89.667 36.0265Z" fill="#4DA514"/>
<path d="M103.912 35.7252L102.953 34.6021C102.953 34.6021 101.72 35.8621 101.117 36.3004C98.3234 38.3001 96.762 38.4919 96.762 38.4919C96.762 38.4919 99.6382 40.7929 100.953 40.6012C103.419 40.2451 103.912 35.7252 103.912 35.7252Z" fill="#4DA514"/>
<path d="M99.7202 79.1436C100.25 79.1436 100.679 78.7143 100.679 78.1848C100.679 77.6553 100.25 77.2261 99.7202 77.2261C99.1907 77.2261 98.7615 77.6553 98.7615 78.1848C98.7615 78.7143 99.1907 79.1436 99.7202 79.1436Z" fill="#B2E491"/>
<path d="M99.8574 89.1968C100.387 89.1968 100.816 88.7676 100.816 88.2381C100.816 87.7085 100.387 87.2793 99.8574 87.2793C99.3279 87.2793 98.8987 87.7085 98.8987 88.2381C98.8987 88.7676 99.3279 89.1968 99.8574 89.1968Z" fill="#B2E491"/>
<path d="M91.6394 34.8215C91.6394 34.8215 90.7902 38.6017 92.1051 45.0118C92.9543 49.066 93.2556 51.7505 94.1048 54.9281C96.351 63.3378 96.4332 69.7205 96.4332 69.7205L87.0373 44.683L88.6535 42.6833L85.4211 41.1219C85.4211 41.1219 87.9961 36.5473 89.2562 35.6433C90.5163 34.7667 91.6394 34.8215 91.6394 34.8215Z" fill="#B2E491"/>
<path d="M102.953 34.6021C102.953 34.6021 103.555 38.4645 102.323 45.1758C101.09 51.9146 99.5834 58.1328 98.8985 60.4613C97.0632 66.8713 96.9536 70.2407 96.9536 70.2407C96.9536 70.2407 105.856 46.5181 107.61 43.5049L105.829 42.1626L107.856 40.6012C107.856 40.6012 105.939 36.3826 104.679 35.506C103.473 34.6294 102.953 34.6021 102.953 34.6021Z" fill="#B2E491"/>
<path d="M108.733 66.4605C109.116 60.2423 108.897 53.7775 109.281 49.5863C110.157 39.8069 112.267 38.8481 112.267 38.8481C112.267 38.8481 115.773 40.4643 117.471 50.1616C117.937 52.8735 119.444 58.7082 118.759 66.6523C118.238 72.6514 117.17 73.4458 115.499 74.1854C113.225 75.199 108.842 76.2673 106.733 74.8703C107.856 70.9804 108.705 71.9392 108.733 66.4605Z" fill="white"/>
<path d="M112.267 38.8208C112.267 38.8208 115.773 40.437 117.471 50.1342C117.937 52.8461 119.444 58.6809 118.759 66.6249C118.238 72.6241 117.17 73.4185 115.499 74.1581C113.225 75.1716 108.842 76.24 106.733 74.8429" stroke="#B2E491" stroke-width="1.8425" stroke-miterlimit="10" stroke-linecap="round" stroke-linejoin="round"/>
<path d="M85.202 66.4605C84.8185 60.2423 85.0377 53.7775 84.6542 49.5863C83.7776 39.8069 82.6819 39.1221 82.6819 39.1221C82.6819 39.1221 78.5455 40.9848 77.121 47.9153C76.5732 50.6272 74.9844 58.8726 75.1761 66.6523C75.3405 72.6788 76.7649 74.158 78.4633 74.8429C80.9013 75.8564 87.914 74.8429 89.6397 74.5415C88.544 70.6517 85.2568 71.9392 85.202 66.4605Z" fill="white"/>
<path d="M82.6819 39.1221C82.6819 39.1221 78.5455 40.9848 77.121 47.9153C76.5732 50.6272 74.9844 58.8726 75.1761 66.6523C75.3405 72.6788 76.7649 74.158 78.4633 74.8429C80.9013 75.8564 87.914 74.8429 89.6397 74.5415" stroke="#B2E491" stroke-width="1.8425" stroke-miterlimit="10" stroke-linecap="round" stroke-linejoin="round"/>
<path d="M85.7499 69.4188C84.7912 62.8719 85.1199 62.0501 84.9829 55.4209" stroke="#B2E491" stroke-width="1.8425" stroke-miterlimit="10" stroke-linecap="round" stroke-linejoin="round"/>
<path d="M111.664 65.8579C111.308 60.3792 111.171 54.8732 111.28 49.3945" stroke="#B2E491" stroke-width="1.8425" stroke-miterlimit="10" stroke-linecap="round" stroke-linejoin="round"/>
<path d="M103.775 72.7337C106.35 72.9529 106.213 68.0769 106.213 68.0769C106.213 68.0769 101.83 65.7759 101.611 67.8304C101.392 69.9122 103.775 72.7337 103.775 72.7337Z" fill="#B2E491"/>
<path d="M101.364 65.4198C102.706 65.4198 105.254 63.6941 107.363 64.9815C109.473 66.269 110.787 67.6661 110.787 67.6661C110.787 67.6661 106.569 67.6113 104.268 68.6796C101.967 69.7754 99.6931 71.6107 99.6931 71.6107L101.364 65.4198Z" fill="#EDBDA6"/>
<path d="M102.077 64.8716C101.446 65.8851 104.323 71.939 104.597 72.9252C104.597 72.9252 98.0497 74.1579 91.7219 74.4318C84.3805 74.7605 79.0388 74.4318 77.3678 73.2813C75.6968 72.1308 77.7239 63.9676 82.0795 65.6386C84.7366 66.6521 88.8182 67.0904 92.6259 66.2686C96.4609 65.4468 102.077 64.8716 102.077 64.8716Z" fill="white"/>
<path d="M92.6531 66.2686C96.4607 65.4742 102.076 64.8716 102.076 64.8716C101.446 65.8851 104.323 71.939 104.597 72.9252" stroke="#B2E491" stroke-width="1.8425" stroke-miterlimit="10" stroke-linecap="round" stroke-linejoin="round"/>
<path d="M93.6116 64.8717C92.2967 64.7347 89.1465 62.8172 86.9276 63.8581C84.7088 64.899 83.2021 66.1317 83.2021 66.1317C83.2021 66.1317 88.4617 66.8714 90.6257 68.2136C92.7898 69.5559 94.8443 71.6378 94.8443 71.6378L93.6116 64.8717Z" fill="#EDBDA6"/>
<path d="M93.502 64.8442C91.8036 65.4195 90.6805 66.9535 90.9544 72.1856C90.9544 72.1856 96.077 74.1032 102.35 75.0893C109.609 76.2398 113.581 75.0893 115.389 74.1579C117.197 73.2266 117.69 65.2004 113.773 65.7208C112.376 65.9126 106.459 67.9671 102.377 66.8713C98.6245 65.8578 93.502 64.8442 93.502 64.8442Z" fill="white"/>
<path d="M103.966 64.7623C105.309 64.3788 107.61 63.5296 108.568 63.0091C109.527 62.4886 110.267 61.9408 111.445 61.6668C112.623 61.3929 113.198 61.2559 113.444 61.749C113.691 62.2421 111.746 62.5982 111.308 62.7078C110.842 62.8173 110.13 63.557 110.13 63.557C110.13 63.557 111.664 63.3104 112.54 63.283C113.417 63.2556 113.992 63.1187 114.458 63.42C114.924 63.7213 114.321 64.1048 113.718 64.1322C113.088 64.1322 112.376 64.4883 112.376 64.4883C112.376 64.4883 113.472 64.5705 113.746 64.7623C114.02 64.954 113.636 65.2827 112.76 65.4197C111.883 65.5567 111.308 65.721 111.308 65.721C111.308 65.721 111.006 66.4059 109.828 66.3237C108.596 66.2689 103.966 64.7623 103.966 64.7623Z" fill="#EDBDA6"/>
<path d="M111.746 65.3923C109.993 65.6936 108.514 65.9127 107.281 66.1045C107.281 66.1593 107.281 66.1867 107.308 66.2415C107.308 66.4606 107.308 66.6524 107.308 66.8715C108.322 66.8441 109.5 66.7893 110.157 66.625C111.089 66.4058 111.417 66.3236 111.746 66.1867C112.321 65.9675 112.677 65.2279 111.746 65.3923Z" fill="#EDBDA6"/>
<path d="M89.6123 67.6932C86.1607 66.4879 82.3531 65.9674 78.6824 66.1044" stroke="#B2E491" stroke-width="1.8425" stroke-miterlimit="10" stroke-linecap="round" stroke-linejoin="round"/>
<path d="M80.0247 75.1716C86.1607 75.4455 92.0777 74.4319 97.6385 73.9937" stroke="#B2E491" stroke-width="1.8425" stroke-miterlimit="10" stroke-linecap="round" stroke-linejoin="round"/>
<path d="M115.608 74.1308C111.664 76.1031 105.911 75.8291 102.295 75.1443C99.8298 74.6786 97.5288 73.8842 95.1456 73.2542C93.639 72.8707 92.598 72.6241 91.0366 72.3502C91.0366 72.3502 90.3244 68.0495 91.8858 66.0771" stroke="#B2E491" stroke-width="1.8425" stroke-miterlimit="10" stroke-linecap="round" stroke-linejoin="round"/>
<path d="M93.6116 64.8716C96.077 65.2551 103.473 68.0492 107.993 67.1452" stroke="#B2E491" stroke-width="1.8425" stroke-miterlimit="10" stroke-linecap="round" stroke-linejoin="round"/>
<path d="M102.515 24.1107C102.515 24.1107 102.405 21.6727 104.459 21.7275C105.774 21.7549 105.857 22.9602 104.843 24.4942C104.405 25.1516 104.377 26.6035 103.829 27.0965C103.172 27.6718 102.652 26.7952 102.432 26.3843C102.131 25.7269 102.515 24.1107 102.515 24.1107Z" fill="#EDBDA6"/>
<path d="M103.72 22.9874C104.432 22.5765 105.254 22.6587 104.761 23.4805C104.268 24.2749 103.967 24.5214 103.994 25.398C104.021 26.2198 103.309 26.2472 103.309 26.2472L103.72 22.9874Z" fill="#E7A699"/>
<path d="M91.5025 24.1107C91.5025 24.1107 91.612 21.6727 89.5576 21.7275C88.2427 21.7549 88.1605 22.9602 89.174 24.4942C89.6123 25.1516 89.6397 26.6035 90.1876 27.0965C90.845 27.6718 91.3655 26.7952 91.5847 26.3843C91.886 25.7269 91.5025 24.1107 91.5025 24.1107Z" fill="#EDBDA6"/>
<path d="M90.5165 22.9874C89.8043 22.5765 88.9825 22.6587 89.4756 23.4805C89.9686 24.3023 90.27 24.5214 90.2426 25.398C90.2152 26.2198 90.9274 26.2472 90.9274 26.2472L90.5165 22.9874Z" fill="#E7A699"/>
<path d="M104.597 18.139C104.542 18.9334 104.377 19.4539 104.186 20.6318C104.131 20.9057 104.076 21.2345 104.021 21.618C103.61 24.549 103.063 28.5211 102.843 29.1237C102.46 30.1099 100.378 31.6987 99.3645 32.3013C98.3784 32.8766 95.8582 32.767 94.872 32.1918C93.8859 31.6165 91.6396 30.1373 91.2561 29.1511C91.0096 28.5485 90.4617 24.4395 90.0508 21.481C89.996 21.1523 89.9686 20.851 89.9139 20.577C89.7221 19.4265 89.5577 18.9608 89.503 18.1664C89.3386 15.701 92.1327 12.0851 97.0635 12.0851C102.843 12.0577 104.734 15.6736 104.597 18.139Z" fill="#EDBDA6"/>
<path d="M91.4751 16.2759C91.4751 16.2759 95.5019 15.235 101.364 15.5637L102.953 14.4954C102.953 14.4954 100.159 12.9066 96.5428 12.9339C92.8995 12.9887 91.4751 16.2759 91.4751 16.2759Z" fill="#E1D2E3"/>
<path d="M104.35 20.0016C104.268 20.2207 104.186 20.4125 104.131 20.6043L104.158 20.6316C104.103 20.9056 104.049 21.2343 103.994 21.6178C103.884 22.33 103.775 23.097 103.665 23.8914L102.843 24.905C103.227 23.7545 103.473 21.3713 103.61 20.5769C103.062 19.3716 102.761 18.0841 102.734 16.7418L102.432 14.7695L101.118 14.8243C100.926 14.6325 98.0769 14.7421 95.5841 14.9339C92.4339 15.1804 91.4752 16.3035 91.4752 16.3035C91.2834 17.4814 91.0643 19.2894 90.4616 20.3303L90.4342 20.3851L90.3794 20.4673C90.5164 21.2069 90.5986 23.4258 91.0369 24.6585L90.3794 23.8914C90.2699 23.0696 90.1329 22.2205 90.0233 21.4534C89.9959 21.3439 89.9959 21.2343 89.9685 21.1521C89.9685 21.1521 89.8316 20.7138 89.6398 20.0564C89.5028 19.5907 89.1741 17.1527 89.0919 16.824C89.0645 16.7144 89.0372 16.6048 89.0372 16.5227C88.7358 15.016 89.3659 9.37302 98.0495 10.0579C98.1591 10.0579 98.2687 10.0852 98.3509 10.0852C101.2 10.4688 102.515 11.811 102.515 11.811L103.501 13.5368C105.117 13.7833 105.309 14.7147 104.925 16.5774C104.925 16.6322 104.514 19.5359 104.35 20.0016Z" fill="#422129"/>
<path d="M88.7906 36.7661L88.8454 37.2866C88.818 37.2866 85.6951 37.4509 84.3255 39.3685C82.8463 41.4778 80.5178 47.5317 81.1205 48.7644C81.7779 50.134 84.709 51.3941 84.7364 51.3941L84.5446 51.8598C84.4077 51.805 81.4218 50.5175 80.6548 48.9561C79.8604 47.3399 82.5723 40.9573 83.9146 39.0398C85.3938 36.9579 88.681 36.7935 88.7906 36.7661Z" fill="#073F0C"/>
<path d="M82.3532 43.3409C82.9833 41.7521 83.7229 40.2455 84.3256 39.3689C85.6952 37.424 88.818 37.287 88.8454 37.287L88.818 37.0405L88.7906 36.7939C88.6811 36.7939 85.3939 36.9583 83.8873 39.095C83.312 39.8894 82.5176 41.5056 81.8328 43.204C81.9971 43.2587 82.1889 43.2861 82.3532 43.3409Z" fill="#073F0C" stroke="#073F0C" stroke-width="0.5539" stroke-miterlimit="10" stroke-linecap="round" stroke-linejoin="round"/>
<path d="M84.49 50.9561H85.2296C85.6405 50.9561 85.9692 51.3122 85.9144 51.7231C85.8596 52.134 85.4487 52.4079 85.0378 52.2709L84.3256 52.0518C84.2708 52.0244 84.2434 51.9696 84.2434 51.9148L84.353 51.0382C84.3804 51.0108 84.4352 50.9561 84.49 50.9561Z" fill="#073F0C"/>
<path d="M89.2838 36.8486L89.092 37.3143C89.1194 37.3143 92.0779 38.3279 92.8449 40.5741C93.6941 43.0121 94.2694 49.4495 93.338 50.4905C92.3244 51.641 89.1742 52.0245 89.1468 52.0245L89.2016 52.545C89.3386 52.5176 92.571 52.1067 93.7215 50.8192C94.9268 49.4769 94.0776 42.6012 93.338 40.3824C92.4888 37.9444 89.3934 36.876 89.2838 36.8486Z" fill="#073F0C"/>
<path d="M93.6667 44.9292C93.5024 43.2308 93.201 41.5598 92.8449 40.5737C92.0779 38.3274 89.092 37.3139 89.092 37.3139L89.1742 37.0673L89.2564 36.8208C89.366 36.8482 92.4614 37.9165 93.3106 40.3819C93.6393 41.3133 93.968 43.0665 94.1598 44.9018C94.0228 44.9292 93.8585 44.9292 93.6667 44.9292Z" fill="#073F0C" stroke="#073F0C" stroke-width="0.5539" stroke-miterlimit="10" stroke-linecap="round" stroke-linejoin="round"/>
<path d="M89.777 51.6955L89.0647 51.4763C88.7634 51.3941 88.4073 51.5311 88.2703 51.805C88.0512 52.2707 88.3799 52.8186 88.9004 52.7912H89.6126C89.6674 52.7912 89.7222 52.7364 89.7222 52.6816L89.8317 51.805C89.8591 51.7776 89.8317 51.7229 89.777 51.6955Z" fill="#073F0C"/>
<path d="M88.2428 37.4236H88.9003C88.9277 37.4236 88.9277 37.4236 88.9551 37.4236L89.5851 37.6154C89.6673 37.6428 89.7768 37.588 89.8042 37.5058L89.9138 37.2867C89.9412 37.2319 89.9412 37.1497 89.8864 37.0949L89.859 37.0675C89.7221 36.8758 89.6125 36.6566 89.6125 36.4101L89.5851 35.6705C89.5851 35.5883 89.5029 35.5061 89.4207 35.4787H89.229H89.2016L89.0098 35.4513C88.9277 35.4239 88.8181 35.4787 88.7907 35.5883L88.5442 36.3005C88.462 36.5197 88.325 36.7114 88.1333 36.8484L88.1059 36.8758C88.0511 36.9032 88.0237 36.9853 88.0237 37.0675L88.0511 37.3141C88.0785 37.3688 88.1606 37.4236 88.2428 37.4236Z" fill="#073F0C"/>
<path opacity="0.3" d="M102.268 22.2753C102.076 23.1519 101.309 23.8641 100.159 23.8641C98.5972 23.8641 98.5424 22.8505 98.4055 22.2479C98.2685 21.6452 98.2685 21.1521 98.3233 21.0152C98.4603 20.6591 98.8712 20.6591 100.104 20.6317C101.337 20.6043 102.021 20.5769 102.213 20.7686C102.405 20.9604 102.46 21.3713 102.268 22.2753Z" fill="white"/>
<path opacity="0.3" d="M91.8311 20.7686C92.0228 20.5769 92.7077 20.6043 93.9404 20.6317C95.1731 20.6591 95.584 20.6591 95.7209 21.0152C95.7757 21.1521 95.8031 21.6452 95.6387 22.2479C95.5018 22.8505 95.447 23.8641 93.8856 23.8641C92.7351 23.8641 91.9681 23.1519 91.7763 22.2753C91.5845 21.3713 91.6393 20.9604 91.8311 20.7686Z" fill="white"/>
<path d="M103.61 20.5768C103.583 20.3028 102.241 20.1932 101.282 20.1659C100.323 20.1385 98.7068 20.1111 98.1042 20.3028C97.5837 20.4672 97.6659 20.6589 97.0359 20.6589C96.4606 20.6589 96.4332 20.4672 95.9401 20.3028C95.3649 20.1111 93.7487 20.1659 92.7625 20.1659C91.8037 20.1932 90.4615 20.3028 90.4341 20.5768C90.4067 20.7137 90.4341 20.9329 90.4889 21.0972C90.5437 21.2342 91.0093 21.3164 91.0915 21.3712C91.2833 21.4533 91.2285 22.056 91.5024 22.686C91.8585 23.5078 92.7351 24.1653 94.4609 24.0283C96.0497 23.8913 96.0223 22.2203 96.2141 21.7547C96.3784 21.3712 96.2962 21.2342 97.0085 21.2342C97.7207 21.2342 97.6111 21.3712 97.7755 21.7547C97.9672 22.2203 97.9398 23.8913 99.5286 24.0283C101.254 24.1653 102.076 23.5352 102.46 22.686C102.734 22.0286 102.734 21.4259 102.898 21.3438C102.98 21.3164 103.473 21.2342 103.501 21.0698C103.61 20.9329 103.638 20.7137 103.61 20.5768ZM95.6662 22.2477C95.5292 22.8504 95.4744 23.8639 93.913 23.8639C92.7625 23.8639 91.9955 23.1517 91.8037 22.2751C91.612 21.3712 91.6394 20.9603 91.8585 20.7685C92.0503 20.5768 92.7351 20.6041 93.9678 20.6315C95.2005 20.6589 95.6114 20.6589 95.7484 21.015C95.7758 21.152 95.8032 21.6451 95.6662 22.2477ZM102.268 22.2751C102.076 23.1517 101.309 23.8639 100.159 23.8639C98.5973 23.8639 98.5425 22.8504 98.4055 22.2477C98.2686 21.6451 98.2686 21.152 98.3233 21.015C98.4603 20.6589 98.8712 20.6589 100.104 20.6315C101.337 20.6041 102.021 20.5768 102.213 20.7685C102.405 20.9603 102.46 21.3712 102.268 22.2751Z" fill="#133A50"/>
<path d="M104.432 35.1499C107.007 41.5599 103.09 50.4079 103.09 50.4079" stroke="#073F0C" stroke-width="2.3686" stroke-miterlimit="10"/>
<path d="M102.624 53.4489C103.623 53.4489 104.432 52.6395 104.432 51.641C104.432 50.6425 103.623 49.833 102.624 49.833C101.626 49.833 100.816 50.6425 100.816 51.641C100.816 52.6395 101.626 53.4489 102.624 53.4489Z" fill="white" stroke="#313858" stroke-width="2.2804" stroke-miterlimit="10"/>
<path d="M97.0359 73.8022V93.7445" stroke="#B2E491" stroke-width="1.8425" stroke-miterlimit="10" stroke-linecap="round" stroke-linejoin="round"/>
</svg>
