<svg width="43" height="26" viewBox="0 0 43 26" fill="none" xmlns="http://www.w3.org/2000/svg">
<path d="M40.3104 1H1.6896C0.75646 1 0 1.72044 0 2.60914V23.3909C0 24.2796 0.75646 25 1.6896 25H40.3104C41.2435 25 42 24.2796 42 23.3909V2.60914C42 1.72044 41.2435 1 40.3104 1Z" fill="white"/>
<path fill-rule="evenodd" clip-rule="evenodd" d="M17.5996 16.8186L18.9039 9.18896H20.9888L19.6846 16.8186H17.5996Z" fill="#26337A"/>
<path fill-rule="evenodd" clip-rule="evenodd" d="M27.2481 9.37675C26.8359 9.22363 26.1876 9.05664 25.3799 9.05664C23.3187 9.05664 21.8677 10.092 21.8556 11.5746C21.8425 12.6713 22.891 13.2829 23.6815 13.6474C24.4939 14.021 24.7669 14.2601 24.7637 14.5942C24.7581 15.1052 24.1152 15.3393 23.5158 15.3393C22.6811 15.3393 22.2376 15.2241 21.5519 14.9392L21.2837 14.8178L20.9922 16.5256C21.4784 16.7381 22.3796 16.9226 23.315 16.9322C25.5056 16.9322 26.929 15.9094 26.9457 14.3262C26.9533 13.4565 26.3977 12.7974 25.1945 12.2531C24.4659 11.8993 24.0188 11.665 24.0239 11.3069C24.0244 10.9898 24.4016 10.6503 25.2182 10.6503C25.9002 10.64 26.3939 10.7885 26.7786 10.9435L26.9658 11.0307L27.2481 9.37675Z" fill="#26337A"/>
<path fill-rule="evenodd" clip-rule="evenodd" d="M30.023 14.1131C30.1958 13.6746 30.8536 11.9805 30.8536 11.9805C30.8414 12.0007 31.0254 11.5386 31.1307 11.2526L31.2714 11.9107C31.2714 11.9107 31.6715 13.7317 31.7539 14.1131H30.023ZM32.5951 9.19629H30.9839C30.4841 9.19629 30.1101 9.33127 29.8911 9.82874L26.7949 16.8209H28.9847C28.9847 16.8209 29.342 15.8802 29.4231 15.6738C29.6619 15.6738 31.7897 15.6778 32.0935 15.6778C32.1559 15.944 32.3473 16.8209 32.3473 16.8209H34.2824L32.5951 9.19629Z" fill="#26337A"/>
<path fill-rule="evenodd" clip-rule="evenodd" d="M15.8505 9.1958L13.8098 14.3974L13.5912 13.34C13.211 12.1218 12.0272 10.8013 10.7031 10.1397L12.57 16.8124L14.7765 16.8111L18.0598 9.1958H15.8505Z" fill="#26337A"/>
<path fill-rule="evenodd" clip-rule="evenodd" d="M11.9152 9.18994H8.55306L8.52539 9.34803C11.1415 9.98003 12.8725 11.5055 13.5909 13.3393L12.8603 9.83366C12.7343 9.35017 12.3679 9.20684 11.9152 9.18994Z" fill="#EC982D"/>
</svg>
