<svg width="26" height="8" viewBox="0 0 26 8" fill="none" xmlns="http://www.w3.org/2000/svg">
<path fill-rule="evenodd" clip-rule="evenodd" d="M9.07422 7.76196L10.3785 0.132324H12.4634L11.1592 7.76196H9.07422Z" fill="#26337A"/>
<path fill-rule="evenodd" clip-rule="evenodd" d="M18.7228 0.320114C18.3105 0.166987 17.6622 0 16.8545 0C14.7933 0 13.3423 1.03538 13.3303 2.51797C13.3171 3.61465 14.3657 4.22625 15.1561 4.59076C15.9686 4.96439 16.2415 5.20349 16.2383 5.53758C16.2327 6.04856 15.5898 6.2827 14.9904 6.2827C14.1557 6.2827 13.7122 6.16744 13.0265 5.88259L12.7584 5.76113L12.4668 7.46896C12.953 7.68146 13.8542 7.86592 14.7896 7.87561C16.9802 7.87561 18.4037 6.85273 18.4204 5.26952C18.4279 4.39989 17.8723 3.74073 16.6691 3.19651C15.9405 2.8427 15.4934 2.60834 15.4985 2.25025C15.499 1.93318 15.8763 1.59369 16.6928 1.59369C17.3748 1.58332 17.8685 1.73183 18.2532 1.88687L18.4404 1.97409L18.7228 0.320114Z" fill="#26337A"/>
<path fill-rule="evenodd" clip-rule="evenodd" d="M21.4976 5.05649C21.6704 4.61796 22.3282 2.92387 22.3282 2.92387C22.316 2.94404 22.5 2.48196 22.6053 2.19599L22.746 2.85401C22.746 2.85401 23.1461 4.67508 23.2285 5.05649H21.4976ZM24.0697 0.139648H22.4585C21.9587 0.139648 21.5847 0.274634 21.3657 0.772099L18.2695 7.76421H20.4594C20.4594 7.76421 20.8166 6.82359 20.8977 6.61717C21.1365 6.61717 23.2644 6.62111 23.5681 6.62111C23.6306 6.88737 23.8219 7.76421 23.8219 7.76421H25.7571L24.0697 0.139648Z" fill="#26337A"/>
<path fill-rule="evenodd" clip-rule="evenodd" d="M7.32507 0.13916L5.28443 5.34074L5.06585 4.28339C4.68558 3.06513 3.50183 1.74468 2.17773 1.08305L4.04464 7.75572L6.25115 7.75448L9.53445 0.13916H7.32507Z" fill="#26337A"/>
<path fill-rule="evenodd" clip-rule="evenodd" d="M3.38978 0.133301H0.0276651L0 0.291386C2.61612 0.923386 4.34708 2.44891 5.06553 4.28271L4.33492 0.77702C4.20888 0.293527 3.84256 0.150202 3.38978 0.133301Z" fill="#EC982D"/>
</svg>
